<svg width="30" height="30" viewBox="0 0 30 30" fill="none" xmlns="http://www.w3.org/2000/svg">
<path d="M2.625 11.25C2.625 16.0093 6.49072 19.875 11.25 19.875C13.1602 19.875 14.9253 19.251 16.355 18.1978L17.9473 19.79C17.9004 19.9175 17.8726 20.0508 17.8726 20.1855C17.8726 20.4741 17.9824 20.7627 18.2007 20.981L24.2651 27.0454C24.7017 27.4819 25.4194 27.4819 25.856 27.0454L27.0454 25.856C27.4819 25.4194 27.4819 24.7017 27.0454 24.2651L20.981 18.2007C20.6616 17.8813 20.1914 17.7979 19.79 17.9473L18.1978 16.355C19.251 14.9253 19.875 13.1602 19.875 11.25C19.875 6.49072 16.0093 2.625 11.25 2.625C6.49072 2.625 2.625 6.49072 2.625 11.25ZM3.375 11.25C3.375 6.89648 6.89648 3.375 11.25 3.375C15.6035 3.375 19.125 6.89648 19.125 11.25C19.125 15.6035 15.6035 19.125 11.25 19.125C6.89648 19.125 3.375 15.6035 3.375 11.25ZM4.125 11.25C4.125 11.4565 4.29346 11.625 4.5 11.625C4.70654 11.625 4.875 11.4565 4.875 11.25C4.875 11.0435 4.70654 10.875 4.5 10.875C4.29346 10.875 4.125 11.0435 4.125 11.25ZM4.35498 12.9946C4.35498 13.0034 4.35498 13.0122 4.35498 13.0195C4.35791 13.0459 4.36084 13.0693 4.36816 13.0942C4.42236 13.2949 4.62744 13.4136 4.82813 13.3594C5.02734 13.3052 5.146 13.1001 5.0918 12.9009C5.03906 12.7002 4.83398 12.5815 4.6333 12.6343C4.4707 12.6782 4.35645 12.8247 4.35498 12.9946ZM4.35498 9.50537C4.35645 9.67383 4.4707 9.82178 4.6333 9.86572C4.83398 9.91846 5.03906 9.7998 5.0918 9.59912C5.146 9.3999 5.02734 9.19482 4.82813 9.14062C4.62744 9.08643 4.42236 9.20508 4.36816 9.40576C4.35938 9.43799 4.35498 9.47168 4.35498 9.50537ZM5.02881 14.6338C5.03027 14.6968 5.04785 14.7583 5.08008 14.8125C5.12842 14.8989 5.21045 14.9619 5.30713 14.9883C5.40381 15.0132 5.50635 15 5.59131 14.9502C5.67773 14.9004 5.74072 14.8184 5.76709 14.7217C5.79199 14.6265 5.77881 14.5239 5.729 14.4375C5.625 14.2588 5.39648 14.1973 5.21631 14.3013C5.09766 14.3687 5.02588 14.4961 5.02881 14.6338ZM5.03027 7.89258C5.03613 8.02002 5.10645 8.13574 5.21777 8.2002C5.39648 8.3042 5.62646 8.24121 5.73047 8.0625C5.83301 7.88379 5.77148 7.65381 5.59277 7.55127C5.50635 7.5 5.40381 7.48682 5.30859 7.51318C5.21191 7.53809 5.12988 7.60107 5.08008 7.6875C5.04346 7.74902 5.02734 7.8208 5.03027 7.89258ZM6.10107 16.0181C6.10107 16.1191 6.14063 16.2173 6.21094 16.2891C6.35742 16.4341 6.59619 16.4341 6.74268 16.2891C6.8877 16.1426 6.8877 15.9038 6.74268 15.7573C6.59619 15.6123 6.35742 15.6123 6.21094 15.7573C6.14209 15.8276 6.10254 15.9199 6.10107 16.0181ZM6.10107 6.47168C6.09961 6.57275 6.13916 6.6709 6.21094 6.74268C6.35742 6.88916 6.59619 6.88916 6.74268 6.74268C6.8877 6.59619 6.8877 6.35889 6.74268 6.2124C6.59619 6.06592 6.35742 6.06592 6.21094 6.2124C6.14209 6.28125 6.104 6.37354 6.10107 6.47168ZM7.5 5.41406C7.50146 5.47705 7.51904 5.53857 7.55127 5.59277C7.65381 5.77148 7.88379 5.83301 8.0625 5.73047C8.24121 5.62646 8.30273 5.39648 8.19873 5.21777C8.09619 5.03906 7.86621 4.97607 7.6875 5.08008C7.56885 5.14893 7.49707 5.27637 7.5 5.41406ZM7.5 17.1138C7.50732 17.2397 7.57764 17.3555 7.6875 17.4199C7.86621 17.5239 8.09619 17.4624 8.19873 17.2837C8.30273 17.1035 8.24121 16.875 8.0625 16.771C7.88379 16.667 7.65381 16.7285 7.55127 16.9087C7.51465 16.9702 7.49707 17.042 7.5 17.1138ZM9.12891 17.7729C9.13037 17.9429 9.24316 18.0894 9.40576 18.1333C9.60645 18.186 9.81152 18.0674 9.86572 17.8667C9.91992 17.6675 9.80127 17.4624 9.60059 17.4082C9.3999 17.354 9.19482 17.4727 9.14062 17.6733C9.13184 17.7056 9.12744 17.7393 9.12891 17.7729ZM9.12891 4.72705C9.12744 4.73584 9.12891 4.74463 9.12891 4.75342C9.13037 4.77832 9.13477 4.80322 9.14063 4.82812C9.19482 5.02734 9.3999 5.146 9.60059 5.0918C9.80127 5.03906 9.91992 4.83398 9.86572 4.6333C9.84082 4.53662 9.77783 4.45459 9.69141 4.40479C9.60498 4.35498 9.50244 4.3418 9.40576 4.3667C9.24316 4.41064 9.13037 4.55713 9.12891 4.72705ZM10.875 18C10.875 18.2065 11.0435 18.375 11.25 18.375C11.4565 18.375 11.625 18.2065 11.625 18C11.625 17.7935 11.4565 17.625 11.25 17.625C11.0435 17.625 10.875 17.7935 10.875 18ZM10.875 4.5C10.875 4.70654 11.0435 4.875 11.25 4.875C11.4565 4.875 11.625 4.70654 11.625 4.5C11.625 4.29346 11.4565 4.125 11.25 4.125C11.0435 4.125 10.875 4.29346 10.875 4.5ZM12.6226 17.7554C12.6211 17.7935 12.6255 17.8315 12.6343 17.8667C12.6885 18.0674 12.8936 18.186 13.0942 18.1333C13.2949 18.0791 13.4136 17.874 13.3594 17.6733C13.3052 17.4727 13.1001 17.354 12.9009 17.4082C12.7412 17.4507 12.6284 17.5913 12.6226 17.7554ZM12.6226 4.73438C12.624 4.90283 12.7383 5.04932 12.9009 5.0918C12.9976 5.11816 13.1001 5.10498 13.1851 5.05518C13.2715 5.00537 13.3345 4.92334 13.3594 4.82666C13.4136 4.62598 13.2949 4.4209 13.0957 4.3667C12.895 4.31396 12.6899 4.43262 12.6357 4.6333C12.627 4.66553 12.6226 4.69922 12.6226 4.73438ZM14.25 17.105C14.2515 17.168 14.269 17.228 14.2998 17.2837C14.3496 17.3687 14.4316 17.4316 14.5283 17.458C14.6235 17.4844 14.7261 17.4712 14.8125 17.4199C14.8989 17.3716 14.9619 17.2896 14.9868 17.1929C15.0132 17.0962 15 16.9937 14.9487 16.9087C14.8462 16.7285 14.6162 16.667 14.4375 16.771C14.3188 16.8398 14.2471 16.9673 14.25 17.105ZM14.2515 5.42139C14.2573 5.55029 14.3276 5.66602 14.4375 5.73047C14.5239 5.78027 14.6265 5.79346 14.7231 5.76709C14.8198 5.74072 14.9019 5.67773 14.9517 5.59131C15.0542 5.4126 14.9927 5.18408 14.8125 5.08008C14.6338 4.97607 14.4053 5.0376 14.3013 5.21631C14.2646 5.2793 14.2485 5.35107 14.2515 5.42139ZM15.6489 16.0181C15.6475 16.1191 15.687 16.2173 15.7573 16.2891C15.9038 16.4341 16.1426 16.4341 16.2891 16.2891C16.4341 16.1426 16.4341 15.9038 16.2891 15.7573C16.1426 15.6123 15.9038 15.6123 15.7573 15.7573C15.6885 15.8276 15.6489 15.9199 15.6489 16.0181ZM15.6489 6.47168C15.646 6.57275 15.6855 6.6709 15.7573 6.74268C15.9038 6.88916 16.1426 6.88916 16.2891 6.74268C16.4341 6.59619 16.4341 6.35889 16.2891 6.2124C16.1426 6.06592 15.9038 6.06592 15.7573 6.2124C15.6885 6.28125 15.6504 6.37354 15.6489 6.47168ZM16.7212 7.88525C16.7212 7.94678 16.7388 8.0083 16.7695 8.0625C16.8735 8.24268 17.1035 8.3042 17.2822 8.2002C17.4609 8.09619 17.5239 7.86768 17.4199 7.6875C17.3701 7.60254 17.2881 7.53955 17.1914 7.51318C17.0962 7.48682 16.9937 7.5 16.9072 7.55127C16.7886 7.61865 16.7168 7.74756 16.7212 7.88525ZM16.7212 14.6426C16.7271 14.7715 16.7974 14.8872 16.9087 14.9502C17.0874 15.0542 17.3174 14.9927 17.4199 14.8125C17.4712 14.7275 17.4844 14.625 17.458 14.5283C17.4331 14.4316 17.3701 14.3496 17.2837 14.3013C17.1973 14.25 17.0947 14.2368 16.9995 14.2632C16.9028 14.2896 16.8208 14.3525 16.771 14.4375C16.7344 14.5005 16.7183 14.5723 16.7212 14.6426ZM16.9424 17.7246C17.2192 17.48 17.48 17.2192 17.7246 16.9424L19.1865 18.4043L18.4043 19.1865L16.9424 17.7246ZM17.3965 13.0005C17.3979 13.1689 17.5107 13.3154 17.6733 13.3594C17.874 13.4136 18.0791 13.2949 18.1333 13.0942C18.1875 12.8936 18.0688 12.6885 17.8682 12.6343C17.7715 12.6094 17.6689 12.6226 17.5825 12.6724C17.4976 12.7222 17.4346 12.8042 17.4082 12.9009C17.3994 12.9331 17.395 12.9668 17.3965 13.0005ZM17.3965 9.48779C17.395 9.52588 17.3979 9.56396 17.4082 9.59912C17.4624 9.7998 17.6675 9.91846 17.8667 9.86572C18.0674 9.81152 18.186 9.60645 18.1333 9.40576C18.0791 9.20508 17.874 9.08643 17.6733 9.14062C17.5151 9.18311 17.4023 9.32373 17.3965 9.48779ZM17.625 11.25C17.625 11.4565 17.7935 11.625 18 11.625C18.2065 11.625 18.375 11.4565 18.375 11.25C18.375 11.0435 18.2065 10.875 18 10.875C17.7935 10.875 17.625 11.0435 17.625 11.25ZM18.6196 20.1855C18.6196 20.0903 18.6562 19.9966 18.731 19.9219L19.9204 18.731C20.0698 18.5815 20.3013 18.5815 20.4507 18.731L26.5151 24.7954C26.6646 24.9448 26.6646 25.1763 26.5151 25.3257L25.3257 26.5151C25.1763 26.6646 24.9448 26.6646 24.7954 26.5151L24.1553 25.875L25.0151 25.0151L24.4849 24.4849L23.625 25.3447L23.0303 24.75L23.8901 23.8901L23.3599 23.3599L22.5 24.2197L21.9053 23.625L22.7651 22.7651L22.2349 22.2349L21.375 23.0947L20.7803 22.5L21.6401 21.6401L21.1099 21.1099L20.25 21.9697L19.6553 21.375L20.5151 20.5151L19.9849 19.9849L19.125 20.8447L18.731 20.4507C18.6562 20.376 18.6196 20.2808 18.6196 20.1855Z" fill="black"/>
</svg>
