<svg width="50" height="50" viewBox="0 0 50 50" fill="none" xmlns="http://www.w3.org/2000/svg">
<path d="M18.9709 6.25C17.4523 6.25 16.0399 7.03854 15.2441 8.3313L11.9104 13.75H7.5C4.40093 13.75 1.875 16.2759 1.875 19.375V34.375C1.875 37.0344 3.76186 39.1986 6.25 39.7791V41.875C6.25 42.9031 7.09689 43.75 8.125 43.75H10.9741C11.7785 43.75 12.4982 43.2312 12.7527 42.4683V42.467L13.5754 40H22.3962L24.1003 42.8394V42.8406C24.439 43.4037 25.0502 43.75 25.708 43.75H32.5C33.5281 43.75 34.375 42.9031 34.375 41.875V33.75H38.6023L44.8523 36.875H48.75V18.125H44.8523L44.7205 18.1909L38.6023 21.25H34.375V13.125H36.875C36.875 14.1531 37.7219 15 38.75 15H43.75C46.159 15 48.125 13.034 48.125 10.625C48.125 8.21604 46.159 6.25 43.75 6.25H38.75C37.7219 6.25 36.875 7.09689 36.875 8.125H33.5828C32.7903 6.99405 31.48 6.25 30 6.25H18.9709ZM18.9709 7.5H30C31.7335 7.5 33.125 8.89146 33.125 10.625V21.25V33.75V38.75C32.9592 38.75 32.8003 38.8158 32.6831 38.9331C32.5658 39.0503 32.5 39.2092 32.5 39.375C32.5 39.5408 32.5658 39.6997 32.6831 39.8169C32.8003 39.9342 32.9592 40 33.125 40V41.875C33.125 42.2281 32.8531 42.5 32.5 42.5H25.708C25.4887 42.5 25.2861 42.3848 25.1721 42.196L23.6658 39.6863C23.7206 39.5917 23.7496 39.4843 23.75 39.375C23.75 39.2092 23.6842 39.0503 23.5669 38.9331C23.4497 38.8158 23.2908 38.75 23.125 38.75C23.1181 38.7499 23.1112 38.7499 23.1042 38.75H12.6746L12.6672 38.7732C12.6128 38.7579 12.5565 38.7501 12.5 38.75C12.3342 38.75 12.1753 38.8158 12.0581 38.9331C11.9408 39.0503 11.875 39.2092 11.875 39.375C11.8749 39.5007 11.9127 39.6235 11.9835 39.7274C12.0543 39.8312 12.1547 39.9114 12.2717 39.9573L11.5662 42.0728C11.4804 42.3305 11.2456 42.5 10.9741 42.5H8.125C7.77186 42.5 7.5 42.2281 7.5 41.875V40C7.66576 40 7.82473 39.9342 7.94194 39.8169C8.05915 39.6997 8.125 39.5408 8.125 39.375C8.125 39.2092 8.05915 39.0503 7.94194 38.9331C7.82473 38.8158 7.66576 38.75 7.5 38.75C7.45566 38.7502 7.41146 38.7551 7.36816 38.7646L6.9519 38.7122C4.79351 38.4424 3.125 36.6123 3.125 34.375V19.375C3.125 16.9516 5.07657 15 7.5 15H12.6086L16.3086 8.98682C16.8778 8.06208 17.8846 7.5 18.9709 7.5ZM38.75 7.5H43.75C45.4835 7.5 46.875 8.89146 46.875 10.625C46.875 12.3585 45.4835 13.75 43.75 13.75H38.75C38.3969 13.75 38.125 13.4781 38.125 13.125V11.875H34.375V10.625C34.375 10.1908 34.3083 9.77147 34.1895 9.375H38.125V8.125C38.125 7.77186 38.3969 7.5 38.75 7.5ZM19.0967 9.375C18.6661 9.375 18.2649 9.5987 18.0371 9.96216H18.0359L14.8877 15H16.0156H31.25V10.625C31.25 9.94184 30.6832 9.375 30 9.375H19.0967ZM37.5 10C37.3342 10 37.1753 10.0658 37.0581 10.1831C36.9408 10.3003 36.875 10.4592 36.875 10.625C36.875 10.7908 36.9408 10.9497 37.0581 11.0669C37.1753 11.1842 37.3342 11.25 37.5 11.25C37.6658 11.25 37.8247 11.1842 37.9419 11.0669C38.0592 10.9497 38.125 10.7908 38.125 10.625C38.125 10.4592 38.0592 10.3003 37.9419 10.1831C37.8247 10.0658 37.6658 10 37.5 10ZM19.0967 10.625H30V13.75H17.1436L19.0955 10.6262L19.0967 10.625ZM7.5 19.375C7.33424 19.375 7.17527 19.4408 7.05806 19.5581C6.94085 19.6753 6.875 19.8342 6.875 20C6.875 20.1658 6.94085 20.3247 7.05806 20.4419C7.17527 20.5592 7.33424 20.625 7.5 20.625C7.66576 20.625 7.82473 20.5592 7.94194 20.4419C8.05915 20.3247 8.125 20.1658 8.125 20C8.125 19.8342 8.05915 19.6753 7.94194 19.5581C7.82473 19.4408 7.66576 19.375 7.5 19.375ZM10 19.375C9.83424 19.375 9.67527 19.4408 9.55806 19.5581C9.44085 19.6753 9.375 19.8342 9.375 20C9.375 20.1658 9.44085 20.3247 9.55806 20.4419C9.67527 20.5592 9.83424 20.625 10 20.625C10.1658 20.625 10.3247 20.5592 10.4419 20.4419C10.5592 20.3247 10.625 20.1658 10.625 20C10.625 19.8342 10.5592 19.6753 10.4419 19.5581C10.3247 19.4408 10.1658 19.375 10 19.375ZM12.5 19.375C12.3342 19.375 12.1753 19.4408 12.0581 19.5581C11.9408 19.6753 11.875 19.8342 11.875 20C11.875 20.1658 11.9408 20.3247 12.0581 20.4419C12.1753 20.5592 12.3342 20.625 12.5 20.625C12.6658 20.625 12.8247 20.5592 12.9419 20.4419C13.0592 20.3247 13.125 20.1658 13.125 20C13.125 19.8342 13.0592 19.6753 12.9419 19.5581C12.8247 19.4408 12.6658 19.375 12.5 19.375ZM15 19.375C14.8342 19.375 14.6753 19.4408 14.5581 19.5581C14.4408 19.6753 14.375 19.8342 14.375 20C14.375 20.1658 14.4408 20.3247 14.5581 20.4419C14.6753 20.5592 14.8342 20.625 15 20.625C15.1658 20.625 15.3247 20.5592 15.4419 20.4419C15.5592 20.3247 15.625 20.1658 15.625 20C15.625 19.8342 15.5592 19.6753 15.4419 19.5581C15.3247 19.4408 15.1658 19.375 15 19.375ZM17.5 19.375C17.3342 19.375 17.1753 19.4408 17.0581 19.5581C16.9408 19.6753 16.875 19.8342 16.875 20C16.875 20.1658 16.9408 20.3247 17.0581 20.4419C17.1753 20.5592 17.3342 20.625 17.5 20.625C17.6658 20.625 17.8247 20.5592 17.9419 20.4419C18.0592 20.3247 18.125 20.1658 18.125 20C18.125 19.8342 18.0592 19.6753 17.9419 19.5581C17.8247 19.4408 17.6658 19.375 17.5 19.375ZM20 19.375C19.8342 19.375 19.6753 19.4408 19.5581 19.5581C19.4408 19.6753 19.375 19.8342 19.375 20C19.375 20.1658 19.4408 20.3247 19.5581 20.4419C19.6753 20.5592 19.8342 20.625 20 20.625C20.1658 20.625 20.3247 20.5592 20.4419 20.4419C20.5592 20.3247 20.625 20.1658 20.625 20C20.625 19.8342 20.5592 19.6753 20.4419 19.5581C20.3247 19.4408 20.1658 19.375 20 19.375ZM45.1477 19.375H47.5V35.625H45.1477L39.3347 32.7185C39.3611 32.6487 39.3747 32.5747 39.375 32.5C39.375 32.3342 39.3092 32.1753 39.1919 32.0581C39.0747 31.9408 38.9158 31.875 38.75 31.875C38.5842 31.875 38.4253 31.9408 38.3081 32.0581C38.1908 32.1753 38.125 32.3342 38.125 32.5H34.375V22.5H38.125C38.125 22.6658 38.1908 22.8247 38.3081 22.9419C38.4253 23.0592 38.5842 23.125 38.75 23.125C38.9158 23.125 39.0747 23.0592 39.1919 22.9419C39.3092 22.8247 39.375 22.6658 39.375 22.5C39.3747 22.4253 39.3611 22.3513 39.3347 22.2815L45.1477 19.375ZM45 20.625C44.8342 20.625 44.6753 20.6908 44.5581 20.8081C44.4408 20.9253 44.375 21.0842 44.375 21.25C44.375 21.4158 44.4408 21.5747 44.5581 21.6919C44.6753 21.8092 44.8342 21.875 45 21.875C45.1658 21.875 45.3247 21.8092 45.4419 21.6919C45.5592 21.5747 45.625 21.4158 45.625 21.25C45.625 21.0842 45.5592 20.9253 45.4419 20.8081C45.3247 20.6908 45.1658 20.625 45 20.625ZM7.5 21.875C7.33424 21.875 7.17527 21.9408 7.05806 22.0581C6.94085 22.1753 6.875 22.3342 6.875 22.5C6.875 22.6658 6.94085 22.8247 7.05806 22.9419C7.17527 23.0592 7.33424 23.125 7.5 23.125C7.66576 23.125 7.82473 23.0592 7.94194 22.9419C8.05915 22.8247 8.125 22.6658 8.125 22.5C8.125 22.3342 8.05915 22.1753 7.94194 22.0581C7.82473 21.9408 7.66576 21.875 7.5 21.875ZM20 21.875C19.8342 21.875 19.6753 21.9408 19.5581 22.0581C19.4408 22.1753 19.375 22.3342 19.375 22.5C19.375 22.6658 19.4408 22.8247 19.5581 22.9419C19.6753 23.0592 19.8342 23.125 20 23.125C20.1658 23.125 20.3247 23.0592 20.4419 22.9419C20.5592 22.8247 20.625 22.6658 20.625 22.5C20.625 22.3342 20.5592 22.1753 20.4419 22.0581C20.3247 21.9408 20.1658 21.875 20 21.875ZM45 23.125C44.8342 23.125 44.6753 23.1908 44.5581 23.3081C44.4408 23.4253 44.375 23.5842 44.375 23.75C44.375 23.9158 44.4408 24.0747 44.5581 24.1919C44.6753 24.3092 44.8342 24.375 45 24.375C45.1658 24.375 45.3247 24.3092 45.4419 24.1919C45.5592 24.0747 45.625 23.9158 45.625 23.75C45.625 23.5842 45.5592 23.4253 45.4419 23.3081C45.3247 23.1908 45.1658 23.125 45 23.125ZM7.5 24.375C7.33424 24.375 7.17527 24.4408 7.05806 24.5581C6.94085 24.6753 6.875 24.8342 6.875 25C6.875 25.1658 6.94085 25.3247 7.05806 25.4419C7.17527 25.5592 7.33424 25.625 7.5 25.625C7.66576 25.625 7.82473 25.5592 7.94194 25.4419C8.05915 25.3247 8.125 25.1658 8.125 25C8.125 24.8342 8.05915 24.6753 7.94194 24.5581C7.82473 24.4408 7.66576 24.375 7.5 24.375ZM20 24.375C19.8342 24.375 19.6753 24.4408 19.5581 24.5581C19.4408 24.6753 19.375 24.8342 19.375 25C19.375 25.1658 19.4408 25.3247 19.5581 25.4419C19.6753 25.5592 19.8342 25.625 20 25.625C20.1658 25.625 20.3247 25.5592 20.4419 25.4419C20.5592 25.3247 20.625 25.1658 20.625 25C20.625 24.8342 20.5592 24.6753 20.4419 24.5581C20.3247 24.4408 20.1658 24.375 20 24.375ZM38.75 24.375C38.5842 24.375 38.4253 24.4408 38.3081 24.5581C38.1908 24.6753 38.125 24.8342 38.125 25C38.125 25.1658 38.1908 25.3247 38.3081 25.4419C38.4253 25.5592 38.5842 25.625 38.75 25.625C38.9158 25.625 39.0747 25.5592 39.1919 25.4419C39.3092 25.3247 39.375 25.1658 39.375 25C39.375 24.8342 39.3092 24.6753 39.1919 24.5581C39.0747 24.4408 38.9158 24.375 38.75 24.375ZM45 25.625C44.8342 25.625 44.6753 25.6908 44.5581 25.8081C44.4408 25.9253 44.375 26.0842 44.375 26.25C44.375 26.4158 44.4408 26.5747 44.5581 26.6919C44.6753 26.8092 44.8342 26.875 45 26.875C45.1658 26.875 45.3247 26.8092 45.4419 26.6919C45.5592 26.5747 45.625 26.4158 45.625 26.25C45.625 26.0842 45.5592 25.9253 45.4419 25.8081C45.3247 25.6908 45.1658 25.625 45 25.625ZM7.5 26.875C7.33424 26.875 7.17527 26.9408 7.05806 27.0581C6.94085 27.1753 6.875 27.3342 6.875 27.5C6.875 27.6658 6.94085 27.8247 7.05806 27.9419C7.17527 28.0592 7.33424 28.125 7.5 28.125C7.66576 28.125 7.82473 28.0592 7.94194 27.9419C8.05915 27.8247 8.125 27.6658 8.125 27.5C8.125 27.3342 8.05915 27.1753 7.94194 27.0581C7.82473 26.9408 7.66576 26.875 7.5 26.875ZM10 26.875C9.83424 26.875 9.67527 26.9408 9.55806 27.0581C9.44085 27.1753 9.375 27.3342 9.375 27.5C9.375 27.6658 9.44085 27.8247 9.55806 27.9419C9.67527 28.0592 9.83424 28.125 10 28.125C10.1658 28.125 10.3247 28.0592 10.4419 27.9419C10.5592 27.8247 10.625 27.6658 10.625 27.5C10.625 27.3342 10.5592 27.1753 10.4419 27.0581C10.3247 26.9408 10.1658 26.875 10 26.875ZM12.5 26.875C12.3342 26.875 12.1753 26.9408 12.0581 27.0581C11.9408 27.1753 11.875 27.3342 11.875 27.5C11.875 27.6658 11.9408 27.8247 12.0581 27.9419C12.1753 28.0592 12.3342 28.125 12.5 28.125C12.6658 28.125 12.8247 28.0592 12.9419 27.9419C13.0592 27.8247 13.125 27.6658 13.125 27.5C13.125 27.3342 13.0592 27.1753 12.9419 27.0581C12.8247 26.9408 12.6658 26.875 12.5 26.875ZM15 26.875C14.8342 26.875 14.6753 26.9408 14.5581 27.0581C14.4408 27.1753 14.375 27.3342 14.375 27.5C14.375 27.6658 14.4408 27.8247 14.5581 27.9419C14.6753 28.0592 14.8342 28.125 15 28.125C15.1658 28.125 15.3247 28.0592 15.4419 27.9419C15.5592 27.8247 15.625 27.6658 15.625 27.5C15.625 27.3342 15.5592 27.1753 15.4419 27.0581C15.3247 26.9408 15.1658 26.875 15 26.875ZM17.5 26.875C17.3342 26.875 17.1753 26.9408 17.0581 27.0581C16.9408 27.1753 16.875 27.3342 16.875 27.5C16.875 27.6658 16.9408 27.8247 17.0581 27.9419C17.1753 28.0592 17.3342 28.125 17.5 28.125C17.6658 28.125 17.8247 28.0592 17.9419 27.9419C18.0592 27.8247 18.125 27.6658 18.125 27.5C18.125 27.3342 18.0592 27.1753 17.9419 27.0581C17.8247 26.9408 17.6658 26.875 17.5 26.875ZM20 26.875C19.8342 26.875 19.6753 26.9408 19.5581 27.0581C19.4408 27.1753 19.375 27.3342 19.375 27.5C19.375 27.6658 19.4408 27.8247 19.5581 27.9419C19.6753 28.0592 19.8342 28.125 20 28.125C20.1658 28.125 20.3247 28.0592 20.4419 27.9419C20.5592 27.8247 20.625 27.6658 20.625 27.5C20.625 27.3342 20.5592 27.1753 20.4419 27.0581C20.3247 26.9408 20.1658 26.875 20 26.875ZM38.75 26.875C38.5842 26.875 38.4253 26.9408 38.3081 27.0581C38.1908 27.1753 38.125 27.3342 38.125 27.5C38.125 27.6658 38.1908 27.8247 38.3081 27.9419C38.4253 28.0592 38.5842 28.125 38.75 28.125C38.9158 28.125 39.0747 28.0592 39.1919 27.9419C39.3092 27.8247 39.375 27.6658 39.375 27.5C39.375 27.3342 39.3092 27.1753 39.1919 27.0581C39.0747 26.9408 38.9158 26.875 38.75 26.875ZM45 28.125C44.8342 28.125 44.6753 28.1908 44.5581 28.3081C44.4408 28.4253 44.375 28.5842 44.375 28.75C44.375 28.9158 44.4408 29.0747 44.5581 29.1919C44.6753 29.3092 44.8342 29.375 45 29.375C45.1658 29.375 45.3247 29.3092 45.4419 29.1919C45.5592 29.0747 45.625 28.9158 45.625 28.75C45.625 28.5842 45.5592 28.4253 45.4419 28.3081C45.3247 28.1908 45.1658 28.125 45 28.125ZM38.75 29.375C38.5842 29.375 38.4253 29.4408 38.3081 29.5581C38.1908 29.6753 38.125 29.8342 38.125 30C38.125 30.1658 38.1908 30.3247 38.3081 30.4419C38.4253 30.5592 38.5842 30.625 38.75 30.625C38.9158 30.625 39.0747 30.5592 39.1919 30.4419C39.3092 30.3247 39.375 30.1658 39.375 30C39.375 29.8342 39.3092 29.6753 39.1919 29.5581C39.0747 29.4408 38.9158 29.375 38.75 29.375ZM45 30.625C44.8342 30.625 44.6753 30.6908 44.5581 30.8081C44.4408 30.9253 44.375 31.0842 44.375 31.25C44.375 31.4158 44.4408 31.5747 44.5581 31.6919C44.6753 31.8092 44.8342 31.875 45 31.875C45.1658 31.875 45.3247 31.8092 45.4419 31.6919C45.5592 31.5747 45.625 31.4158 45.625 31.25C45.625 31.0842 45.5592 30.9253 45.4419 30.8081C45.3247 30.6908 45.1658 30.625 45 30.625ZM45 33.125C44.8342 33.125 44.6753 33.1908 44.5581 33.3081C44.4408 33.4253 44.375 33.5842 44.375 33.75C44.375 33.9158 44.4408 34.0747 44.5581 34.1919C44.6753 34.3092 44.8342 34.375 45 34.375C45.1658 34.375 45.3247 34.3092 45.4419 34.1919C45.5592 34.0747 45.625 33.9158 45.625 33.75C45.625 33.5842 45.5592 33.4253 45.4419 33.3081C45.3247 33.1908 45.1658 33.125 45 33.125ZM10 38.75C9.83424 38.75 9.67527 38.8158 9.55806 38.9331C9.44085 39.0503 9.375 39.2092 9.375 39.375C9.375 39.5408 9.44085 39.6997 9.55806 39.8169C9.67527 39.9342 9.83424 40 10 40C10.1658 40 10.3247 39.9342 10.4419 39.8169C10.5592 39.6997 10.625 39.5408 10.625 39.375C10.625 39.2092 10.5592 39.0503 10.4419 38.9331C10.3247 38.8158 10.1658 38.75 10 38.75ZM25.625 38.75C25.4592 38.75 25.3003 38.8158 25.1831 38.9331C25.0658 39.0503 25 39.2092 25 39.375C25 39.5408 25.0658 39.6997 25.1831 39.8169C25.3003 39.9342 25.4592 40 25.625 40C25.7908 40 25.9497 39.9342 26.0669 39.8169C26.1842 39.6997 26.25 39.5408 26.25 39.375C26.25 39.2092 26.1842 39.0503 26.0669 38.9331C25.9497 38.8158 25.7908 38.75 25.625 38.75ZM28.125 38.75C27.9592 38.75 27.8003 38.8158 27.6831 38.9331C27.5658 39.0503 27.5 39.2092 27.5 39.375C27.5 39.5408 27.5658 39.6997 27.6831 39.8169C27.8003 39.9342 27.9592 40 28.125 40C28.2908 40 28.4497 39.9342 28.5669 39.8169C28.6842 39.6997 28.75 39.5408 28.75 39.375C28.75 39.2092 28.6842 39.0503 28.5669 38.9331C28.4497 38.8158 28.2908 38.75 28.125 38.75ZM30.625 38.75C30.4592 38.75 30.3003 38.8158 30.1831 38.9331C30.0658 39.0503 30 39.2092 30 39.375C30 39.5408 30.0658 39.6997 30.1831 39.8169C30.3003 39.9342 30.4592 40 30.625 40C30.7908 40 30.9497 39.9342 31.0669 39.8169C31.1842 39.6997 31.25 39.5408 31.25 39.375C31.25 39.2092 31.1842 39.0503 31.0669 38.9331C30.9497 38.8158 30.7908 38.75 30.625 38.75Z" fill="white"/>
</svg>
