<svg width="50" height="50" viewBox="0 0 50 50" fill="none" xmlns="http://www.w3.org/2000/svg">
<path d="M8.75 6.875C7.37687 6.875 6.25 8.00187 6.25 9.375V41.875C6.25 43.2481 7.37687 44.375 8.75 44.375H41.25C42.6231 44.375 43.75 43.2481 43.75 41.875V9.375C43.75 8.00187 42.6231 6.875 41.25 6.875H8.75ZM8.75 8.125H41.25C41.9481 8.125 42.5 8.67688 42.5 9.375V41.875C42.5 42.5731 41.9481 43.125 41.25 43.125H8.75C8.05188 43.125 7.5 42.5731 7.5 41.875V9.375C7.5 8.67688 8.05188 8.125 8.75 8.125ZM15.2197 12.1375C14.7614 12.1375 14.2711 12.4406 14.1052 12.9443C13.7865 13.9142 13.0264 14.6739 12.0569 14.9927C11.5531 15.1585 11.25 15.6501 11.25 16.1084C11.25 16.5667 11.5531 17.0571 12.0569 17.2229C13.0268 17.5417 13.7864 18.3018 14.1052 19.2712C14.2711 19.775 14.7614 20.0781 15.2197 20.0781C15.678 20.0781 16.1684 19.775 16.3342 19.2712C16.653 18.3014 17.4131 17.5417 18.3826 17.2229C18.8863 17.0571 19.1895 16.5667 19.1895 16.1084C19.1895 15.6501 18.8863 15.1585 18.3826 14.9927C17.4127 14.6739 16.653 13.9138 16.3342 12.9443C16.1684 12.4406 15.678 12.1375 15.2197 12.1375ZM31.5454 13.1665C31.0438 13.1665 30.5094 13.4949 30.3271 14.0491L29.4006 16.8677C29.0056 18.0685 28.0649 19.0092 26.864 19.4043L24.0442 20.3308C23.4905 20.5132 23.1628 21.0487 23.1628 21.5503C23.1628 22.0519 23.4905 22.5862 24.0442 22.7686L26.864 23.6951C28.0649 24.0901 29.0056 25.0308 29.4006 26.2317L30.3271 29.0515C30.5095 29.6052 31.0438 29.9329 31.5454 29.9329C32.0473 29.9329 32.5828 29.6046 32.7649 29.0503L33.6914 26.2317C34.0865 25.0308 35.0272 24.0901 36.228 23.6951L39.0466 22.7686C39.6009 22.5865 39.9292 22.0522 39.9292 21.5503C39.9292 21.0484 39.6009 20.5129 39.0466 20.3308L36.228 19.4043C35.0272 19.0092 34.0865 18.0685 33.6914 16.8677L32.7649 14.0491C32.5827 13.4949 32.047 13.1665 31.5454 13.1665ZM15.2197 13.4546C15.6708 14.6908 16.6364 15.6576 17.8735 16.1084C16.637 16.5593 15.6707 17.525 15.2197 18.7622C14.7688 17.5257 13.8031 16.5594 12.5659 16.1084C13.8024 15.6577 14.7685 14.6915 15.2197 13.4546ZM31.5271 14.4092C31.5297 14.4097 31.5334 14.4165 31.5454 14.4165C31.5694 14.4165 31.5612 14.3901 31.5771 14.4385L32.5049 17.2583C33.0236 18.8349 34.2608 20.0721 35.8374 20.5908L38.6572 21.5186C38.7061 21.5346 38.6792 21.5265 38.6792 21.5503C38.6792 21.5741 38.7061 21.5648 38.6572 21.5808L35.8374 22.5085C34.2608 23.0272 33.0236 24.2644 32.5049 25.8411L31.5771 28.6609C31.5611 28.7098 31.5692 28.6829 31.5454 28.6829C31.5216 28.6829 31.5309 28.7098 31.5149 28.6609L30.5872 25.8411C30.0685 24.2644 28.8313 23.0272 27.2546 22.5085L24.4348 21.5808C24.386 21.5648 24.4128 21.5741 24.4128 21.5503C24.4128 21.5265 24.386 21.5346 24.4348 21.5186L27.2546 20.5908C28.8313 20.0721 30.0685 18.8349 30.5872 17.2583L31.5149 14.4385C31.5228 14.4143 31.5245 14.4086 31.5271 14.4092ZM18.7756 26.2109C18.277 26.2109 17.7449 26.5369 17.5635 27.0874L17.4512 27.4292C17.0611 28.6144 16.1327 29.5428 14.9475 29.9329L14.6057 30.0452C14.0551 30.2264 13.7292 30.7572 13.7292 31.2561C13.7292 31.755 14.0551 32.287 14.6057 32.4683L14.9475 32.5806C16.1327 32.9706 17.0611 33.899 17.4512 35.0842L17.5635 35.426V35.4272C17.7447 35.9778 18.2768 36.3037 18.7756 36.3037C19.2745 36.3037 19.8053 35.9778 19.9866 35.4272V35.426L20.0989 35.0842C20.4889 33.899 21.4173 32.9706 22.6025 32.5806L22.9443 32.4683C23.4949 32.287 23.822 31.755 23.822 31.2561C23.822 30.7572 23.4949 30.2264 22.9443 30.0452L22.6025 29.9329C21.4173 29.5428 20.4889 28.6144 20.0989 27.4292L19.9866 27.0874C19.8052 26.5369 19.2743 26.2109 18.7756 26.2109ZM18.761 27.4524C18.7626 27.4538 18.7651 27.4609 18.7756 27.4609C18.7967 27.4609 18.7852 27.4329 18.8 27.478L18.9124 27.8198C19.4261 29.3808 20.6509 30.6057 22.2119 31.1194L22.5537 31.2329C22.5994 31.2479 22.572 31.2353 22.572 31.2561C22.572 31.2769 22.5994 31.2655 22.5537 31.2805L22.2119 31.3928C20.6509 31.9065 19.4261 33.1326 18.9124 34.6936L18.7988 35.0366C18.7873 35.0722 18.7953 35.0537 18.7756 35.0537C18.7548 35.0537 18.7662 35.0811 18.7512 35.0354L18.6389 34.6936C18.1252 33.1326 16.8992 31.9065 15.3381 31.3928L14.9963 31.2805C14.9507 31.2655 14.9792 31.2769 14.9792 31.2561C14.9792 31.2353 14.9507 31.2479 14.9963 31.2329L15.3381 31.1194C16.8992 30.6057 18.1252 29.3808 18.6389 27.8198L18.7512 27.478C18.7587 27.4555 18.7594 27.451 18.761 27.4524ZM11.25 38.75C10.905 38.75 10.625 39.03 10.625 39.375C10.625 39.72 10.905 40 11.25 40C11.595 40 11.875 39.72 11.875 39.375C11.875 39.03 11.595 38.75 11.25 38.75ZM13.75 38.75C13.405 38.75 13.125 39.03 13.125 39.375C13.125 39.72 13.405 40 13.75 40C14.095 40 14.375 39.72 14.375 39.375C14.375 39.03 14.095 38.75 13.75 38.75ZM16.25 38.75C15.905 38.75 15.625 39.03 15.625 39.375C15.625 39.72 15.905 40 16.25 40C16.595 40 16.875 39.72 16.875 39.375C16.875 39.03 16.595 38.75 16.25 38.75ZM18.75 38.75C18.405 38.75 18.125 39.03 18.125 39.375C18.125 39.72 18.405 40 18.75 40C19.095 40 19.375 39.72 19.375 39.375C19.375 39.03 19.095 38.75 18.75 38.75ZM21.25 38.75C20.905 38.75 20.625 39.03 20.625 39.375C20.625 39.72 20.905 40 21.25 40C21.595 40 21.875 39.72 21.875 39.375C21.875 39.03 21.595 38.75 21.25 38.75ZM23.75 38.75C23.405 38.75 23.125 39.03 23.125 39.375C23.125 39.72 23.405 40 23.75 40C24.095 40 24.375 39.72 24.375 39.375C24.375 39.03 24.095 38.75 23.75 38.75ZM26.25 38.75C25.905 38.75 25.625 39.03 25.625 39.375C25.625 39.72 25.905 40 26.25 40C26.595 40 26.875 39.72 26.875 39.375C26.875 39.03 26.595 38.75 26.25 38.75ZM28.75 38.75C28.405 38.75 28.125 39.03 28.125 39.375C28.125 39.72 28.405 40 28.75 40C29.095 40 29.375 39.72 29.375 39.375C29.375 39.03 29.095 38.75 28.75 38.75ZM31.25 38.75C30.905 38.75 30.625 39.03 30.625 39.375C30.625 39.72 30.905 40 31.25 40C31.595 40 31.875 39.72 31.875 39.375C31.875 39.03 31.595 38.75 31.25 38.75ZM33.75 38.75C33.405 38.75 33.125 39.03 33.125 39.375C33.125 39.72 33.405 40 33.75 40C34.095 40 34.375 39.72 34.375 39.375C34.375 39.03 34.095 38.75 33.75 38.75ZM36.25 38.75C35.905 38.75 35.625 39.03 35.625 39.375C35.625 39.72 35.905 40 36.25 40C36.595 40 36.875 39.72 36.875 39.375C36.875 39.03 36.595 38.75 36.25 38.75ZM38.75 38.75C38.405 38.75 38.125 39.03 38.125 39.375C38.125 39.72 38.405 40 38.75 40C39.095 40 39.375 39.72 39.375 39.375C39.375 39.03 39.095 38.75 38.75 38.75Z" fill="#D3D3D3"/>
</svg>
