<svg width="50" height="50" viewBox="0 0 50 50" fill="none" xmlns="http://www.w3.org/2000/svg">
<path d="M15.8303 5C15.6621 5 15.5007 5.06683 15.3818 5.18579C15.2628 5.30475 15.196 5.4661 15.196 5.63433C15.196 5.80257 15.2628 5.96391 15.3818 6.08287C15.5007 6.20183 15.6621 6.26866 15.8303 6.26866C15.9985 6.26866 16.1599 6.20183 16.2788 6.08287C16.3978 5.96391 16.4646 5.80257 16.4646 5.63433C16.4646 5.4661 16.3978 5.30475 16.2788 5.18579C16.1599 5.06683 15.9985 5 15.8303 5ZM18.3676 5C18.1994 5 18.038 5.06683 17.9191 5.18579C17.8001 5.30475 17.7333 5.4661 17.7333 5.63433C17.7333 5.80257 17.8001 5.96391 17.9191 6.08287C18.038 6.20183 18.1994 6.26866 18.3676 6.26866C18.5359 6.26866 18.6972 6.20183 18.8162 6.08287C18.9351 5.96391 19.002 5.80257 19.002 5.63433C19.002 5.4661 18.9351 5.30475 18.8162 5.18579C18.6972 5.06683 18.5359 5 18.3676 5ZM20.9049 5C20.7367 5 20.5754 5.06683 20.4564 5.18579C20.3374 5.30475 20.2706 5.4661 20.2706 5.63433C20.2706 5.80257 20.3374 5.96391 20.4564 6.08287C20.5754 6.20183 20.7367 6.26866 20.9049 6.26866C21.0732 6.26866 21.2345 6.20183 21.3535 6.08287C21.4725 5.96391 21.5393 5.80257 21.5393 5.63433C21.5393 5.4661 21.4725 5.30475 21.3535 5.18579C21.2345 5.06683 21.0732 5 20.9049 5ZM23.4423 5C23.274 5 23.1127 5.06683 22.9937 5.18579C22.8748 5.30475 22.8079 5.4661 22.8079 5.63433C22.8079 5.80257 22.8748 5.96391 22.9937 6.08287C23.1127 6.20183 23.274 6.26866 23.4423 6.26866C23.6105 6.26866 23.7719 6.20183 23.8908 6.08287C24.0098 5.96391 24.0766 5.80257 24.0766 5.63433C24.0766 5.4661 24.0098 5.30475 23.8908 5.18579C23.7719 5.06683 23.6105 5 23.4423 5ZM25.9796 5C25.8114 5 25.65 5.06683 25.5311 5.18579C25.4121 5.30475 25.3453 5.4661 25.3453 5.63433C25.3453 5.80257 25.4121 5.96391 25.5311 6.08287C25.65 6.20183 25.8114 6.26866 25.9796 6.26866C26.1478 6.26866 26.3092 6.20183 26.4281 6.08287C26.5471 5.96391 26.6139 5.80257 26.6139 5.63433C26.6139 5.4661 26.5471 5.30475 26.4281 5.18579C26.3092 5.06683 26.1478 5 25.9796 5ZM28.5169 5C28.3487 5 28.1874 5.06683 28.0684 5.18579C27.9494 5.30475 27.8826 5.4661 27.8826 5.63433C27.8826 5.80257 27.9494 5.96391 28.0684 6.08287C28.1874 6.20183 28.3487 6.26866 28.5169 6.26866C28.6852 6.26866 28.8465 6.20183 28.9655 6.08287C29.0844 5.96391 29.1513 5.80257 29.1513 5.63433C29.1513 5.4661 29.0844 5.30475 28.9655 5.18579C28.8465 5.06683 28.6852 5 28.5169 5ZM31.0543 5C30.886 5 30.7247 5.06683 30.6057 5.18579C30.4868 5.30475 30.4199 5.4661 30.4199 5.63433C30.4199 5.80257 30.4868 5.96391 30.6057 6.08287C30.7247 6.20183 30.886 6.26866 31.0543 6.26866C31.2225 6.26866 31.3838 6.20183 31.5028 6.08287C31.6218 5.96391 31.6886 5.80257 31.6886 5.63433C31.6886 5.4661 31.6218 5.30475 31.5028 5.18579C31.3838 5.06683 31.2225 5 31.0543 5ZM33.5916 5C33.4234 5 33.262 5.06683 33.1431 5.18579C33.0241 5.30475 32.9573 5.4661 32.9573 5.63433C32.9573 5.80257 33.0241 5.96391 33.1431 6.08287C33.262 6.20183 33.4234 6.26866 33.5916 6.26866C33.7598 6.26866 33.9212 6.20183 34.0401 6.08287C34.1591 5.96391 34.2259 5.80257 34.2259 5.63433C34.2259 5.4661 34.1591 5.30475 34.0401 5.18579C33.9212 5.06683 33.7598 5 33.5916 5ZM36.1289 5C35.9607 5 35.7993 5.06683 35.6804 5.18579C35.5614 5.30475 35.4946 5.4661 35.4946 5.63433C35.4946 5.80257 35.5614 5.96391 35.6804 6.08287C35.7993 6.20183 35.9607 6.26866 36.1289 6.26866C36.2972 6.26866 36.4585 6.20183 36.5775 6.08287C36.6964 5.96391 36.7633 5.80257 36.7633 5.63433C36.7633 5.4661 36.6964 5.30475 36.5775 5.18579C36.4585 5.06683 36.2972 5 36.1289 5ZM38.6663 5C38.498 5 38.3367 5.06683 38.2177 5.18579C38.0988 5.30475 38.0319 5.4661 38.0319 5.63433C38.0319 5.80257 38.0988 5.96391 38.2177 6.08287C38.3367 6.20183 38.498 6.26866 38.6663 6.26866C38.8345 6.26866 38.9958 6.20183 39.1148 6.08287C39.2338 5.96391 39.3006 5.80257 39.3006 5.63433C39.3006 5.4661 39.2338 5.30475 39.1148 5.18579C38.9958 5.06683 38.8345 5 38.6663 5ZM41.2036 5C41.0353 5 40.874 5.06683 40.755 5.18579C40.6361 5.30475 40.5692 5.4661 40.5692 5.63433C40.5692 5.80257 40.6361 5.96391 40.755 6.08287C40.874 6.20183 41.0353 6.26866 41.2036 6.26866C41.3718 6.26866 41.5332 6.20183 41.6521 6.08287C41.7711 5.96391 41.8379 5.80257 41.8379 5.63433C41.8379 5.4661 41.7711 5.30475 41.6521 5.18579C41.5332 5.06683 41.3718 5 41.2036 5ZM43.7409 5C43.5727 5 43.4113 5.06683 43.2924 5.18579C43.1734 5.30475 43.1066 5.4661 43.1066 5.63433C43.1066 5.80257 43.1734 5.96391 43.2924 6.08287C43.4113 6.20183 43.5727 6.26866 43.7409 6.26866C43.9091 6.26866 44.0705 6.20183 44.1895 6.08287C44.3084 5.96391 44.3752 5.80257 44.3752 5.63433C44.3752 5.4661 44.3084 5.30475 44.1895 5.18579C44.0705 5.06683 43.9091 5 43.7409 5ZM43.7409 7.53733C43.5727 7.53733 43.4113 7.60416 43.2924 7.72312C43.1734 7.84208 43.1066 8.00343 43.1066 8.17166C43.1066 8.3399 43.1734 8.50124 43.2924 8.6202C43.4113 8.73916 43.5727 8.80599 43.7409 8.80599C43.9091 8.80599 44.0705 8.73916 44.1895 8.6202C44.3084 8.50124 44.3752 8.3399 44.3752 8.17166C44.3752 8.00343 44.3084 7.84208 44.1895 7.72312C44.0705 7.60416 43.9091 7.53733 43.7409 7.53733ZM25.0281 10.0747C23.1089 10.0747 21.5393 11.6443 21.5393 13.5635C21.5393 15.4827 23.1089 17.0523 25.0281 17.0523C26.9473 17.0523 28.5169 15.4827 28.5169 13.5635C28.5169 11.6443 26.9473 10.0747 25.0281 10.0747ZM43.7409 10.0747C43.5727 10.0747 43.4113 10.1415 43.2924 10.2604C43.1734 10.3794 43.1066 10.5408 43.1066 10.709C43.1066 10.8772 43.1734 11.0386 43.2924 11.1575C43.4113 11.2765 43.5727 11.3433 43.7409 11.3433C43.9091 11.3433 44.0705 11.2765 44.1895 11.1575C44.3084 11.0386 44.3752 10.8772 44.3752 10.709C44.3752 10.5408 44.3084 10.3794 44.1895 10.2604C44.0705 10.1415 43.9091 10.0747 43.7409 10.0747ZM25.0281 11.3433C26.2615 11.3433 27.2483 12.3301 27.2483 13.5635C27.2483 14.7969 26.2615 15.7836 25.0281 15.7836C23.7947 15.7836 22.8079 14.7969 22.8079 13.5635C22.8079 12.3301 23.7947 11.3433 25.0281 11.3433ZM43.7409 12.612C43.5727 12.612 43.4113 12.6788 43.2924 12.7978C43.1734 12.9167 43.1066 13.0781 43.1066 13.2463C43.1066 13.4146 43.1734 13.5759 43.2924 13.6949C43.4113 13.8138 43.5727 13.8807 43.7409 13.8807C43.9091 13.8807 44.0705 13.8138 44.1895 13.6949C44.3084 13.5759 44.3752 13.4146 44.3752 13.2463C44.3752 13.0781 44.3084 12.9167 44.1895 12.7978C44.0705 12.6788 43.9091 12.612 43.7409 12.612ZM37.3914 13.8745C37.2652 13.8745 37.1419 13.9122 37.0372 13.9826C36.9325 14.0531 36.8513 14.1532 36.8038 14.2701C36.7563 14.387 36.7448 14.5155 36.7707 14.639C36.7965 14.7625 36.8587 14.8755 36.9491 14.9635L38.4036 16.418H32.3229C32.2389 16.4168 32.1554 16.4323 32.0774 16.4637C31.9994 16.495 31.9284 16.5415 31.8686 16.6006C31.8087 16.6596 31.7612 16.7299 31.7287 16.8075C31.6963 16.885 31.6796 16.9682 31.6796 17.0523C31.6796 17.1364 31.6963 17.2196 31.7287 17.2972C31.7612 17.3747 31.8087 17.445 31.8686 17.5041C31.9284 17.5631 31.9994 17.6096 32.0774 17.641C32.1554 17.6723 32.2389 17.6878 32.3229 17.6866H38.4036L36.9491 19.1411C36.8882 19.1996 36.8396 19.2696 36.8061 19.3471C36.7726 19.4246 36.755 19.5079 36.7541 19.5923C36.7532 19.6767 36.7692 19.7604 36.8011 19.8386C36.833 19.9167 36.8802 19.9877 36.9399 20.0474C36.9996 20.107 37.0705 20.1542 37.1487 20.1861C37.2268 20.218 37.3105 20.234 37.3949 20.2331C37.4793 20.2323 37.5627 20.2146 37.6401 20.1811C37.7176 20.1476 37.7876 20.099 37.8461 20.0381L40.3834 17.5008C40.5023 17.3818 40.5691 17.2205 40.5691 17.0523C40.5691 16.8841 40.5023 16.7228 40.3834 16.6038L37.8461 14.0665C37.787 14.0057 37.7163 13.9574 37.6382 13.9244C37.5601 13.8915 37.4762 13.8745 37.3914 13.8745V13.8745ZM43.7409 15.1493C43.5727 15.1493 43.4113 15.2161 43.2924 15.3351C43.1734 15.4541 43.1066 15.6154 43.1066 15.7836C43.1066 15.9519 43.1734 16.1132 43.2924 16.2322C43.4113 16.3511 43.5727 16.418 43.7409 16.418C43.9091 16.418 44.0705 16.3511 44.1895 16.2322C44.3084 16.1132 44.3752 15.9519 44.3752 15.7836C44.3752 15.6154 44.3084 15.4541 44.1895 15.3351C44.0705 15.2161 43.9091 15.1493 43.7409 15.1493ZM13.293 17.6866C12.435 17.6866 11.7291 18.1644 11.2723 18.8178L11.2636 18.8227C11.1675 18.8828 11.0892 18.9675 11.0369 19.0681L7.83052 25.2379C7.78188 25.3312 7.75719 25.4351 7.75866 25.5402C7.75866 25.5415 7.75866 25.5427 7.75866 25.5439C7.67795 25.7687 7.58397 25.9896 7.58397 26.2501C7.58397 27.4688 8.58546 28.4703 9.80414 28.4703C10.5415 28.4703 11.1426 28.0594 11.5448 27.5039C11.6481 27.4438 11.7322 27.3558 11.7877 27.2499L14.4638 22.127H16.2453L13.0947 27.5002C13.0361 27.6013 13.0065 27.7166 13.0092 27.8335C12.8528 28.1739 12.7116 28.5288 12.6747 28.9225L12.6636 28.9151L10.151 32.9106H4.5201C3.1733 32.9106 1.95155 33.9218 1.8787 35.3129C1.80324 36.7634 2.97371 37.9853 4.41231 37.9853L11.416 37.9803C12.3044 37.9796 13.1536 37.6065 13.7538 36.9508L15.8055 34.7083L21.9184 43.7575C21.976 43.8424 22.0534 43.9122 22.1439 43.9606C22.6067 44.542 23.2752 44.9629 24.0766 44.9629C25.4705 44.9629 26.6139 43.8194 26.6139 42.4256C26.6139 41.8896 26.444 41.389 26.1605 40.981L26.1939 41.0355L19.9968 29.8182L23.5302 24.4636L25.5955 26.6453C26.314 27.4049 27.3151 27.836 28.3608 27.836H31.0543H32.9573C33.0181 27.8359 33.0786 27.8272 33.1369 27.8099C34.3206 27.4609 35.0628 26.3175 34.8491 25.1809C34.684 24.3068 33.986 23.6358 33.1121 23.4155C33.0615 23.4025 33.0095 23.3958 32.9573 23.3956H31.0543H28.5207L25.4754 20.0022C25.475 20.0022 25.4745 20.0022 25.4741 20.0022C24.1508 18.5289 22.2637 17.6866 20.283 17.6866H13.293ZM43.7409 17.6866C43.5727 17.6866 43.4113 17.7535 43.2924 17.8724C43.1734 17.9914 43.1066 18.1527 43.1066 18.321C43.1066 18.4892 43.1734 18.6506 43.2924 18.7695C43.4113 18.8885 43.5727 18.9553 43.7409 18.9553C43.9091 18.9553 44.0705 18.8885 44.1895 18.7695C44.3084 18.6506 44.3752 18.4892 44.3752 18.321C44.3752 18.1527 44.3084 17.9914 44.1895 17.8724C44.0705 17.7535 43.9091 17.6866 43.7409 17.6866ZM13.293 18.9553H20.283C21.9041 18.9553 23.448 19.6436 24.5313 20.8496L27.7661 24.4537C27.8256 24.52 27.8984 24.573 27.9797 24.6092C28.0611 24.6455 28.1491 24.6643 28.2382 24.6643H31.0543H32.8383C33.2495 24.7839 33.5416 25.0925 33.6027 25.4163C33.6824 25.84 33.38 26.3759 32.8135 26.5673H31.0543H28.3608C27.6635 26.5673 26.9965 26.2797 26.5173 25.7731L23.9032 23.0103C23.8375 22.941 23.7569 22.8874 23.6676 22.8535C23.5783 22.8196 23.4824 22.8063 23.3873 22.8147C23.2921 22.823 23.2 22.8527 23.118 22.9016C23.0359 22.9505 22.9659 23.0173 22.9133 23.0971L18.7257 29.4404C18.662 29.5371 18.626 29.6495 18.6216 29.7652C18.6173 29.881 18.6447 29.9957 18.7009 30.097L25.0839 41.65C25.0945 41.6688 25.1061 41.687 25.1186 41.7045C25.2626 41.9118 25.3453 42.156 25.3453 42.4256C25.3453 43.1339 24.7849 43.6943 24.0766 43.6943C23.6115 43.6943 23.2178 43.446 22.9938 43.0723C22.9112 42.9347 22.7795 42.8335 22.6252 42.7891C22.4709 42.7447 22.3056 42.7605 22.1625 42.8332L22.6444 42.5656L14.5034 30.5158L14.517 30.6582C14.5055 30.5303 14.4554 30.4089 14.3733 30.3101C14.0944 29.9738 13.9273 29.5634 13.9273 29.1046C13.9273 28.7624 14.0243 28.447 14.1924 28.1568C14.2558 28.0469 14.2847 27.9204 14.2754 27.7938L14.2891 27.9722L17.8993 21.8135C17.9558 21.7172 17.9858 21.6077 17.9864 21.4961C17.987 21.3844 17.9581 21.2746 17.9027 21.1777C17.8473 21.0808 17.7672 21.0003 17.6707 20.9442C17.5742 20.8881 17.4646 20.8585 17.3529 20.8583H14.0797C13.9637 20.8583 13.85 20.89 13.7509 20.9501C13.6517 21.0102 13.5709 21.0962 13.5172 21.199L10.9514 26.1101L11.5027 26.3852C11.4281 26.348 11.3469 26.3258 11.2638 26.32C11.1806 26.3142 11.0971 26.3248 11.0181 26.3513C10.939 26.3777 10.866 26.4195 10.8031 26.4742C10.7402 26.5289 10.6887 26.5955 10.6516 26.6701C10.4937 26.9867 10.1807 27.2016 9.80414 27.2016C9.27078 27.2016 8.85264 26.7835 8.85264 26.2501C8.85264 26.1024 8.88994 25.962 8.96166 25.8215C8.97131 25.8025 8.97999 25.7831 8.98768 25.7632L12.0825 19.8065L11.9462 19.8919C12.0424 19.8319 12.1207 19.7472 12.173 19.6466C12.386 19.2355 12.7999 18.9553 13.293 18.9553ZM43.7409 20.224C43.5727 20.224 43.4113 20.2908 43.2924 20.4098C43.1734 20.5287 43.1066 20.6901 43.1066 20.8583C43.1066 21.0265 43.1734 21.1879 43.2924 21.3068C43.4113 21.4258 43.5727 21.4926 43.7409 21.4926C43.9091 21.4926 44.0705 21.4258 44.1895 21.3068C44.3084 21.1879 44.3752 21.0265 44.3752 20.8583C44.3752 20.6901 44.3084 20.5287 44.1895 20.4098C44.0705 20.2908 43.9091 20.224 43.7409 20.224V20.224ZM43.7409 22.7613C43.5727 22.7613 43.4113 22.8281 43.2924 22.9471C43.1734 23.0661 43.1066 23.2274 43.1066 23.3956C43.1066 23.5639 43.1734 23.7252 43.2924 23.8442C43.4113 23.9631 43.5727 24.03 43.7409 24.03C43.9091 24.03 44.0705 23.9631 44.1895 23.8442C44.3084 23.7252 44.3752 23.5639 44.3752 23.3956C44.3752 23.2274 44.3084 23.0661 44.1895 22.9471C44.0705 22.8281 43.9091 22.7613 43.7409 22.7613ZM43.7409 25.2986C43.5727 25.2986 43.4113 25.3655 43.2924 25.4844C43.1734 25.6034 43.1066 25.7647 43.1066 25.933C43.1066 26.1012 43.1734 26.2625 43.2924 26.3815C43.4113 26.5005 43.5727 26.5673 43.7409 26.5673C43.9091 26.5673 44.0705 26.5005 44.1895 26.3815C44.3084 26.2625 44.3752 26.1012 44.3752 25.933C44.3752 25.7647 44.3084 25.6034 44.1895 25.4844C44.0705 25.3655 43.9091 25.2986 43.7409 25.2986ZM43.7409 27.836C43.5727 27.836 43.4113 27.9028 43.2924 28.0218C43.1734 28.1407 43.1066 28.3021 43.1066 28.4703C43.1066 28.6385 43.1734 28.7999 43.2924 28.9188C43.4113 29.0378 43.5727 29.1046 43.7409 29.1046C43.9091 29.1046 44.0705 29.0378 44.1895 28.9188C44.3084 28.7999 44.3752 28.6385 44.3752 28.4703C44.3752 28.3021 44.3084 28.1407 44.1895 28.0218C44.0705 27.9028 43.9091 27.836 43.7409 27.836ZM43.7409 30.3733C43.5727 30.3733 43.4113 30.4401 43.2924 30.5591C43.1734 30.678 43.1066 30.8394 43.1066 31.0076C43.1066 31.1759 43.1734 31.3372 43.2924 31.4562C43.4113 31.5751 43.5727 31.642 43.7409 31.642C43.9091 31.642 44.0705 31.5751 44.1895 31.4562C44.3084 31.3372 44.3752 31.1759 44.3752 31.0076C44.3752 30.8394 44.3084 30.678 44.1895 30.5591C44.0705 30.4401 43.9091 30.3733 43.7409 30.3733ZM13.0923 30.6186C13.1518 30.7208 13.211 30.823 13.2793 30.9184C13.2978 30.9796 13.3253 31.0377 13.3611 31.0906L15.0745 33.628L12.8185 36.0947C12.4583 36.4881 11.9497 36.7112 11.416 36.7117L4.41231 36.7166C3.68149 36.7166 3.10617 36.1228 3.14489 35.3786C3.17987 34.7106 3.80659 34.1793 4.5201 34.1793H10.5017C10.609 34.1795 10.7147 34.1524 10.8087 34.1006C10.9027 34.0488 10.9821 33.974 11.0393 33.8832L13.0923 30.6186ZM43.7409 32.9106C43.5727 32.9106 43.4113 32.9774 43.2924 33.0964C43.1734 33.2154 43.1066 33.3767 43.1066 33.545C43.1066 33.7132 43.1734 33.8745 43.2924 33.9935C43.4113 34.1125 43.5727 34.1793 43.7409 34.1793C43.9091 34.1793 44.0705 34.1125 44.1895 33.9935C44.3084 33.8745 44.3752 33.7132 44.3752 33.545C44.3752 33.3767 44.3084 33.2154 44.1895 33.0964C44.0705 32.9774 43.9091 32.9106 43.7409 32.9106ZM43.7409 35.4479C43.5727 35.4479 43.4113 35.5148 43.2924 35.6337C43.1734 35.7527 43.1066 35.914 43.1066 36.0823C43.1066 36.2505 43.1734 36.4119 43.2924 36.5308C43.4113 36.6498 43.5727 36.7166 43.7409 36.7166C43.9091 36.7166 44.0705 36.6498 44.1895 36.5308C44.3084 36.4119 44.3752 36.2505 44.3752 36.0823C44.3752 35.914 44.3084 35.7527 44.1895 35.6337C44.0705 35.5148 43.9091 35.4479 43.7409 35.4479ZM43.7409 37.9853C43.5727 37.9853 43.4113 38.0521 43.2924 38.1711C43.1734 38.29 43.1066 38.4514 43.1066 38.6196C43.1066 38.7878 43.1734 38.9492 43.2924 39.0681C43.4113 39.1871 43.5727 39.2539 43.7409 39.2539C43.9091 39.2539 44.0705 39.1871 44.1895 39.0681C44.3084 38.9492 44.3752 38.7878 44.3752 38.6196C44.3752 38.4514 44.3084 38.29 44.1895 38.1711C44.0705 38.0521 43.9091 37.9853 43.7409 37.9853ZM43.7409 40.5226C43.5727 40.5226 43.4113 40.5894 43.2924 40.7084C43.1734 40.8274 43.1066 40.9887 43.1066 41.1569C43.1066 41.3252 43.1734 41.4865 43.2924 41.6055C43.4113 41.7244 43.5727 41.7913 43.7409 41.7913C43.9091 41.7913 44.0705 41.7244 44.1895 41.6055C44.3084 41.4865 44.3752 41.3252 44.3752 41.1569C44.3752 40.9887 44.3084 40.8274 44.1895 40.7084C44.0705 40.5894 43.9091 40.5226 43.7409 40.5226ZM28.5169 43.0599C28.3487 43.0599 28.1874 43.1268 28.0684 43.2457C27.9494 43.3647 27.8826 43.526 27.8826 43.6943C27.8826 43.8625 27.9494 44.0238 28.0684 44.1428C28.1874 44.2618 28.3487 44.3286 28.5169 44.3286C28.6852 44.3286 28.8465 44.2618 28.9655 44.1428C29.0844 44.0238 29.1513 43.8625 29.1513 43.6943C29.1513 43.526 29.0844 43.3647 28.9655 43.2457C28.8465 43.1268 28.6852 43.0599 28.5169 43.0599ZM31.0543 43.0599C30.886 43.0599 30.7247 43.1268 30.6057 43.2457C30.4868 43.3647 30.4199 43.526 30.4199 43.6943C30.4199 43.8625 30.4868 44.0238 30.6057 44.1428C30.7247 44.2618 30.886 44.3286 31.0543 44.3286C31.2225 44.3286 31.3838 44.2618 31.5028 44.1428C31.6218 44.0238 31.6886 43.8625 31.6886 43.6943C31.6886 43.526 31.6218 43.3647 31.5028 43.2457C31.3838 43.1268 31.2225 43.0599 31.0543 43.0599ZM33.5916 43.0599C33.4234 43.0599 33.262 43.1268 33.1431 43.2457C33.0241 43.3647 32.9573 43.526 32.9573 43.6943C32.9573 43.8625 33.0241 44.0238 33.1431 44.1428C33.262 44.2618 33.4234 44.3286 33.5916 44.3286C33.7598 44.3286 33.9212 44.2618 34.0401 44.1428C34.1591 44.0238 34.2259 43.8625 34.2259 43.6943C34.2259 43.526 34.1591 43.3647 34.0401 43.2457C33.9212 43.1268 33.7598 43.0599 33.5916 43.0599ZM36.1289 43.0599C35.9607 43.0599 35.7993 43.1268 35.6804 43.2457C35.5614 43.3647 35.4946 43.526 35.4946 43.6943C35.4946 43.8625 35.5614 44.0238 35.6804 44.1428C35.7993 44.2618 35.9607 44.3286 36.1289 44.3286C36.2972 44.3286 36.4585 44.2618 36.5775 44.1428C36.6964 44.0238 36.7633 43.8625 36.7633 43.6943C36.7633 43.526 36.6964 43.3647 36.5775 43.2457C36.4585 43.1268 36.2972 43.0599 36.1289 43.0599ZM38.6663 43.0599C38.498 43.0599 38.3367 43.1268 38.2177 43.2457C38.0988 43.3647 38.0319 43.526 38.0319 43.6943C38.0319 43.8625 38.0988 44.0238 38.2177 44.1428C38.3367 44.2618 38.498 44.3286 38.6663 44.3286C38.8345 44.3286 38.9958 44.2618 39.1148 44.1428C39.2338 44.0238 39.3006 43.8625 39.3006 43.6943C39.3006 43.526 39.2338 43.3647 39.1148 43.2457C38.9958 43.1268 38.8345 43.0599 38.6663 43.0599ZM41.2036 43.0599C41.0353 43.0599 40.874 43.1268 40.755 43.2457C40.6361 43.3647 40.5692 43.526 40.5692 43.6943C40.5692 43.8625 40.6361 44.0238 40.755 44.1428C40.874 44.2618 41.0353 44.3286 41.2036 44.3286C41.3718 44.3286 41.5332 44.2618 41.6521 44.1428C41.7711 44.0238 41.8379 43.8625 41.8379 43.6943C41.8379 43.526 41.7711 43.3647 41.6521 43.2457C41.5332 43.1268 41.3718 43.0599 41.2036 43.0599ZM43.7409 43.0599C43.5727 43.0599 43.4113 43.1268 43.2924 43.2457C43.1734 43.3647 43.1066 43.526 43.1066 43.6943C43.1066 43.8625 43.1734 44.0238 43.2924 44.1428C43.4113 44.2618 43.5727 44.3286 43.7409 44.3286C43.9091 44.3286 44.0705 44.2618 44.1895 44.1428C44.3084 44.0238 44.3752 43.8625 44.3752 43.6943C44.3752 43.526 44.3084 43.3647 44.1895 43.2457C44.0705 43.1268 43.9091 43.0599 43.7409 43.0599Z" fill="#E79696"/>
</svg>
