<svg width="50" height="50" viewBox="0 0 50 50" fill="none" xmlns="http://www.w3.org/2000/svg">
<path d="M5.63 6.25V45H44.38V6.25H5.63ZM7.44641 7.63393H9.86829C10.2112 7.63393 10.4738 7.93396 10.4738 8.32589V9.70982C10.4738 10.1018 10.2112 10.4018 9.86829 10.4018H7.44641C7.10347 10.4018 6.84094 10.1018 6.84094 9.70982V8.32589C6.84094 7.93396 7.10347 7.63393 7.44641 7.63393ZM11.6847 7.63393H13.5011C13.5011 8.01505 13.7731 8.32589 14.1066 8.32589C14.44 8.32589 14.712 8.01505 14.712 7.63393H38.3253V26.317C37.9918 26.317 37.7198 26.6278 37.7198 27.0089C37.7198 27.39 37.9918 27.7009 38.3253 27.7009V43.6161H14.712C14.712 43.2349 14.44 42.9241 14.1066 42.9241C13.7731 42.9241 13.5011 43.2349 13.5011 43.6161H11.6847V27.7009C12.0182 27.7009 12.2902 27.39 12.2902 27.0089C12.2902 26.6278 12.0182 26.317 11.6847 26.317V7.63393ZM40.1417 7.63393H42.5636C42.9065 7.63393 43.1691 7.93396 43.1691 8.32589V9.70982C43.1691 10.1018 42.9065 10.4018 42.5636 10.4018H40.1417C39.7988 10.4018 39.5363 10.1018 39.5363 9.70982V8.32589C39.5363 7.93396 39.7988 7.63393 40.1417 7.63393ZM14.1066 9.70982C13.7731 9.70982 13.5011 10.0207 13.5011 10.4018C13.5011 10.7829 13.7731 11.0937 14.1066 11.0937C14.44 11.0937 14.712 10.7829 14.712 10.4018C14.712 10.0207 14.44 9.70982 14.1066 9.70982ZM7.44641 11.7857H9.86829C10.2112 11.7857 10.4738 12.0857 10.4738 12.4777V13.8616C10.4738 14.2535 10.2112 14.5536 9.86829 14.5536H7.44641C7.10347 14.5536 6.84094 14.2535 6.84094 13.8616V12.4777C6.84094 12.0857 7.10347 11.7857 7.44641 11.7857ZM40.1417 11.7857H42.5636C42.9065 11.7857 43.1691 12.0857 43.1691 12.4777V13.8616C43.1691 14.2535 42.9065 14.5536 42.5636 14.5536H40.1417C39.7988 14.5536 39.5363 14.2535 39.5363 13.8616V12.4777C39.5363 12.0857 39.7988 11.7857 40.1417 11.7857ZM14.1066 12.4777C13.7731 12.4777 13.5011 12.7885 13.5011 13.1696C13.5011 13.5508 13.7731 13.8616 14.1066 13.8616C14.44 13.8616 14.712 13.5508 14.712 13.1696C14.712 12.7885 14.44 12.4777 14.1066 12.4777ZM14.1066 15.2455C13.7731 15.2455 13.5011 15.5564 13.5011 15.9375C13.5011 16.3186 13.7731 16.6295 14.1066 16.6295C14.44 16.6295 14.712 16.3186 14.712 15.9375C14.712 15.5564 14.44 15.2455 14.1066 15.2455ZM7.44641 15.9375H9.86829C10.2112 15.9375 10.4738 16.2375 10.4738 16.6295V18.0134C10.4738 18.4053 10.2112 18.7054 9.86829 18.7054H7.44641C7.10347 18.7054 6.84094 18.4053 6.84094 18.0134V16.6295C6.84094 16.2375 7.10347 15.9375 7.44641 15.9375ZM40.1417 15.9375H42.5636C42.9065 15.9375 43.1691 16.2375 43.1691 16.6295V18.0134C43.1691 18.4053 42.9065 18.7054 42.5636 18.7054H40.1417C39.7988 18.7054 39.5363 18.4053 39.5363 18.0134V16.6295C39.5363 16.2375 39.7988 15.9375 40.1417 15.9375ZM14.1066 18.0134C13.7731 18.0134 13.5011 18.3242 13.5011 18.7054C13.5011 19.0865 13.7731 19.3973 14.1066 19.3973C14.44 19.3973 14.712 19.0865 14.712 18.7054C14.712 18.3242 14.44 18.0134 14.1066 18.0134ZM7.44641 20.0893H9.86829C10.2112 20.0893 10.4738 20.3893 10.4738 20.7812V22.1652C10.4738 22.5571 10.2112 22.8571 9.86829 22.8571H7.44641C7.10347 22.8571 6.84094 22.5571 6.84094 22.1652V20.7812C6.84094 20.3893 7.10347 20.0893 7.44641 20.0893ZM40.1417 20.0893H42.5636C42.9065 20.0893 43.1691 20.3893 43.1691 20.7812V22.1652C43.1691 22.5571 42.9065 22.8571 42.5636 22.8571H40.1417C39.7988 22.8571 39.5363 22.5571 39.5363 22.1652V20.7812C39.5363 20.3893 39.7988 20.0893 40.1417 20.0893ZM14.1066 20.7812C13.7731 20.7812 13.5011 21.0921 13.5011 21.4732C13.5011 21.8543 13.7731 22.1652 14.1066 22.1652C14.44 22.1652 14.712 21.8543 14.712 21.4732C14.712 21.0921 14.44 20.7812 14.1066 20.7812ZM14.1066 23.5491C13.7731 23.5491 13.5011 23.86 13.5011 24.2411C13.5011 24.6222 13.7731 24.933 14.1066 24.933C14.44 24.933 14.712 24.6222 14.712 24.2411C14.712 23.86 14.44 23.5491 14.1066 23.5491ZM7.44641 24.2411H9.86829C10.2112 24.2411 10.4738 24.5411 10.4738 24.933V26.317C10.4738 26.7089 10.2112 27.0089 9.86829 27.0089H7.44641C7.10347 27.0089 6.84094 26.7089 6.84094 26.317V24.933C6.84094 24.5411 7.10347 24.2411 7.44641 24.2411ZM40.1417 24.2411H42.5636C42.9065 24.2411 43.1691 24.5411 43.1691 24.933V26.317C43.1691 26.7089 42.9065 27.0089 42.5636 27.0089H40.1417C39.7988 27.0089 39.5363 26.7089 39.5363 26.317V24.933C39.5363 24.5411 39.7988 24.2411 40.1417 24.2411ZM14.1066 26.317C13.7731 26.317 13.5011 26.6278 13.5011 27.0089C13.5011 27.39 13.7731 27.7009 14.1066 27.7009C14.44 27.7009 14.712 27.39 14.712 27.0089C14.712 26.6278 14.44 26.317 14.1066 26.317ZM16.5284 26.317C16.195 26.317 15.923 26.6278 15.923 27.0089C15.923 27.39 16.195 27.7009 16.5284 27.7009C16.8619 27.7009 17.1339 27.39 17.1339 27.0089C17.1339 26.6278 16.8619 26.317 16.5284 26.317ZM18.9503 26.317C18.6168 26.317 18.3448 26.6278 18.3448 27.0089C18.3448 27.39 18.6168 27.7009 18.9503 27.7009C19.2838 27.7009 19.5558 27.39 19.5558 27.0089C19.5558 26.6278 19.2838 26.317 18.9503 26.317ZM21.3722 26.317C21.0387 26.317 20.7667 26.6278 20.7667 27.0089C20.7667 27.39 21.0387 27.7009 21.3722 27.7009C21.7057 27.7009 21.9777 27.39 21.9777 27.0089C21.9777 26.6278 21.7057 26.317 21.3722 26.317ZM23.7941 26.317C23.4606 26.317 23.1886 26.6278 23.1886 27.0089C23.1886 27.39 23.4606 27.7009 23.7941 27.7009C24.1275 27.7009 24.3995 27.39 24.3995 27.0089C24.3995 26.6278 24.1275 26.317 23.7941 26.317ZM26.2159 26.317C25.8825 26.317 25.6105 26.6278 25.6105 27.0089C25.6105 27.39 25.8825 27.7009 26.2159 27.7009C26.5494 27.7009 26.8214 27.39 26.8214 27.0089C26.8214 26.6278 26.5494 26.317 26.2159 26.317ZM28.6378 26.317C28.3043 26.317 28.0323 26.6278 28.0323 27.0089C28.0323 27.39 28.3043 27.7009 28.6378 27.7009C28.9713 27.7009 29.2433 27.39 29.2433 27.0089C29.2433 26.6278 28.9713 26.317 28.6378 26.317ZM31.0597 26.317C30.7262 26.317 30.4542 26.6278 30.4542 27.0089C30.4542 27.39 30.7262 27.7009 31.0597 27.7009C31.3932 27.7009 31.6652 27.39 31.6652 27.0089C31.6652 26.6278 31.3932 26.317 31.0597 26.317ZM33.4816 26.317C33.1481 26.317 32.8761 26.6278 32.8761 27.0089C32.8761 27.39 33.1481 27.7009 33.4816 27.7009C33.815 27.7009 34.087 27.39 34.087 27.0089C34.087 26.6278 33.815 26.317 33.4816 26.317ZM35.9034 26.317C35.57 26.317 35.298 26.6278 35.298 27.0089C35.298 27.39 35.57 27.7009 35.9034 27.7009C36.2369 27.7009 36.5089 27.39 36.5089 27.0089C36.5089 26.6278 36.2369 26.317 35.9034 26.317ZM7.44641 28.3929H9.86829C10.2112 28.3929 10.4738 28.6929 10.4738 29.0848V30.4687C10.4738 30.8607 10.2112 31.1607 9.86829 31.1607H7.44641C7.10347 31.1607 6.84094 30.8607 6.84094 30.4687V29.0848C6.84094 28.6929 7.10347 28.3929 7.44641 28.3929ZM40.1417 28.3929H42.5636C42.9065 28.3929 43.1691 28.6929 43.1691 29.0848V30.4687C43.1691 30.8607 42.9065 31.1607 42.5636 31.1607H40.1417C39.7988 31.1607 39.5363 30.8607 39.5363 30.4687V29.0848C39.5363 28.6929 39.7988 28.3929 40.1417 28.3929ZM14.1066 29.0848C13.7731 29.0848 13.5011 29.3957 13.5011 29.7768C13.5011 30.1579 13.7731 30.4687 14.1066 30.4687C14.44 30.4687 14.712 30.1579 14.712 29.7768C14.712 29.3957 14.44 29.0848 14.1066 29.0848ZM14.1066 31.8527C13.7731 31.8527 13.5011 32.1635 13.5011 32.5446C13.5011 32.9258 13.7731 33.2366 14.1066 33.2366C14.44 33.2366 14.712 32.9258 14.712 32.5446C14.712 32.1635 14.44 31.8527 14.1066 31.8527ZM7.44641 32.5446H9.86829C10.2112 32.5446 10.4738 32.8447 10.4738 33.2366V34.6205C10.4738 35.0125 10.2112 35.3125 9.86829 35.3125H7.44641C7.10347 35.3125 6.84094 35.0125 6.84094 34.6205V33.2366C6.84094 32.8447 7.10347 32.5446 7.44641 32.5446ZM40.1417 32.5446H42.5636C42.9065 32.5446 43.1691 32.8447 43.1691 33.2366V34.6205C43.1691 35.0125 42.9065 35.3125 42.5636 35.3125H40.1417C39.7988 35.3125 39.5363 35.0125 39.5363 34.6205V33.2366C39.5363 32.8447 39.7988 32.5446 40.1417 32.5446ZM14.1066 34.6205C13.7731 34.6205 13.5011 34.9314 13.5011 35.3125C13.5011 35.6936 13.7731 36.0045 14.1066 36.0045C14.44 36.0045 14.712 35.6936 14.712 35.3125C14.712 34.9314 14.44 34.6205 14.1066 34.6205ZM7.44641 36.6964H9.86829C10.2112 36.6964 10.4738 36.9965 10.4738 37.3884V38.7723C10.4738 39.1643 10.2112 39.4643 9.86829 39.4643H7.44641C7.10347 39.4643 6.84094 39.1643 6.84094 38.7723V37.3884C6.84094 36.9965 7.10347 36.6964 7.44641 36.6964ZM40.1417 36.6964H42.5636C42.9065 36.6964 43.1691 36.9965 43.1691 37.3884V38.7723C43.1691 39.1643 42.9065 39.4643 42.5636 39.4643H40.1417C39.7988 39.4643 39.5363 39.1643 39.5363 38.7723V37.3884C39.5363 36.9965 39.7988 36.6964 40.1417 36.6964ZM14.1066 37.3884C13.7731 37.3884 13.5011 37.6992 13.5011 38.0804C13.5011 38.4615 13.7731 38.7723 14.1066 38.7723C14.44 38.7723 14.712 38.4615 14.712 38.0804C14.712 37.6992 14.44 37.3884 14.1066 37.3884ZM14.1066 40.1562C13.7731 40.1562 13.5011 40.4671 13.5011 40.8482C13.5011 41.2293 13.7731 41.5402 14.1066 41.5402C14.44 41.5402 14.712 41.2293 14.712 40.8482C14.712 40.4671 14.44 40.1562 14.1066 40.1562ZM7.44641 40.8482H9.86829C10.2112 40.8482 10.4738 41.1482 10.4738 41.5402V42.9241C10.4738 43.316 10.2112 43.6161 9.86829 43.6161H7.44641C7.10347 43.6161 6.84094 43.316 6.84094 42.9241V41.5402C6.84094 41.1482 7.10347 40.8482 7.44641 40.8482ZM40.1417 40.8482H42.5636C42.9065 40.8482 43.1691 41.1482 43.1691 41.5402V42.9241C43.1691 43.316 42.9065 43.6161 42.5636 43.6161H40.1417C39.7988 43.6161 39.5363 43.316 39.5363 42.9241V41.5402C39.5363 41.1482 39.7988 40.8482 40.1417 40.8482Z" fill="#D3D3D3"/>
</svg>
