<svg width="50" height="50" viewBox="0 0 50 50" fill="none" xmlns="http://www.w3.org/2000/svg">
<path d="M20.0879 7.5C19.0441 7.5 18.0671 8.02267 17.4878 8.8916L15.2209 12.2925L12.8394 12.6685C12.1787 11.962 11.2577 11.4941 10.2136 11.6333H10.2124L5.83862 12.2156C4.29004 12.4219 3.125 13.7522 3.125 15.3137V38.125C3.125 39.8434 4.53155 41.25 6.25 41.25H10H13.125H43.75C45.4684 41.25 46.875 39.8434 46.875 38.125V15.9033C46.875 14.3609 45.739 13.0415 44.2139 12.8125H44.2126L42.9993 12.6306L42.9419 13.1079C43.05 12.1252 42.3616 11.2176 41.3867 11.0547L38.6816 10.603H38.6804C37.6716 10.4353 36.7008 11.1235 36.5259 12.1313V12.1265L36.6089 11.6724L34.1174 11.2988L32.5122 8.8916C31.9335 8.02232 30.9564 7.5 29.9121 7.5H20.0879ZM20.0879 8.75H29.9121C30.5403 8.75 31.1247 9.06299 31.4722 9.58496L33.4155 12.5H33.7036L37.6233 13.0884L37.7563 12.3474L37.7576 12.345C37.8175 11.9995 38.1296 11.7782 38.4753 11.8359L41.1804 12.2876C41.5143 12.3434 41.7362 12.6352 41.6992 12.9712L41.6125 13.6865L44.0283 14.0491C44.9507 14.1876 45.625 14.9707 45.625 15.9033V38.125C45.625 39.1678 44.7928 40 43.75 40H13.125H10H6.25C5.2072 40 4.375 39.1678 4.375 38.125V15.3137C4.375 14.369 5.06578 13.5795 6.00342 13.4546L10.3784 12.8723C11.1161 12.7737 11.7811 13.114 12.168 13.6792L12.3914 14.0051L15.957 13.4424L18.5278 9.58496C18.876 9.06264 19.4604 8.75 20.0879 8.75ZM25 15.625C19.4847 15.625 15 20.1097 15 25.625C14.9995 25.6823 15.0069 25.7394 15.022 25.7947L15.0122 25.874L15.0146 25.9363L15.2905 26.4233L15.8459 26.4941L16.2354 26.0913L16.2634 25.8728L16.2598 25.8105L16.2354 25.7666C16.2456 25.7201 16.2505 25.6726 16.25 25.625C16.25 20.7853 20.1603 16.875 25 16.875C29.6287 16.875 33.3976 20.4542 33.7183 25H31.875L34.375 28.125L36.875 25H34.9683C34.6433 19.7762 30.3044 15.625 25 15.625ZM16.272 27.7869L15.7129 27.8284L15.4126 28.3008L15.4285 28.5205L15.4407 28.5681L15.4492 28.5986L15.459 28.6279L15.4639 28.6401L15.8716 29.0247L16.4233 28.927L16.676 28.4277L16.6467 28.2581L16.6516 28.2568L16.6394 28.2092L16.6357 28.2056L16.6333 28.1982L16.6309 28.1995L16.272 27.7869ZM17.1729 30.0586L16.6504 30.26L16.499 30.7996L16.5784 31.0046L16.6113 31.0583L17.0862 31.3562L17.6086 31.1536L17.7588 30.6152L17.6794 30.4089L17.6477 30.3564L17.1729 30.0586ZM18.6548 32.0056L18.2104 32.3474L18.219 32.9077L18.3533 33.0823L18.3997 33.1238L18.938 33.2751L19.3823 32.9333L19.3738 32.3743L19.2395 32.1997L19.1931 32.157L18.6548 32.0056ZM30.4895 32.5049L30.2893 32.5964L30.238 32.6331L29.9695 33.125L30.2039 33.6328L30.7507 33.7512L30.9509 33.6584L31.0022 33.623L31.2708 33.1311L31.0364 32.6221L30.4895 32.5049ZM21.1633 33.479L20.6042 33.4888L20.2759 33.9417L20.4431 34.4763L20.6213 34.6057L20.6775 34.6326L21.2378 34.624L21.5662 34.1699L21.3989 33.6353L21.2207 33.5071L21.1633 33.479ZM28.4045 33.7268L28.1873 33.7683L28.1299 33.7903L27.7527 34.2053L27.8601 34.7546L28.3643 34.9988L28.5803 34.9561L28.6389 34.9341L29.0149 34.519L28.9087 33.9697L28.4045 33.7268ZM23.4119 34.2236L22.8784 34.3958L22.6978 34.9255L23.0139 35.3882L23.2227 35.459L23.2849 35.4688L23.8171 35.2954L23.9978 34.7656L23.6816 34.3042L23.4729 34.2322L23.4119 34.2236ZM25.8533 34.3298L25.791 34.3372L25.3259 34.6484L25.2966 35.2075L25.7263 35.5652L25.946 35.5774L26.0083 35.5701L26.4746 35.2588L26.5039 34.6997L26.073 34.3408L25.8533 34.3298Z" fill="#D3D3D3"/>
</svg>
