<svg width="46" height="36" viewBox="0 0 46 36" fill="none" xmlns="http://www.w3.org/2000/svg">
<path d="M6.75 0C4.68648 0 3 0.934053 3 2.07692C3 3.21979 4.68648 4.15385 6.75 4.15385H39.25C41.3135 4.15385 43 3.21979 43 2.07692C43 0.934053 41.3135 0 39.25 0H6.75ZM6.75 0.692308H39.25C40.2111 0.692308 41.0309 0.990861 41.4497 1.42788C41.3286 1.46498 41.2332 1.52329 41.1784 1.59365C41.1236 1.66401 41.1125 1.74246 41.1468 1.8167C41.1812 1.89093 41.259 1.95676 41.3682 2.00385C41.4773 2.05094 41.6116 2.07664 41.75 2.07692C41.75 2.84551 40.6377 3.46154 39.25 3.46154H6.75C5.36227 3.46154 4.25 2.84551 4.25 2.07692C4.38847 2.07679 4.52294 2.0512 4.6323 2.00416C4.74166 1.95712 4.81972 1.89129 4.85422 1.81702C4.88873 1.74275 4.87772 1.66424 4.82293 1.5938C4.76814 1.52337 4.67267 1.46501 4.55151 1.42788C4.97045 0.991017 5.78907 0.692308 6.75 0.692308ZM6.75 1.38462C6.58424 1.38462 6.42527 1.42108 6.30806 1.486C6.19085 1.55092 6.125 1.63896 6.125 1.73077C6.125 1.82257 6.19085 1.91062 6.30806 1.97554C6.42527 2.04045 6.58424 2.07692 6.75 2.07692C6.91576 2.07692 7.07473 2.04045 7.19194 1.97554C7.30915 1.91062 7.375 1.82257 7.375 1.73077C7.375 1.63896 7.30915 1.55092 7.19194 1.486C7.07473 1.42108 6.91576 1.38462 6.75 1.38462ZM9.25 1.38462C9.08424 1.38462 8.92527 1.42108 8.80806 1.486C8.69085 1.55092 8.625 1.63896 8.625 1.73077C8.625 1.82257 8.69085 1.91062 8.80806 1.97554C8.92527 2.04045 9.08424 2.07692 9.25 2.07692C9.41576 2.07692 9.57473 2.04045 9.69194 1.97554C9.80915 1.91062 9.875 1.82257 9.875 1.73077C9.875 1.63896 9.80915 1.55092 9.69194 1.486C9.57473 1.42108 9.41576 1.38462 9.25 1.38462ZM11.75 1.38462C11.5842 1.38462 11.4253 1.42108 11.3081 1.486C11.1908 1.55092 11.125 1.63896 11.125 1.73077C11.125 1.82257 11.1908 1.91062 11.3081 1.97554C11.4253 2.04045 11.5842 2.07692 11.75 2.07692C11.9158 2.07692 12.0747 2.04045 12.1919 1.97554C12.3092 1.91062 12.375 1.82257 12.375 1.73077C12.375 1.63896 12.3092 1.55092 12.1919 1.486C12.0747 1.42108 11.9158 1.38462 11.75 1.38462ZM14.25 1.38462C14.0842 1.38462 13.9253 1.42108 13.8081 1.486C13.6908 1.55092 13.625 1.63896 13.625 1.73077C13.625 1.82257 13.6908 1.91062 13.8081 1.97554C13.9253 2.04045 14.0842 2.07692 14.25 2.07692C14.4158 2.07692 14.5747 2.04045 14.6919 1.97554C14.8092 1.91062 14.875 1.82257 14.875 1.73077C14.875 1.63896 14.8092 1.55092 14.6919 1.486C14.5747 1.42108 14.4158 1.38462 14.25 1.38462ZM16.75 1.38462C16.5842 1.38462 16.4253 1.42108 16.3081 1.486C16.1908 1.55092 16.125 1.63896 16.125 1.73077C16.125 1.82257 16.1908 1.91062 16.3081 1.97554C16.4253 2.04045 16.5842 2.07692 16.75 2.07692C16.9158 2.07692 17.0747 2.04045 17.1919 1.97554C17.3092 1.91062 17.375 1.82257 17.375 1.73077C17.375 1.63896 17.3092 1.55092 17.1919 1.486C17.0747 1.42108 16.9158 1.38462 16.75 1.38462ZM19.25 1.38462C19.0842 1.38462 18.9253 1.42108 18.8081 1.486C18.6908 1.55092 18.625 1.63896 18.625 1.73077C18.625 1.82257 18.6908 1.91062 18.8081 1.97554C18.9253 2.04045 19.0842 2.07692 19.25 2.07692C19.4158 2.07692 19.5747 2.04045 19.6919 1.97554C19.8092 1.91062 19.875 1.82257 19.875 1.73077C19.875 1.63896 19.8092 1.55092 19.6919 1.486C19.5747 1.42108 19.4158 1.38462 19.25 1.38462ZM21.75 1.38462C21.5842 1.38462 21.4253 1.42108 21.3081 1.486C21.1908 1.55092 21.125 1.63896 21.125 1.73077C21.125 1.82257 21.1908 1.91062 21.3081 1.97554C21.4253 2.04045 21.5842 2.07692 21.75 2.07692C21.9158 2.07692 22.0747 2.04045 22.1919 1.97554C22.3092 1.91062 22.375 1.82257 22.375 1.73077C22.375 1.63896 22.3092 1.55092 22.1919 1.486C22.0747 1.42108 21.9158 1.38462 21.75 1.38462ZM24.25 1.38462C24.0842 1.38462 23.9253 1.42108 23.8081 1.486C23.6908 1.55092 23.625 1.63896 23.625 1.73077C23.625 1.82257 23.6908 1.91062 23.8081 1.97554C23.9253 2.04045 24.0842 2.07692 24.25 2.07692C24.4158 2.07692 24.5747 2.04045 24.6919 1.97554C24.8092 1.91062 24.875 1.82257 24.875 1.73077C24.875 1.63896 24.8092 1.55092 24.6919 1.486C24.5747 1.42108 24.4158 1.38462 24.25 1.38462ZM26.75 1.38462C26.5842 1.38462 26.4253 1.42108 26.3081 1.486C26.1908 1.55092 26.125 1.63896 26.125 1.73077C26.125 1.82257 26.1908 1.91062 26.3081 1.97554C26.4253 2.04045 26.5842 2.07692 26.75 2.07692C26.9158 2.07692 27.0747 2.04045 27.1919 1.97554C27.3092 1.91062 27.375 1.82257 27.375 1.73077C27.375 1.63896 27.3092 1.55092 27.1919 1.486C27.0747 1.42108 26.9158 1.38462 26.75 1.38462ZM29.25 1.38462C29.0842 1.38462 28.9253 1.42108 28.8081 1.486C28.6908 1.55092 28.625 1.63896 28.625 1.73077C28.625 1.82257 28.6908 1.91062 28.8081 1.97554C28.9253 2.04045 29.0842 2.07692 29.25 2.07692C29.4158 2.07692 29.5747 2.04045 29.6919 1.97554C29.8092 1.91062 29.875 1.82257 29.875 1.73077C29.875 1.63896 29.8092 1.55092 29.6919 1.486C29.5747 1.42108 29.4158 1.38462 29.25 1.38462ZM31.75 1.38462C31.5842 1.38462 31.4253 1.42108 31.3081 1.486C31.1908 1.55092 31.125 1.63896 31.125 1.73077C31.125 1.82257 31.1908 1.91062 31.3081 1.97554C31.4253 2.04045 31.5842 2.07692 31.75 2.07692C31.9158 2.07692 32.0747 2.04045 32.1919 1.97554C32.3092 1.91062 32.375 1.82257 32.375 1.73077C32.375 1.63896 32.3092 1.55092 32.1919 1.486C32.0747 1.42108 31.9158 1.38462 31.75 1.38462ZM34.25 1.38462C34.0842 1.38462 33.9253 1.42108 33.8081 1.486C33.6908 1.55092 33.625 1.63896 33.625 1.73077C33.625 1.82257 33.6908 1.91062 33.8081 1.97554C33.9253 2.04045 34.0842 2.07692 34.25 2.07692C34.4158 2.07692 34.5747 2.04045 34.6919 1.97554C34.8092 1.91062 34.875 1.82257 34.875 1.73077C34.875 1.63896 34.8092 1.55092 34.6919 1.486C34.5747 1.42108 34.4158 1.38462 34.25 1.38462ZM36.75 1.38462C36.5842 1.38462 36.4253 1.42108 36.3081 1.486C36.1908 1.55092 36.125 1.63896 36.125 1.73077C36.125 1.82257 36.1908 1.91062 36.3081 1.97554C36.4253 2.04045 36.5842 2.07692 36.75 2.07692C36.9158 2.07692 37.0747 2.04045 37.1919 1.97554C37.3092 1.91062 37.375 1.82257 37.375 1.73077C37.375 1.63896 37.3092 1.55092 37.1919 1.486C37.0747 1.42108 36.9158 1.38462 36.75 1.38462ZM39.25 1.38462C39.0842 1.38462 38.9253 1.42108 38.8081 1.486C38.6908 1.55092 38.625 1.63896 38.625 1.73077C38.625 1.82257 38.6908 1.91062 38.8081 1.97554C38.9253 2.04045 39.0842 2.07692 39.25 2.07692C39.4158 2.07692 39.5747 2.04045 39.6919 1.97554C39.8092 1.91062 39.875 1.82257 39.875 1.73077C39.875 1.63896 39.8092 1.55092 39.6919 1.486C39.5747 1.42108 39.4158 1.38462 39.25 1.38462ZM6.75 6.92308C4.68648 6.92308 3 7.85713 3 9C3 10.1429 4.68648 11.0769 6.75 11.0769H39.25C41.3135 11.0769 43 10.1429 43 9C43 7.85713 41.3135 6.92308 39.25 6.92308H6.75ZM6.75 7.61538H39.25C40.2111 7.61538 41.0309 7.91394 41.4497 8.35096C41.3286 8.38806 41.2332 8.44636 41.1784 8.51673C41.1236 8.58709 41.1125 8.66554 41.1468 8.73977C41.1812 8.81401 41.259 8.87983 41.3682 8.92693C41.4773 8.97402 41.6116 8.99972 41.75 9C41.75 9.76859 40.6377 10.3846 39.25 10.3846H6.75C5.36227 10.3846 4.25 9.76859 4.25 9C4.38847 8.99987 4.52294 8.97428 4.6323 8.92724C4.74166 8.8802 4.81972 8.81437 4.85422 8.7401C4.88873 8.66583 4.87772 8.58731 4.82293 8.51688C4.76814 8.44645 4.67267 8.38809 4.55151 8.35096C4.97045 7.91409 5.78907 7.61538 6.75 7.61538ZM6.75 8.30769C6.58424 8.30769 6.42527 8.34416 6.30806 8.40908C6.19085 8.47399 6.125 8.56204 6.125 8.65385C6.125 8.74565 6.19085 8.8337 6.30806 8.89861C6.42527 8.96353 6.58424 9 6.75 9C6.91576 9 7.07473 8.96353 7.19194 8.89861C7.30915 8.8337 7.375 8.74565 7.375 8.65385C7.375 8.56204 7.30915 8.47399 7.19194 8.40908C7.07473 8.34416 6.91576 8.30769 6.75 8.30769ZM9.25 8.30769C9.08424 8.30769 8.92527 8.34416 8.80806 8.40908C8.69085 8.47399 8.625 8.56204 8.625 8.65385C8.625 8.74565 8.69085 8.8337 8.80806 8.89861C8.92527 8.96353 9.08424 9 9.25 9C9.41576 9 9.57473 8.96353 9.69194 8.89861C9.80915 8.8337 9.875 8.74565 9.875 8.65385C9.875 8.56204 9.80915 8.47399 9.69194 8.40908C9.57473 8.34416 9.41576 8.30769 9.25 8.30769ZM11.75 8.30769C11.5842 8.30769 11.4253 8.34416 11.3081 8.40908C11.1908 8.47399 11.125 8.56204 11.125 8.65385C11.125 8.74565 11.1908 8.8337 11.3081 8.89861C11.4253 8.96353 11.5842 9 11.75 9C11.9158 9 12.0747 8.96353 12.1919 8.89861C12.3092 8.8337 12.375 8.74565 12.375 8.65385C12.375 8.56204 12.3092 8.47399 12.1919 8.40908C12.0747 8.34416 11.9158 8.30769 11.75 8.30769ZM14.25 8.30769C14.0842 8.30769 13.9253 8.34416 13.8081 8.40908C13.6908 8.47399 13.625 8.56204 13.625 8.65385C13.625 8.74565 13.6908 8.8337 13.8081 8.89861C13.9253 8.96353 14.0842 9 14.25 9C14.4158 9 14.5747 8.96353 14.6919 8.89861C14.8092 8.8337 14.875 8.74565 14.875 8.65385C14.875 8.56204 14.8092 8.47399 14.6919 8.40908C14.5747 8.34416 14.4158 8.30769 14.25 8.30769ZM16.75 8.30769C16.5842 8.30769 16.4253 8.34416 16.3081 8.40908C16.1908 8.47399 16.125 8.56204 16.125 8.65385C16.125 8.74565 16.1908 8.8337 16.3081 8.89861C16.4253 8.96353 16.5842 9 16.75 9C16.9158 9 17.0747 8.96353 17.1919 8.89861C17.3092 8.8337 17.375 8.74565 17.375 8.65385C17.375 8.56204 17.3092 8.47399 17.1919 8.40908C17.0747 8.34416 16.9158 8.30769 16.75 8.30769ZM19.25 8.30769C19.0842 8.30769 18.9253 8.34416 18.8081 8.40908C18.6908 8.47399 18.625 8.56204 18.625 8.65385C18.625 8.74565 18.6908 8.8337 18.8081 8.89861C18.9253 8.96353 19.0842 9 19.25 9C19.4158 9 19.5747 8.96353 19.6919 8.89861C19.8092 8.8337 19.875 8.74565 19.875 8.65385C19.875 8.56204 19.8092 8.47399 19.6919 8.40908C19.5747 8.34416 19.4158 8.30769 19.25 8.30769ZM21.75 8.30769C21.5842 8.30769 21.4253 8.34416 21.3081 8.40908C21.1908 8.47399 21.125 8.56204 21.125 8.65385C21.125 8.74565 21.1908 8.8337 21.3081 8.89861C21.4253 8.96353 21.5842 9 21.75 9C21.9158 9 22.0747 8.96353 22.1919 8.89861C22.3092 8.8337 22.375 8.74565 22.375 8.65385C22.375 8.56204 22.3092 8.47399 22.1919 8.40908C22.0747 8.34416 21.9158 8.30769 21.75 8.30769ZM24.25 8.30769C24.0842 8.30769 23.9253 8.34416 23.8081 8.40908C23.6908 8.47399 23.625 8.56204 23.625 8.65385C23.625 8.74565 23.6908 8.8337 23.8081 8.89861C23.9253 8.96353 24.0842 9 24.25 9C24.4158 9 24.5747 8.96353 24.6919 8.89861C24.8092 8.8337 24.875 8.74565 24.875 8.65385C24.875 8.56204 24.8092 8.47399 24.6919 8.40908C24.5747 8.34416 24.4158 8.30769 24.25 8.30769ZM26.75 8.30769C26.5842 8.30769 26.4253 8.34416 26.3081 8.40908C26.1908 8.47399 26.125 8.56204 26.125 8.65385C26.125 8.74565 26.1908 8.8337 26.3081 8.89861C26.4253 8.96353 26.5842 9 26.75 9C26.9158 9 27.0747 8.96353 27.1919 8.89861C27.3092 8.8337 27.375 8.74565 27.375 8.65385C27.375 8.56204 27.3092 8.47399 27.1919 8.40908C27.0747 8.34416 26.9158 8.30769 26.75 8.30769ZM29.25 8.30769C29.0842 8.30769 28.9253 8.34416 28.8081 8.40908C28.6908 8.47399 28.625 8.56204 28.625 8.65385C28.625 8.74565 28.6908 8.8337 28.8081 8.89861C28.9253 8.96353 29.0842 9 29.25 9C29.4158 9 29.5747 8.96353 29.6919 8.89861C29.8092 8.8337 29.875 8.74565 29.875 8.65385C29.875 8.56204 29.8092 8.47399 29.6919 8.40908C29.5747 8.34416 29.4158 8.30769 29.25 8.30769ZM31.75 8.30769C31.5842 8.30769 31.4253 8.34416 31.3081 8.40908C31.1908 8.47399 31.125 8.56204 31.125 8.65385C31.125 8.74565 31.1908 8.8337 31.3081 8.89861C31.4253 8.96353 31.5842 9 31.75 9C31.9158 9 32.0747 8.96353 32.1919 8.89861C32.3092 8.8337 32.375 8.74565 32.375 8.65385C32.375 8.56204 32.3092 8.47399 32.1919 8.40908C32.0747 8.34416 31.9158 8.30769 31.75 8.30769ZM34.25 8.30769C34.0842 8.30769 33.9253 8.34416 33.8081 8.40908C33.6908 8.47399 33.625 8.56204 33.625 8.65385C33.625 8.74565 33.6908 8.8337 33.8081 8.89861C33.9253 8.96353 34.0842 9 34.25 9C34.4158 9 34.5747 8.96353 34.6919 8.89861C34.8092 8.8337 34.875 8.74565 34.875 8.65385C34.875 8.56204 34.8092 8.47399 34.6919 8.40908C34.5747 8.34416 34.4158 8.30769 34.25 8.30769ZM36.75 8.30769C36.5842 8.30769 36.4253 8.34416 36.3081 8.40908C36.1908 8.47399 36.125 8.56204 36.125 8.65385C36.125 8.74565 36.1908 8.8337 36.3081 8.89861C36.4253 8.96353 36.5842 9 36.75 9C36.9158 9 37.0747 8.96353 37.1919 8.89861C37.3092 8.8337 37.375 8.74565 37.375 8.65385C37.375 8.56204 37.3092 8.47399 37.1919 8.40908C37.0747 8.34416 36.9158 8.30769 36.75 8.30769ZM39.25 8.30769C39.0842 8.30769 38.9253 8.34416 38.8081 8.40908C38.6908 8.47399 38.625 8.56204 38.625 8.65385C38.625 8.74565 38.6908 8.8337 38.8081 8.89861C38.9253 8.96353 39.0842 9 39.25 9C39.4158 9 39.5747 8.96353 39.6919 8.89861C39.8092 8.8337 39.875 8.74565 39.875 8.65385C39.875 8.56204 39.8092 8.47399 39.6919 8.40908C39.5747 8.34416 39.4158 8.30769 39.25 8.30769ZM6.75 13.8462C4.68648 13.8462 3 14.7802 3 15.9231C3 17.0659 4.68648 18 6.75 18H39.25C41.3135 18 43 17.0659 43 15.9231C43 14.7802 41.3135 13.8462 39.25 13.8462H6.75ZM6.75 14.5385H39.25C40.2111 14.5385 41.0309 14.837 41.4497 15.274C41.3286 15.3111 41.2332 15.3694 41.1784 15.4398C41.1236 15.5102 41.1125 15.5886 41.1468 15.6629C41.1812 15.7371 41.259 15.8029 41.3682 15.85C41.4773 15.8971 41.6116 15.9228 41.75 15.9231C41.75 16.6917 40.6377 17.3077 39.25 17.3077H6.75C5.36227 17.3077 4.25 16.6917 4.25 15.9231C4.38847 15.9229 4.52294 15.8974 4.6323 15.8503C4.74166 15.8033 4.81972 15.7374 4.85422 15.6632C4.88873 15.5889 4.87772 15.5104 4.82293 15.44C4.76814 15.3695 4.67267 15.3112 4.55151 15.274C4.97045 14.8372 5.78907 14.5385 6.75 14.5385ZM6.75 15.2308C6.58424 15.2308 6.42527 15.2672 6.30806 15.3322C6.19085 15.3971 6.125 15.4851 6.125 15.5769C6.125 15.6687 6.19085 15.7568 6.30806 15.8217C6.42527 15.8866 6.58424 15.9231 6.75 15.9231C6.91576 15.9231 7.07473 15.8866 7.19194 15.8217C7.30915 15.7568 7.375 15.6687 7.375 15.5769C7.375 15.4851 7.30915 15.3971 7.19194 15.3322C7.07473 15.2672 6.91576 15.2308 6.75 15.2308ZM9.25 15.2308C9.08424 15.2308 8.92527 15.2672 8.80806 15.3322C8.69085 15.3971 8.625 15.4851 8.625 15.5769C8.625 15.6687 8.69085 15.7568 8.80806 15.8217C8.92527 15.8866 9.08424 15.9231 9.25 15.9231C9.41576 15.9231 9.57473 15.8866 9.69194 15.8217C9.80915 15.7568 9.875 15.6687 9.875 15.5769C9.875 15.4851 9.80915 15.3971 9.69194 15.3322C9.57473 15.2672 9.41576 15.2308 9.25 15.2308ZM11.75 15.2308C11.5842 15.2308 11.4253 15.2672 11.3081 15.3322C11.1908 15.3971 11.125 15.4851 11.125 15.5769C11.125 15.6687 11.1908 15.7568 11.3081 15.8217C11.4253 15.8866 11.5842 15.9231 11.75 15.9231C11.9158 15.9231 12.0747 15.8866 12.1919 15.8217C12.3092 15.7568 12.375 15.6687 12.375 15.5769C12.375 15.4851 12.3092 15.3971 12.1919 15.3322C12.0747 15.2672 11.9158 15.2308 11.75 15.2308ZM14.25 15.2308C14.0842 15.2308 13.9253 15.2672 13.8081 15.3322C13.6908 15.3971 13.625 15.4851 13.625 15.5769C13.625 15.6687 13.6908 15.7568 13.8081 15.8217C13.9253 15.8866 14.0842 15.9231 14.25 15.9231C14.4158 15.9231 14.5747 15.8866 14.6919 15.8217C14.8092 15.7568 14.875 15.6687 14.875 15.5769C14.875 15.4851 14.8092 15.3971 14.6919 15.3322C14.5747 15.2672 14.4158 15.2308 14.25 15.2308ZM16.75 15.2308C16.5842 15.2308 16.4253 15.2672 16.3081 15.3322C16.1908 15.3971 16.125 15.4851 16.125 15.5769C16.125 15.6687 16.1908 15.7568 16.3081 15.8217C16.4253 15.8866 16.5842 15.9231 16.75 15.9231C16.9158 15.9231 17.0747 15.8866 17.1919 15.8217C17.3092 15.7568 17.375 15.6687 17.375 15.5769C17.375 15.4851 17.3092 15.3971 17.1919 15.3322C17.0747 15.2672 16.9158 15.2308 16.75 15.2308ZM19.25 15.2308C19.0842 15.2308 18.9253 15.2672 18.8081 15.3322C18.6908 15.3971 18.625 15.4851 18.625 15.5769C18.625 15.6687 18.6908 15.7568 18.8081 15.8217C18.9253 15.8866 19.0842 15.9231 19.25 15.9231C19.4158 15.9231 19.5747 15.8866 19.6919 15.8217C19.8092 15.7568 19.875 15.6687 19.875 15.5769C19.875 15.4851 19.8092 15.3971 19.6919 15.3322C19.5747 15.2672 19.4158 15.2308 19.25 15.2308ZM21.75 15.2308C21.5842 15.2308 21.4253 15.2672 21.3081 15.3322C21.1908 15.3971 21.125 15.4851 21.125 15.5769C21.125 15.6687 21.1908 15.7568 21.3081 15.8217C21.4253 15.8866 21.5842 15.9231 21.75 15.9231C21.9158 15.9231 22.0747 15.8866 22.1919 15.8217C22.3092 15.7568 22.375 15.6687 22.375 15.5769C22.375 15.4851 22.3092 15.3971 22.1919 15.3322C22.0747 15.2672 21.9158 15.2308 21.75 15.2308ZM24.25 15.2308C24.0842 15.2308 23.9253 15.2672 23.8081 15.3322C23.6908 15.3971 23.625 15.4851 23.625 15.5769C23.625 15.6687 23.6908 15.7568 23.8081 15.8217C23.9253 15.8866 24.0842 15.9231 24.25 15.9231C24.4158 15.9231 24.5747 15.8866 24.6919 15.8217C24.8092 15.7568 24.875 15.6687 24.875 15.5769C24.875 15.4851 24.8092 15.3971 24.6919 15.3322C24.5747 15.2672 24.4158 15.2308 24.25 15.2308ZM26.75 15.2308C26.5842 15.2308 26.4253 15.2672 26.3081 15.3322C26.1908 15.3971 26.125 15.4851 26.125 15.5769C26.125 15.6687 26.1908 15.7568 26.3081 15.8217C26.4253 15.8866 26.5842 15.9231 26.75 15.9231C26.9158 15.9231 27.0747 15.8866 27.1919 15.8217C27.3092 15.7568 27.375 15.6687 27.375 15.5769C27.375 15.4851 27.3092 15.3971 27.1919 15.3322C27.0747 15.2672 26.9158 15.2308 26.75 15.2308ZM29.25 15.2308C29.0842 15.2308 28.9253 15.2672 28.8081 15.3322C28.6908 15.3971 28.625 15.4851 28.625 15.5769C28.625 15.6687 28.6908 15.7568 28.8081 15.8217C28.9253 15.8866 29.0842 15.9231 29.25 15.9231C29.4158 15.9231 29.5747 15.8866 29.6919 15.8217C29.8092 15.7568 29.875 15.6687 29.875 15.5769C29.875 15.4851 29.8092 15.3971 29.6919 15.3322C29.5747 15.2672 29.4158 15.2308 29.25 15.2308ZM31.75 15.2308C31.5842 15.2308 31.4253 15.2672 31.3081 15.3322C31.1908 15.3971 31.125 15.4851 31.125 15.5769C31.125 15.6687 31.1908 15.7568 31.3081 15.8217C31.4253 15.8866 31.5842 15.9231 31.75 15.9231C31.9158 15.9231 32.0747 15.8866 32.1919 15.8217C32.3092 15.7568 32.375 15.6687 32.375 15.5769C32.375 15.4851 32.3092 15.3971 32.1919 15.3322C32.0747 15.2672 31.9158 15.2308 31.75 15.2308ZM34.25 15.2308C34.0842 15.2308 33.9253 15.2672 33.8081 15.3322C33.6908 15.3971 33.625 15.4851 33.625 15.5769C33.625 15.6687 33.6908 15.7568 33.8081 15.8217C33.9253 15.8866 34.0842 15.9231 34.25 15.9231C34.4158 15.9231 34.5747 15.8866 34.6919 15.8217C34.8092 15.7568 34.875 15.6687 34.875 15.5769C34.875 15.4851 34.8092 15.3971 34.6919 15.3322C34.5747 15.2672 34.4158 15.2308 34.25 15.2308ZM36.75 15.2308C36.5842 15.2308 36.4253 15.2672 36.3081 15.3322C36.1908 15.3971 36.125 15.4851 36.125 15.5769C36.125 15.6687 36.1908 15.7568 36.3081 15.8217C36.4253 15.8866 36.5842 15.9231 36.75 15.9231C36.9158 15.9231 37.0747 15.8866 37.1919 15.8217C37.3092 15.7568 37.375 15.6687 37.375 15.5769C37.375 15.4851 37.3092 15.3971 37.1919 15.3322C37.0747 15.2672 36.9158 15.2308 36.75 15.2308ZM39.25 15.2308C39.0842 15.2308 38.9253 15.2672 38.8081 15.3322C38.6908 15.3971 38.625 15.4851 38.625 15.5769C38.625 15.6687 38.6908 15.7568 38.8081 15.8217C38.9253 15.8866 39.0842 15.9231 39.25 15.9231C39.4158 15.9231 39.5747 15.8866 39.6919 15.8217C39.8092 15.7568 39.875 15.6687 39.875 15.5769C39.875 15.4851 39.8092 15.3971 39.6919 15.3322C39.5747 15.2672 39.4158 15.2308 39.25 15.2308Z" fill="#D3D3D3"/>
<path d="M41.4114 21.65L23 35.3763L4.5886 21.65L41.4114 21.65Z" stroke="#D3D3D3"/>
</svg>
