<svg width="46" height="36" viewBox="0 0 46 36" fill="none" xmlns="http://www.w3.org/2000/svg">
<path d="M6.75 18C4.68648 18 3 18.9341 3 20.0769C3 21.2198 4.68648 22.1538 6.75 22.1538H39.25C41.3135 22.1538 43 21.2198 43 20.0769C43 18.9341 41.3135 18 39.25 18H6.75ZM6.75 18.6923H39.25C40.2111 18.6923 41.0309 18.9909 41.4497 19.4279C41.3286 19.465 41.2332 19.5233 41.1784 19.5936C41.1236 19.664 41.1125 19.7425 41.1468 19.8167C41.1812 19.8909 41.259 19.9568 41.3682 20.0038C41.4773 20.0509 41.6116 20.0766 41.75 20.0769C41.75 20.8455 40.6377 21.4615 39.25 21.4615H6.75C5.36227 21.4615 4.25 20.8455 4.25 20.0769C4.38847 20.0768 4.52294 20.0512 4.6323 20.0042C4.74166 19.9571 4.81972 19.8913 4.85422 19.817C4.88873 19.7428 4.87772 19.6642 4.82293 19.5938C4.76814 19.5234 4.67267 19.465 4.55151 19.4279C4.97045 18.991 5.78907 18.6923 6.75 18.6923ZM6.75 19.3846C6.58424 19.3846 6.42527 19.4211 6.30806 19.486C6.19085 19.5509 6.125 19.639 6.125 19.7308C6.125 19.8226 6.19085 19.9106 6.30806 19.9755C6.42527 20.0405 6.58424 20.0769 6.75 20.0769C6.91576 20.0769 7.07473 20.0405 7.19194 19.9755C7.30915 19.9106 7.375 19.8226 7.375 19.7308C7.375 19.639 7.30915 19.5509 7.19194 19.486C7.07473 19.4211 6.91576 19.3846 6.75 19.3846ZM9.25 19.3846C9.08424 19.3846 8.92527 19.4211 8.80806 19.486C8.69085 19.5509 8.625 19.639 8.625 19.7308C8.625 19.8226 8.69085 19.9106 8.80806 19.9755C8.92527 20.0405 9.08424 20.0769 9.25 20.0769C9.41576 20.0769 9.57473 20.0405 9.69194 19.9755C9.80915 19.9106 9.875 19.8226 9.875 19.7308C9.875 19.639 9.80915 19.5509 9.69194 19.486C9.57473 19.4211 9.41576 19.3846 9.25 19.3846ZM11.75 19.3846C11.5842 19.3846 11.4253 19.4211 11.3081 19.486C11.1908 19.5509 11.125 19.639 11.125 19.7308C11.125 19.8226 11.1908 19.9106 11.3081 19.9755C11.4253 20.0405 11.5842 20.0769 11.75 20.0769C11.9158 20.0769 12.0747 20.0405 12.1919 19.9755C12.3092 19.9106 12.375 19.8226 12.375 19.7308C12.375 19.639 12.3092 19.5509 12.1919 19.486C12.0747 19.4211 11.9158 19.3846 11.75 19.3846ZM14.25 19.3846C14.0842 19.3846 13.9253 19.4211 13.8081 19.486C13.6908 19.5509 13.625 19.639 13.625 19.7308C13.625 19.8226 13.6908 19.9106 13.8081 19.9755C13.9253 20.0405 14.0842 20.0769 14.25 20.0769C14.4158 20.0769 14.5747 20.0405 14.6919 19.9755C14.8092 19.9106 14.875 19.8226 14.875 19.7308C14.875 19.639 14.8092 19.5509 14.6919 19.486C14.5747 19.4211 14.4158 19.3846 14.25 19.3846ZM16.75 19.3846C16.5842 19.3846 16.4253 19.4211 16.3081 19.486C16.1908 19.5509 16.125 19.639 16.125 19.7308C16.125 19.8226 16.1908 19.9106 16.3081 19.9755C16.4253 20.0405 16.5842 20.0769 16.75 20.0769C16.9158 20.0769 17.0747 20.0405 17.1919 19.9755C17.3092 19.9106 17.375 19.8226 17.375 19.7308C17.375 19.639 17.3092 19.5509 17.1919 19.486C17.0747 19.4211 16.9158 19.3846 16.75 19.3846ZM19.25 19.3846C19.0842 19.3846 18.9253 19.4211 18.8081 19.486C18.6908 19.5509 18.625 19.639 18.625 19.7308C18.625 19.8226 18.6908 19.9106 18.8081 19.9755C18.9253 20.0405 19.0842 20.0769 19.25 20.0769C19.4158 20.0769 19.5747 20.0405 19.6919 19.9755C19.8092 19.9106 19.875 19.8226 19.875 19.7308C19.875 19.639 19.8092 19.5509 19.6919 19.486C19.5747 19.4211 19.4158 19.3846 19.25 19.3846ZM21.75 19.3846C21.5842 19.3846 21.4253 19.4211 21.3081 19.486C21.1908 19.5509 21.125 19.639 21.125 19.7308C21.125 19.8226 21.1908 19.9106 21.3081 19.9755C21.4253 20.0405 21.5842 20.0769 21.75 20.0769C21.9158 20.0769 22.0747 20.0405 22.1919 19.9755C22.3092 19.9106 22.375 19.8226 22.375 19.7308C22.375 19.639 22.3092 19.5509 22.1919 19.486C22.0747 19.4211 21.9158 19.3846 21.75 19.3846ZM24.25 19.3846C24.0842 19.3846 23.9253 19.4211 23.8081 19.486C23.6908 19.5509 23.625 19.639 23.625 19.7308C23.625 19.8226 23.6908 19.9106 23.8081 19.9755C23.9253 20.0405 24.0842 20.0769 24.25 20.0769C24.4158 20.0769 24.5747 20.0405 24.6919 19.9755C24.8092 19.9106 24.875 19.8226 24.875 19.7308C24.875 19.639 24.8092 19.5509 24.6919 19.486C24.5747 19.4211 24.4158 19.3846 24.25 19.3846ZM26.75 19.3846C26.5842 19.3846 26.4253 19.4211 26.3081 19.486C26.1908 19.5509 26.125 19.639 26.125 19.7308C26.125 19.8226 26.1908 19.9106 26.3081 19.9755C26.4253 20.0405 26.5842 20.0769 26.75 20.0769C26.9158 20.0769 27.0747 20.0405 27.1919 19.9755C27.3092 19.9106 27.375 19.8226 27.375 19.7308C27.375 19.639 27.3092 19.5509 27.1919 19.486C27.0747 19.4211 26.9158 19.3846 26.75 19.3846ZM29.25 19.3846C29.0842 19.3846 28.9253 19.4211 28.8081 19.486C28.6908 19.5509 28.625 19.639 28.625 19.7308C28.625 19.8226 28.6908 19.9106 28.8081 19.9755C28.9253 20.0405 29.0842 20.0769 29.25 20.0769C29.4158 20.0769 29.5747 20.0405 29.6919 19.9755C29.8092 19.9106 29.875 19.8226 29.875 19.7308C29.875 19.639 29.8092 19.5509 29.6919 19.486C29.5747 19.4211 29.4158 19.3846 29.25 19.3846ZM31.75 19.3846C31.5842 19.3846 31.4253 19.4211 31.3081 19.486C31.1908 19.5509 31.125 19.639 31.125 19.7308C31.125 19.8226 31.1908 19.9106 31.3081 19.9755C31.4253 20.0405 31.5842 20.0769 31.75 20.0769C31.9158 20.0769 32.0747 20.0405 32.1919 19.9755C32.3092 19.9106 32.375 19.8226 32.375 19.7308C32.375 19.639 32.3092 19.5509 32.1919 19.486C32.0747 19.4211 31.9158 19.3846 31.75 19.3846ZM34.25 19.3846C34.0842 19.3846 33.9253 19.4211 33.8081 19.486C33.6908 19.5509 33.625 19.639 33.625 19.7308C33.625 19.8226 33.6908 19.9106 33.8081 19.9755C33.9253 20.0405 34.0842 20.0769 34.25 20.0769C34.4158 20.0769 34.5747 20.0405 34.6919 19.9755C34.8092 19.9106 34.875 19.8226 34.875 19.7308C34.875 19.639 34.8092 19.5509 34.6919 19.486C34.5747 19.4211 34.4158 19.3846 34.25 19.3846ZM36.75 19.3846C36.5842 19.3846 36.4253 19.4211 36.3081 19.486C36.1908 19.5509 36.125 19.639 36.125 19.7308C36.125 19.8226 36.1908 19.9106 36.3081 19.9755C36.4253 20.0405 36.5842 20.0769 36.75 20.0769C36.9158 20.0769 37.0747 20.0405 37.1919 19.9755C37.3092 19.9106 37.375 19.8226 37.375 19.7308C37.375 19.639 37.3092 19.5509 37.1919 19.486C37.0747 19.4211 36.9158 19.3846 36.75 19.3846ZM39.25 19.3846C39.0842 19.3846 38.9253 19.4211 38.8081 19.486C38.6908 19.5509 38.625 19.639 38.625 19.7308C38.625 19.8226 38.6908 19.9106 38.8081 19.9755C38.9253 20.0405 39.0842 20.0769 39.25 20.0769C39.4158 20.0769 39.5747 20.0405 39.6919 19.9755C39.8092 19.9106 39.875 19.8226 39.875 19.7308C39.875 19.639 39.8092 19.5509 39.6919 19.486C39.5747 19.4211 39.4158 19.3846 39.25 19.3846ZM6.75 24.9231C4.68648 24.9231 3 25.8571 3 27C3 28.1429 4.68648 29.0769 6.75 29.0769H39.25C41.3135 29.0769 43 28.1429 43 27C43 25.8571 41.3135 24.9231 39.25 24.9231H6.75ZM6.75 25.6154H39.25C40.2111 25.6154 41.0309 25.9139 41.4497 26.351C41.3286 26.3881 41.2332 26.4464 41.1784 26.5167C41.1236 26.5871 41.1125 26.6655 41.1468 26.7398C41.1812 26.814 41.259 26.8798 41.3682 26.9269C41.4773 26.974 41.6116 26.9997 41.75 27C41.75 27.7686 40.6377 28.3846 39.25 28.3846H6.75C5.36227 28.3846 4.25 27.7686 4.25 27C4.38847 26.9999 4.52294 26.9743 4.6323 26.9272C4.74166 26.8802 4.81972 26.8144 4.85422 26.7401C4.88873 26.6658 4.87772 26.5873 4.82293 26.5169C4.76814 26.4464 4.67267 26.3881 4.55151 26.351C4.97045 25.9141 5.78907 25.6154 6.75 25.6154ZM6.75 26.3077C6.58424 26.3077 6.42527 26.3442 6.30806 26.4091C6.19085 26.474 6.125 26.562 6.125 26.6538C6.125 26.7457 6.19085 26.8337 6.30806 26.8986C6.42527 26.9635 6.58424 27 6.75 27C6.91576 27 7.07473 26.9635 7.19194 26.8986C7.30915 26.8337 7.375 26.7457 7.375 26.6538C7.375 26.562 7.30915 26.474 7.19194 26.4091C7.07473 26.3442 6.91576 26.3077 6.75 26.3077ZM9.25 26.3077C9.08424 26.3077 8.92527 26.3442 8.80806 26.4091C8.69085 26.474 8.625 26.562 8.625 26.6538C8.625 26.7457 8.69085 26.8337 8.80806 26.8986C8.92527 26.9635 9.08424 27 9.25 27C9.41576 27 9.57473 26.9635 9.69194 26.8986C9.80915 26.8337 9.875 26.7457 9.875 26.6538C9.875 26.562 9.80915 26.474 9.69194 26.4091C9.57473 26.3442 9.41576 26.3077 9.25 26.3077ZM11.75 26.3077C11.5842 26.3077 11.4253 26.3442 11.3081 26.4091C11.1908 26.474 11.125 26.562 11.125 26.6538C11.125 26.7457 11.1908 26.8337 11.3081 26.8986C11.4253 26.9635 11.5842 27 11.75 27C11.9158 27 12.0747 26.9635 12.1919 26.8986C12.3092 26.8337 12.375 26.7457 12.375 26.6538C12.375 26.562 12.3092 26.474 12.1919 26.4091C12.0747 26.3442 11.9158 26.3077 11.75 26.3077ZM14.25 26.3077C14.0842 26.3077 13.9253 26.3442 13.8081 26.4091C13.6908 26.474 13.625 26.562 13.625 26.6538C13.625 26.7457 13.6908 26.8337 13.8081 26.8986C13.9253 26.9635 14.0842 27 14.25 27C14.4158 27 14.5747 26.9635 14.6919 26.8986C14.8092 26.8337 14.875 26.7457 14.875 26.6538C14.875 26.562 14.8092 26.474 14.6919 26.4091C14.5747 26.3442 14.4158 26.3077 14.25 26.3077ZM16.75 26.3077C16.5842 26.3077 16.4253 26.3442 16.3081 26.4091C16.1908 26.474 16.125 26.562 16.125 26.6538C16.125 26.7457 16.1908 26.8337 16.3081 26.8986C16.4253 26.9635 16.5842 27 16.75 27C16.9158 27 17.0747 26.9635 17.1919 26.8986C17.3092 26.8337 17.375 26.7457 17.375 26.6538C17.375 26.562 17.3092 26.474 17.1919 26.4091C17.0747 26.3442 16.9158 26.3077 16.75 26.3077ZM19.25 26.3077C19.0842 26.3077 18.9253 26.3442 18.8081 26.4091C18.6908 26.474 18.625 26.562 18.625 26.6538C18.625 26.7457 18.6908 26.8337 18.8081 26.8986C18.9253 26.9635 19.0842 27 19.25 27C19.4158 27 19.5747 26.9635 19.6919 26.8986C19.8092 26.8337 19.875 26.7457 19.875 26.6538C19.875 26.562 19.8092 26.474 19.6919 26.4091C19.5747 26.3442 19.4158 26.3077 19.25 26.3077ZM21.75 26.3077C21.5842 26.3077 21.4253 26.3442 21.3081 26.4091C21.1908 26.474 21.125 26.562 21.125 26.6538C21.125 26.7457 21.1908 26.8337 21.3081 26.8986C21.4253 26.9635 21.5842 27 21.75 27C21.9158 27 22.0747 26.9635 22.1919 26.8986C22.3092 26.8337 22.375 26.7457 22.375 26.6538C22.375 26.562 22.3092 26.474 22.1919 26.4091C22.0747 26.3442 21.9158 26.3077 21.75 26.3077ZM24.25 26.3077C24.0842 26.3077 23.9253 26.3442 23.8081 26.4091C23.6908 26.474 23.625 26.562 23.625 26.6538C23.625 26.7457 23.6908 26.8337 23.8081 26.8986C23.9253 26.9635 24.0842 27 24.25 27C24.4158 27 24.5747 26.9635 24.6919 26.8986C24.8092 26.8337 24.875 26.7457 24.875 26.6538C24.875 26.562 24.8092 26.474 24.6919 26.4091C24.5747 26.3442 24.4158 26.3077 24.25 26.3077ZM26.75 26.3077C26.5842 26.3077 26.4253 26.3442 26.3081 26.4091C26.1908 26.474 26.125 26.562 26.125 26.6538C26.125 26.7457 26.1908 26.8337 26.3081 26.8986C26.4253 26.9635 26.5842 27 26.75 27C26.9158 27 27.0747 26.9635 27.1919 26.8986C27.3092 26.8337 27.375 26.7457 27.375 26.6538C27.375 26.562 27.3092 26.474 27.1919 26.4091C27.0747 26.3442 26.9158 26.3077 26.75 26.3077ZM29.25 26.3077C29.0842 26.3077 28.9253 26.3442 28.8081 26.4091C28.6908 26.474 28.625 26.562 28.625 26.6538C28.625 26.7457 28.6908 26.8337 28.8081 26.8986C28.9253 26.9635 29.0842 27 29.25 27C29.4158 27 29.5747 26.9635 29.6919 26.8986C29.8092 26.8337 29.875 26.7457 29.875 26.6538C29.875 26.562 29.8092 26.474 29.6919 26.4091C29.5747 26.3442 29.4158 26.3077 29.25 26.3077ZM31.75 26.3077C31.5842 26.3077 31.4253 26.3442 31.3081 26.4091C31.1908 26.474 31.125 26.562 31.125 26.6538C31.125 26.7457 31.1908 26.8337 31.3081 26.8986C31.4253 26.9635 31.5842 27 31.75 27C31.9158 27 32.0747 26.9635 32.1919 26.8986C32.3092 26.8337 32.375 26.7457 32.375 26.6538C32.375 26.562 32.3092 26.474 32.1919 26.4091C32.0747 26.3442 31.9158 26.3077 31.75 26.3077ZM34.25 26.3077C34.0842 26.3077 33.9253 26.3442 33.8081 26.4091C33.6908 26.474 33.625 26.562 33.625 26.6538C33.625 26.7457 33.6908 26.8337 33.8081 26.8986C33.9253 26.9635 34.0842 27 34.25 27C34.4158 27 34.5747 26.9635 34.6919 26.8986C34.8092 26.8337 34.875 26.7457 34.875 26.6538C34.875 26.562 34.8092 26.474 34.6919 26.4091C34.5747 26.3442 34.4158 26.3077 34.25 26.3077ZM36.75 26.3077C36.5842 26.3077 36.4253 26.3442 36.3081 26.4091C36.1908 26.474 36.125 26.562 36.125 26.6538C36.125 26.7457 36.1908 26.8337 36.3081 26.8986C36.4253 26.9635 36.5842 27 36.75 27C36.9158 27 37.0747 26.9635 37.1919 26.8986C37.3092 26.8337 37.375 26.7457 37.375 26.6538C37.375 26.562 37.3092 26.474 37.1919 26.4091C37.0747 26.3442 36.9158 26.3077 36.75 26.3077ZM39.25 26.3077C39.0842 26.3077 38.9253 26.3442 38.8081 26.4091C38.6908 26.474 38.625 26.562 38.625 26.6538C38.625 26.7457 38.6908 26.8337 38.8081 26.8986C38.9253 26.9635 39.0842 27 39.25 27C39.4158 27 39.5747 26.9635 39.6919 26.8986C39.8092 26.8337 39.875 26.7457 39.875 26.6538C39.875 26.562 39.8092 26.474 39.6919 26.4091C39.5747 26.3442 39.4158 26.3077 39.25 26.3077ZM6.75 31.8462C4.68648 31.8462 3 32.7802 3 33.9231C3 35.0659 4.68648 36 6.75 36H39.25C41.3135 36 43 35.0659 43 33.9231C43 32.7802 41.3135 31.8462 39.25 31.8462H6.75ZM6.75 32.5385H39.25C40.2111 32.5385 41.0309 32.837 41.4497 33.274C41.3286 33.3111 41.2332 33.3694 41.1784 33.4398C41.1236 33.5102 41.1125 33.5886 41.1468 33.6629C41.1812 33.7371 41.259 33.8029 41.3682 33.85C41.4773 33.8971 41.6116 33.9228 41.75 33.9231C41.75 34.6917 40.6377 35.3077 39.25 35.3077H6.75C5.36227 35.3077 4.25 34.6917 4.25 33.9231C4.38847 33.9229 4.52294 33.8974 4.6323 33.8503C4.74166 33.8033 4.81972 33.7374 4.85422 33.6632C4.88873 33.5889 4.87772 33.5104 4.82293 33.44C4.76814 33.3695 4.67267 33.3112 4.55151 33.274C4.97045 32.8372 5.78907 32.5385 6.75 32.5385ZM6.75 33.2308C6.58424 33.2308 6.42527 33.2672 6.30806 33.3322C6.19085 33.3971 6.125 33.4851 6.125 33.5769C6.125 33.6687 6.19085 33.7568 6.30806 33.8217C6.42527 33.8866 6.58424 33.9231 6.75 33.9231C6.91576 33.9231 7.07473 33.8866 7.19194 33.8217C7.30915 33.7568 7.375 33.6687 7.375 33.5769C7.375 33.4851 7.30915 33.3971 7.19194 33.3322C7.07473 33.2672 6.91576 33.2308 6.75 33.2308ZM9.25 33.2308C9.08424 33.2308 8.92527 33.2672 8.80806 33.3322C8.69085 33.3971 8.625 33.4851 8.625 33.5769C8.625 33.6687 8.69085 33.7568 8.80806 33.8217C8.92527 33.8866 9.08424 33.9231 9.25 33.9231C9.41576 33.9231 9.57473 33.8866 9.69194 33.8217C9.80915 33.7568 9.875 33.6687 9.875 33.5769C9.875 33.4851 9.80915 33.3971 9.69194 33.3322C9.57473 33.2672 9.41576 33.2308 9.25 33.2308ZM11.75 33.2308C11.5842 33.2308 11.4253 33.2672 11.3081 33.3322C11.1908 33.3971 11.125 33.4851 11.125 33.5769C11.125 33.6687 11.1908 33.7568 11.3081 33.8217C11.4253 33.8866 11.5842 33.9231 11.75 33.9231C11.9158 33.9231 12.0747 33.8866 12.1919 33.8217C12.3092 33.7568 12.375 33.6687 12.375 33.5769C12.375 33.4851 12.3092 33.3971 12.1919 33.3322C12.0747 33.2672 11.9158 33.2308 11.75 33.2308ZM14.25 33.2308C14.0842 33.2308 13.9253 33.2672 13.8081 33.3322C13.6908 33.3971 13.625 33.4851 13.625 33.5769C13.625 33.6687 13.6908 33.7568 13.8081 33.8217C13.9253 33.8866 14.0842 33.9231 14.25 33.9231C14.4158 33.9231 14.5747 33.8866 14.6919 33.8217C14.8092 33.7568 14.875 33.6687 14.875 33.5769C14.875 33.4851 14.8092 33.3971 14.6919 33.3322C14.5747 33.2672 14.4158 33.2308 14.25 33.2308ZM16.75 33.2308C16.5842 33.2308 16.4253 33.2672 16.3081 33.3322C16.1908 33.3971 16.125 33.4851 16.125 33.5769C16.125 33.6687 16.1908 33.7568 16.3081 33.8217C16.4253 33.8866 16.5842 33.9231 16.75 33.9231C16.9158 33.9231 17.0747 33.8866 17.1919 33.8217C17.3092 33.7568 17.375 33.6687 17.375 33.5769C17.375 33.4851 17.3092 33.3971 17.1919 33.3322C17.0747 33.2672 16.9158 33.2308 16.75 33.2308ZM19.25 33.2308C19.0842 33.2308 18.9253 33.2672 18.8081 33.3322C18.6908 33.3971 18.625 33.4851 18.625 33.5769C18.625 33.6687 18.6908 33.7568 18.8081 33.8217C18.9253 33.8866 19.0842 33.9231 19.25 33.9231C19.4158 33.9231 19.5747 33.8866 19.6919 33.8217C19.8092 33.7568 19.875 33.6687 19.875 33.5769C19.875 33.4851 19.8092 33.3971 19.6919 33.3322C19.5747 33.2672 19.4158 33.2308 19.25 33.2308ZM21.75 33.2308C21.5842 33.2308 21.4253 33.2672 21.3081 33.3322C21.1908 33.3971 21.125 33.4851 21.125 33.5769C21.125 33.6687 21.1908 33.7568 21.3081 33.8217C21.4253 33.8866 21.5842 33.9231 21.75 33.9231C21.9158 33.9231 22.0747 33.8866 22.1919 33.8217C22.3092 33.7568 22.375 33.6687 22.375 33.5769C22.375 33.4851 22.3092 33.3971 22.1919 33.3322C22.0747 33.2672 21.9158 33.2308 21.75 33.2308ZM24.25 33.2308C24.0842 33.2308 23.9253 33.2672 23.8081 33.3322C23.6908 33.3971 23.625 33.4851 23.625 33.5769C23.625 33.6687 23.6908 33.7568 23.8081 33.8217C23.9253 33.8866 24.0842 33.9231 24.25 33.9231C24.4158 33.9231 24.5747 33.8866 24.6919 33.8217C24.8092 33.7568 24.875 33.6687 24.875 33.5769C24.875 33.4851 24.8092 33.3971 24.6919 33.3322C24.5747 33.2672 24.4158 33.2308 24.25 33.2308ZM26.75 33.2308C26.5842 33.2308 26.4253 33.2672 26.3081 33.3322C26.1908 33.3971 26.125 33.4851 26.125 33.5769C26.125 33.6687 26.1908 33.7568 26.3081 33.8217C26.4253 33.8866 26.5842 33.9231 26.75 33.9231C26.9158 33.9231 27.0747 33.8866 27.1919 33.8217C27.3092 33.7568 27.375 33.6687 27.375 33.5769C27.375 33.4851 27.3092 33.3971 27.1919 33.3322C27.0747 33.2672 26.9158 33.2308 26.75 33.2308ZM29.25 33.2308C29.0842 33.2308 28.9253 33.2672 28.8081 33.3322C28.6908 33.3971 28.625 33.4851 28.625 33.5769C28.625 33.6687 28.6908 33.7568 28.8081 33.8217C28.9253 33.8866 29.0842 33.9231 29.25 33.9231C29.4158 33.9231 29.5747 33.8866 29.6919 33.8217C29.8092 33.7568 29.875 33.6687 29.875 33.5769C29.875 33.4851 29.8092 33.3971 29.6919 33.3322C29.5747 33.2672 29.4158 33.2308 29.25 33.2308ZM31.75 33.2308C31.5842 33.2308 31.4253 33.2672 31.3081 33.3322C31.1908 33.3971 31.125 33.4851 31.125 33.5769C31.125 33.6687 31.1908 33.7568 31.3081 33.8217C31.4253 33.8866 31.5842 33.9231 31.75 33.9231C31.9158 33.9231 32.0747 33.8866 32.1919 33.8217C32.3092 33.7568 32.375 33.6687 32.375 33.5769C32.375 33.4851 32.3092 33.3971 32.1919 33.3322C32.0747 33.2672 31.9158 33.2308 31.75 33.2308ZM34.25 33.2308C34.0842 33.2308 33.9253 33.2672 33.8081 33.3322C33.6908 33.3971 33.625 33.4851 33.625 33.5769C33.625 33.6687 33.6908 33.7568 33.8081 33.8217C33.9253 33.8866 34.0842 33.9231 34.25 33.9231C34.4158 33.9231 34.5747 33.8866 34.6919 33.8217C34.8092 33.7568 34.875 33.6687 34.875 33.5769C34.875 33.4851 34.8092 33.3971 34.6919 33.3322C34.5747 33.2672 34.4158 33.2308 34.25 33.2308ZM36.75 33.2308C36.5842 33.2308 36.4253 33.2672 36.3081 33.3322C36.1908 33.3971 36.125 33.4851 36.125 33.5769C36.125 33.6687 36.1908 33.7568 36.3081 33.8217C36.4253 33.8866 36.5842 33.9231 36.75 33.9231C36.9158 33.9231 37.0747 33.8866 37.1919 33.8217C37.3092 33.7568 37.375 33.6687 37.375 33.5769C37.375 33.4851 37.3092 33.3971 37.1919 33.3322C37.0747 33.2672 36.9158 33.2308 36.75 33.2308ZM39.25 33.2308C39.0842 33.2308 38.9253 33.2672 38.8081 33.3322C38.6908 33.3971 38.625 33.4851 38.625 33.5769C38.625 33.6687 38.6908 33.7568 38.8081 33.8217C38.9253 33.8866 39.0842 33.9231 39.25 33.9231C39.4158 33.9231 39.5747 33.8866 39.6919 33.8217C39.8092 33.7568 39.875 33.6687 39.875 33.5769C39.875 33.4851 39.8092 33.3971 39.6919 33.3322C39.5747 33.2672 39.4158 33.2308 39.25 33.2308Z" fill="#D3D3D3"/>
<path d="M4.4688 16L23 0.649269L41.5312 16H4.4688Z" stroke="#D3D3D3"/>
</svg>
