<svg width="50" height="50" viewBox="0 0 50 50" fill="none" xmlns="http://www.w3.org/2000/svg">
<path d="M25 4.375C20.1758 4.375 16.25 8.30078 16.25 13.125V21.25H10.625V20H9.375V23.75H10.625V22.5H11.7749V26.1499C11.7749 32.8101 16.7139 38.3276 23.125 39.2383V41.875H19.375C18.0005 41.875 16.875 43.0005 16.875 44.375V45.625H33.125V44.375C33.125 43.0005 31.9995 41.875 30.625 41.875H26.875V39.2383C33.2861 38.3276 38.2251 32.8101 38.2251 26.1499V22.5H39.375V23.75H40.625V20H39.375V21.25H33.75V13.125C33.75 8.30078 29.8242 4.375 25 4.375ZM25 5.625C28.7256 5.625 31.7993 8.33008 32.3901 11.8848C32.0923 11.9385 31.875 12.1973 31.875 12.5C31.875 12.8442 32.1558 13.125 32.5 13.125V15.625C32.1558 15.625 31.875 15.9058 31.875 16.25C31.875 16.5942 32.1558 16.875 32.5 16.875V19.375C32.1558 19.375 31.875 19.6558 31.875 20C31.875 20.3442 32.1558 20.625 32.5 20.625V26.25C32.5 30.4004 29.1504 33.75 25 33.75C20.8496 33.75 17.5 30.4004 17.5 26.25V20.625C17.8442 20.625 18.125 20.3442 18.125 20C18.125 19.6558 17.8442 19.375 17.5 19.375V16.875C17.8442 16.875 18.125 16.5942 18.125 16.25C18.125 15.9058 17.8442 15.625 17.5 15.625V13.125C17.8442 13.125 18.125 12.8442 18.125 12.5C18.125 12.1973 17.9077 11.9385 17.6099 11.8848C18.2007 8.33008 21.2744 5.625 25 5.625ZM23.125 6.25C22.7808 6.25 22.5 6.53076 22.5 6.875C22.5 7.21924 22.7808 7.5 23.125 7.5C23.4692 7.5 23.75 7.21924 23.75 6.875C23.75 6.53076 23.4692 6.25 23.125 6.25ZM26.875 6.25C26.5308 6.25 26.25 6.53076 26.25 6.875C26.25 7.21924 26.5308 7.5 26.875 7.5C27.2192 7.5 27.5 7.21924 27.5 6.875C27.5 6.53076 27.2192 6.25 26.875 6.25ZM21.25 8.125C20.9058 8.125 20.625 8.40576 20.625 8.75C20.625 9.09424 20.9058 9.375 21.25 9.375C21.5942 9.375 21.875 9.09424 21.875 8.75C21.875 8.40576 21.5942 8.125 21.25 8.125ZM25 8.125C24.6558 8.125 24.375 8.40576 24.375 8.75C24.375 9.09424 24.6558 9.375 25 9.375C25.3442 9.375 25.625 9.09424 25.625 8.75C25.625 8.40576 25.3442 8.125 25 8.125ZM28.75 8.125C28.4058 8.125 28.125 8.40576 28.125 8.75C28.125 9.09424 28.4058 9.375 28.75 9.375C29.0942 9.375 29.375 9.09424 29.375 8.75C29.375 8.40576 29.0942 8.125 28.75 8.125ZM19.375 10C19.0308 10 18.75 10.2808 18.75 10.625C18.75 10.9692 19.0308 11.25 19.375 11.25C19.7192 11.25 20 10.9692 20 10.625C20 10.2808 19.7192 10 19.375 10ZM23.125 10C22.7808 10 22.5 10.2808 22.5 10.625C22.5 10.9692 22.7808 11.25 23.125 11.25C23.4692 11.25 23.75 10.9692 23.75 10.625C23.75 10.2808 23.4692 10 23.125 10ZM26.875 10C26.5308 10 26.25 10.2808 26.25 10.625C26.25 10.9692 26.5308 11.25 26.875 11.25C27.2192 11.25 27.5 10.9692 27.5 10.625C27.5 10.2808 27.2192 10 26.875 10ZM30.625 10C30.2808 10 30 10.2808 30 10.625C30 10.9692 30.2808 11.25 30.625 11.25C30.9692 11.25 31.25 10.9692 31.25 10.625C31.25 10.2808 30.9692 10 30.625 10ZM21.25 11.875C20.9058 11.875 20.625 12.1558 20.625 12.5C20.625 12.8442 20.9058 13.125 21.25 13.125C21.5942 13.125 21.875 12.8442 21.875 12.5C21.875 12.1558 21.5942 11.875 21.25 11.875ZM25 11.875C24.6558 11.875 24.375 12.1558 24.375 12.5C24.375 12.8442 24.6558 13.125 25 13.125C25.3442 13.125 25.625 12.8442 25.625 12.5C25.625 12.1558 25.3442 11.875 25 11.875ZM28.75 11.875C28.4058 11.875 28.125 12.1558 28.125 12.5C28.125 12.8442 28.4058 13.125 28.75 13.125C29.0942 13.125 29.375 12.8442 29.375 12.5C29.375 12.1558 29.0942 11.875 28.75 11.875ZM19.375 13.75C19.0308 13.75 18.75 14.0308 18.75 14.375C18.75 14.7192 19.0308 15 19.375 15C19.7192 15 20 14.7192 20 14.375C20 14.0308 19.7192 13.75 19.375 13.75ZM23.125 13.75C22.7808 13.75 22.5 14.0308 22.5 14.375C22.5 14.7192 22.7808 15 23.125 15C23.4692 15 23.75 14.7192 23.75 14.375C23.75 14.0308 23.4692 13.75 23.125 13.75ZM26.875 13.75C26.5308 13.75 26.25 14.0308 26.25 14.375C26.25 14.7192 26.5308 15 26.875 15C27.2192 15 27.5 14.7192 27.5 14.375C27.5 14.0308 27.2192 13.75 26.875 13.75ZM30.625 13.75C30.2808 13.75 30 14.0308 30 14.375C30 14.7192 30.2808 15 30.625 15C30.9692 15 31.25 14.7192 31.25 14.375C31.25 14.0308 30.9692 13.75 30.625 13.75ZM21.25 15.625C20.9058 15.625 20.625 15.9058 20.625 16.25C20.625 16.5942 20.9058 16.875 21.25 16.875C21.5942 16.875 21.875 16.5942 21.875 16.25C21.875 15.9058 21.5942 15.625 21.25 15.625ZM25 15.625C24.6558 15.625 24.375 15.9058 24.375 16.25C24.375 16.5942 24.6558 16.875 25 16.875C25.3442 16.875 25.625 16.5942 25.625 16.25C25.625 15.9058 25.3442 15.625 25 15.625ZM28.75 15.625C28.4058 15.625 28.125 15.9058 28.125 16.25C28.125 16.5942 28.4058 16.875 28.75 16.875C29.0942 16.875 29.375 16.5942 29.375 16.25C29.375 15.9058 29.0942 15.625 28.75 15.625ZM19.375 17.5C19.0308 17.5 18.75 17.7808 18.75 18.125C18.75 18.4692 19.0308 18.75 19.375 18.75C19.7192 18.75 20 18.4692 20 18.125C20 17.7808 19.7192 17.5 19.375 17.5ZM23.125 17.5C22.7808 17.5 22.5 17.7808 22.5 18.125C22.5 18.4692 22.7808 18.75 23.125 18.75C23.4692 18.75 23.75 18.4692 23.75 18.125C23.75 17.7808 23.4692 17.5 23.125 17.5ZM26.875 17.5C26.5308 17.5 26.25 17.7808 26.25 18.125C26.25 18.4692 26.5308 18.75 26.875 18.75C27.2192 18.75 27.5 18.4692 27.5 18.125C27.5 17.7808 27.2192 17.5 26.875 17.5ZM30.625 17.5C30.2808 17.5 30 17.7808 30 18.125C30 18.4692 30.2808 18.75 30.625 18.75C30.9692 18.75 31.25 18.4692 31.25 18.125C31.25 17.7808 30.9692 17.5 30.625 17.5ZM21.25 19.375C20.9058 19.375 20.625 19.6558 20.625 20C20.625 20.3442 20.9058 20.625 21.25 20.625C21.5942 20.625 21.875 20.3442 21.875 20C21.875 19.6558 21.5942 19.375 21.25 19.375ZM25 19.375C24.6558 19.375 24.375 19.6558 24.375 20C24.375 20.3442 24.6558 20.625 25 20.625C25.3442 20.625 25.625 20.3442 25.625 20C25.625 19.6558 25.3442 19.375 25 19.375ZM28.75 19.375C28.4058 19.375 28.125 19.6558 28.125 20C28.125 20.3442 28.4058 20.625 28.75 20.625C29.0942 20.625 29.375 20.3442 29.375 20C29.375 19.6558 29.0942 19.375 28.75 19.375ZM19.375 21.25C19.0308 21.25 18.75 21.5308 18.75 21.875C18.75 22.2192 19.0308 22.5 19.375 22.5C19.7192 22.5 20 22.2192 20 21.875C20 21.5308 19.7192 21.25 19.375 21.25ZM23.125 21.25C22.7808 21.25 22.5 21.5308 22.5 21.875C22.5 22.2192 22.7808 22.5 23.125 22.5C23.4692 22.5 23.75 22.2192 23.75 21.875C23.75 21.5308 23.4692 21.25 23.125 21.25ZM26.875 21.25C26.5308 21.25 26.25 21.5308 26.25 21.875C26.25 22.2192 26.5308 22.5 26.875 22.5C27.2192 22.5 27.5 22.2192 27.5 21.875C27.5 21.5308 27.2192 21.25 26.875 21.25ZM30.625 21.25C30.2808 21.25 30 21.5308 30 21.875C30 22.2192 30.2808 22.5 30.625 22.5C30.9692 22.5 31.25 22.2192 31.25 21.875C31.25 21.5308 30.9692 21.25 30.625 21.25ZM13.0249 22.5H16.25V26.25C16.25 31.0742 20.1758 35 25 35C29.8242 35 33.75 31.0742 33.75 26.25V22.5H36.9751V26.1499C36.9751 32.771 31.6211 38.125 25 38.125C18.3789 38.125 13.0249 32.771 13.0249 26.1499V22.5ZM25 26.25C24.3091 26.25 23.75 26.8091 23.75 27.5C23.75 28.1909 24.3091 28.75 25 28.75C25.6909 28.75 26.25 28.1909 26.25 27.5C26.25 26.8091 25.6909 26.25 25 26.25ZM24.375 39.375H25.625V41.875H24.375V39.375ZM19.375 43.125H30.625C31.3232 43.125 31.875 43.6768 31.875 44.375H18.125C18.125 43.6768 18.6768 43.125 19.375 43.125Z" fill="#D3D3D3"/>
</svg>
