<svg width="50" height="50" viewBox="0 0 50 50" fill="none" xmlns="http://www.w3.org/2000/svg">
<path d="M11.875 5.625C10.5017 5.625 9.375 6.75167 9.375 8.125V9.375H7.5C6.12667 9.375 5 10.5017 5 11.875V35.625C5 36.9983 6.12667 38.125 7.5 38.125H10.9167C10.6373 39.9757 10.3067 41.1775 10.0183 41.9592C9.68904 42.8519 9.375 43.4624 9.375 44.375V45H10C12.5149 45 14.7788 43.1386 16.4673 41.3696C17.9343 39.8327 18.8275 38.5009 19.0747 38.125H38.75C40.1233 38.125 41.25 36.9983 41.25 35.625V33.75H42.5C43.8733 33.75 45 32.6233 45 31.25V8.125C45 6.75167 43.8733 5.625 42.5 5.625H11.875ZM11.875 6.875H42.5C43.1979 6.875 43.75 7.42708 43.75 8.125V31.25C43.75 31.9479 43.1979 32.5 42.5 32.5H41.25V11.875C41.25 10.5017 40.1233 9.375 38.75 9.375H10.625V8.125C10.625 7.42708 11.1771 6.875 11.875 6.875ZM7.5 10.625H38.75C39.4479 10.625 40 11.1771 40 11.875V35.625C40 36.3229 39.4479 36.875 38.75 36.875H18.407L18.2227 37.1643C18.2227 37.1643 17.1567 38.8368 15.564 40.5054C14.2077 41.9262 12.4825 43.2184 10.8496 43.5889C10.945 43.2437 10.9787 42.9658 11.1902 42.3926C11.5406 41.4426 11.9744 40.0391 12.2815 37.5769L12.3694 36.875H7.5C6.80208 36.875 6.25 36.3229 6.25 35.625V11.875C6.25 11.7878 6.25918 11.703 6.27563 11.6211C6.39085 11.0479 6.88932 10.625 7.5 10.625ZM9.375 13.125C9.20924 13.125 9.05027 13.1908 8.93306 13.3081C8.81585 13.4253 8.75 13.5842 8.75 13.75C8.75 13.9158 8.81585 14.0747 8.93306 14.1919C9.05027 14.3092 9.20924 14.375 9.375 14.375C9.54076 14.375 9.69973 14.3092 9.81694 14.1919C9.93415 14.0747 10 13.9158 10 13.75C10 13.5842 9.93415 13.4253 9.81694 13.3081C9.69973 13.1908 9.54076 13.125 9.375 13.125ZM11.875 13.125C11.7092 13.125 11.5503 13.1908 11.4331 13.3081C11.3158 13.4253 11.25 13.5842 11.25 13.75C11.25 13.9158 11.3158 14.0747 11.4331 14.1919C11.5503 14.3092 11.7092 14.375 11.875 14.375C12.0408 14.375 12.1997 14.3092 12.3169 14.1919C12.4342 14.0747 12.5 13.9158 12.5 13.75C12.5 13.5842 12.4342 13.4253 12.3169 13.3081C12.1997 13.1908 12.0408 13.125 11.875 13.125ZM14.375 13.125C14.2092 13.125 14.0503 13.1908 13.9331 13.3081C13.8158 13.4253 13.75 13.5842 13.75 13.75C13.75 13.9158 13.8158 14.0747 13.9331 14.1919C14.0503 14.3092 14.2092 14.375 14.375 14.375C14.5408 14.375 14.6997 14.3092 14.8169 14.1919C14.9342 14.0747 15 13.9158 15 13.75C15 13.5842 14.9342 13.4253 14.8169 13.3081C14.6997 13.1908 14.5408 13.125 14.375 13.125ZM16.875 13.125C16.7092 13.125 16.5503 13.1908 16.4331 13.3081C16.3158 13.4253 16.25 13.5842 16.25 13.75C16.25 13.9158 16.3158 14.0747 16.4331 14.1919C16.5503 14.3092 16.7092 14.375 16.875 14.375C17.0408 14.375 17.1997 14.3092 17.3169 14.1919C17.4342 14.0747 17.5 13.9158 17.5 13.75C17.5 13.5842 17.4342 13.4253 17.3169 13.3081C17.1997 13.1908 17.0408 13.125 16.875 13.125ZM19.375 13.125C19.2092 13.125 19.0503 13.1908 18.9331 13.3081C18.8158 13.4253 18.75 13.5842 18.75 13.75C18.75 13.9158 18.8158 14.0747 18.9331 14.1919C19.0503 14.3092 19.2092 14.375 19.375 14.375C19.5408 14.375 19.6997 14.3092 19.8169 14.1919C19.9342 14.0747 20 13.9158 20 13.75C20 13.5842 19.9342 13.4253 19.8169 13.3081C19.6997 13.1908 19.5408 13.125 19.375 13.125ZM21.875 13.125C21.7092 13.125 21.5503 13.1908 21.4331 13.3081C21.3158 13.4253 21.25 13.5842 21.25 13.75C21.25 13.9158 21.3158 14.0747 21.4331 14.1919C21.5503 14.3092 21.7092 14.375 21.875 14.375C22.0408 14.375 22.1997 14.3092 22.3169 14.1919C22.4342 14.0747 22.5 13.9158 22.5 13.75C22.5 13.5842 22.4342 13.4253 22.3169 13.3081C22.1997 13.1908 22.0408 13.125 21.875 13.125ZM24.375 13.125C24.2092 13.125 24.0503 13.1908 23.9331 13.3081C23.8158 13.4253 23.75 13.5842 23.75 13.75C23.75 13.9158 23.8158 14.0747 23.9331 14.1919C24.0503 14.3092 24.2092 14.375 24.375 14.375C24.5408 14.375 24.6997 14.3092 24.8169 14.1919C24.9342 14.0747 25 13.9158 25 13.75C25 13.5842 24.9342 13.4253 24.8169 13.3081C24.6997 13.1908 24.5408 13.125 24.375 13.125ZM26.875 13.125C26.7092 13.125 26.5503 13.1908 26.4331 13.3081C26.3158 13.4253 26.25 13.5842 26.25 13.75C26.25 13.9158 26.3158 14.0747 26.4331 14.1919C26.5503 14.3092 26.7092 14.375 26.875 14.375C27.0408 14.375 27.1997 14.3092 27.3169 14.1919C27.4342 14.0747 27.5 13.9158 27.5 13.75C27.5 13.5842 27.4342 13.4253 27.3169 13.3081C27.1997 13.1908 27.0408 13.125 26.875 13.125ZM29.375 13.125C29.2092 13.125 29.0503 13.1908 28.9331 13.3081C28.8158 13.4253 28.75 13.5842 28.75 13.75C28.75 13.9158 28.8158 14.0747 28.9331 14.1919C29.0503 14.3092 29.2092 14.375 29.375 14.375C29.5408 14.375 29.6997 14.3092 29.8169 14.1919C29.9342 14.0747 30 13.9158 30 13.75C30 13.5842 29.9342 13.4253 29.8169 13.3081C29.6997 13.1908 29.5408 13.125 29.375 13.125ZM31.875 13.125C31.7092 13.125 31.5503 13.1908 31.4331 13.3081C31.3158 13.4253 31.25 13.5842 31.25 13.75C31.25 13.9158 31.3158 14.0747 31.4331 14.1919C31.5503 14.3092 31.7092 14.375 31.875 14.375C32.0408 14.375 32.1997 14.3092 32.3169 14.1919C32.4342 14.0747 32.5 13.9158 32.5 13.75C32.5 13.5842 32.4342 13.4253 32.3169 13.3081C32.1997 13.1908 32.0408 13.125 31.875 13.125ZM34.375 13.125C34.2092 13.125 34.0503 13.1908 33.9331 13.3081C33.8158 13.4253 33.75 13.5842 33.75 13.75C33.75 13.9158 33.8158 14.0747 33.9331 14.1919C34.0503 14.3092 34.2092 14.375 34.375 14.375C34.5408 14.375 34.6997 14.3092 34.8169 14.1919C34.9342 14.0747 35 13.9158 35 13.75C35 13.5842 34.9342 13.4253 34.8169 13.3081C34.6997 13.1908 34.5408 13.125 34.375 13.125ZM36.875 13.125C36.7092 13.125 36.5503 13.1908 36.4331 13.3081C36.3158 13.4253 36.25 13.5842 36.25 13.75C36.25 13.9158 36.3158 14.0747 36.4331 14.1919C36.5503 14.3092 36.7092 14.375 36.875 14.375C37.0408 14.375 37.1997 14.3092 37.3169 14.1919C37.4342 14.0747 37.5 13.9158 37.5 13.75C37.5 13.5842 37.4342 13.4253 37.3169 13.3081C37.1997 13.1908 37.0408 13.125 36.875 13.125ZM9.375 15.625C9.20924 15.625 9.05027 15.6908 8.93306 15.8081C8.81585 15.9253 8.75 16.0842 8.75 16.25C8.75 16.4158 8.81585 16.5747 8.93306 16.6919C9.05027 16.8092 9.20924 16.875 9.375 16.875C9.54076 16.875 9.69973 16.8092 9.81694 16.6919C9.93415 16.5747 10 16.4158 10 16.25C10 16.0842 9.93415 15.9253 9.81694 15.8081C9.69973 15.6908 9.54076 15.625 9.375 15.625ZM36.875 15.625C36.7092 15.625 36.5503 15.6908 36.4331 15.8081C36.3158 15.9253 36.25 16.0842 36.25 16.25C36.25 16.4158 36.3158 16.5747 36.4331 16.6919C36.5503 16.8092 36.7092 16.875 36.875 16.875C37.0408 16.875 37.1997 16.8092 37.3169 16.6919C37.4342 16.5747 37.5 16.4158 37.5 16.25C37.5 16.0842 37.4342 15.9253 37.3169 15.8081C37.1997 15.6908 37.0408 15.625 36.875 15.625ZM9.375 18.125C9.20924 18.125 9.05027 18.1908 8.93306 18.3081C8.81585 18.4253 8.75 18.5842 8.75 18.75C8.75 18.9158 8.81585 19.0747 8.93306 19.1919C9.05027 19.3092 9.20924 19.375 9.375 19.375C9.54076 19.375 9.69973 19.3092 9.81694 19.1919C9.93415 19.0747 10 18.9158 10 18.75C10 18.5842 9.93415 18.4253 9.81694 18.3081C9.69973 18.1908 9.54076 18.125 9.375 18.125ZM36.875 18.125C36.7092 18.125 36.5503 18.1908 36.4331 18.3081C36.3158 18.4253 36.25 18.5842 36.25 18.75C36.25 18.9158 36.3158 19.0747 36.4331 19.1919C36.5503 19.3092 36.7092 19.375 36.875 19.375C37.0408 19.375 37.1997 19.3092 37.3169 19.1919C37.4342 19.0747 37.5 18.9158 37.5 18.75C37.5 18.5842 37.4342 18.4253 37.3169 18.3081C37.1997 18.1908 37.0408 18.125 36.875 18.125ZM9.375 20.625C9.20924 20.625 9.05027 20.6908 8.93306 20.8081C8.81585 20.9253 8.75 21.0842 8.75 21.25C8.75 21.4158 8.81585 21.5747 8.93306 21.6919C9.05027 21.8092 9.20924 21.875 9.375 21.875C9.54076 21.875 9.69973 21.8092 9.81694 21.6919C9.93415 21.5747 10 21.4158 10 21.25C10 21.0842 9.93415 20.9253 9.81694 20.8081C9.69973 20.6908 9.54076 20.625 9.375 20.625ZM36.875 20.625C36.7092 20.625 36.5503 20.6908 36.4331 20.8081C36.3158 20.9253 36.25 21.0842 36.25 21.25C36.25 21.4158 36.3158 21.5747 36.4331 21.6919C36.5503 21.8092 36.7092 21.875 36.875 21.875C37.0408 21.875 37.1997 21.8092 37.3169 21.6919C37.4342 21.5747 37.5 21.4158 37.5 21.25C37.5 21.0842 37.4342 20.9253 37.3169 20.8081C37.1997 20.6908 37.0408 20.625 36.875 20.625ZM9.375 23.125C9.20924 23.125 9.05027 23.1908 8.93306 23.3081C8.81585 23.4253 8.75 23.5842 8.75 23.75C8.75 23.9158 8.81585 24.0747 8.93306 24.1919C9.05027 24.3092 9.20924 24.375 9.375 24.375C9.54076 24.375 9.69973 24.3092 9.81694 24.1919C9.93415 24.0747 10 23.9158 10 23.75C10 23.5842 9.93415 23.4253 9.81694 23.3081C9.69973 23.1908 9.54076 23.125 9.375 23.125ZM36.875 23.125C36.7092 23.125 36.5503 23.1908 36.4331 23.3081C36.3158 23.4253 36.25 23.5842 36.25 23.75C36.25 23.9158 36.3158 24.0747 36.4331 24.1919C36.5503 24.3092 36.7092 24.375 36.875 24.375C37.0408 24.375 37.1997 24.3092 37.3169 24.1919C37.4342 24.0747 37.5 23.9158 37.5 23.75C37.5 23.5842 37.4342 23.4253 37.3169 23.3081C37.1997 23.1908 37.0408 23.125 36.875 23.125ZM9.375 25.625C9.20924 25.625 9.05027 25.6908 8.93306 25.8081C8.81585 25.9253 8.75 26.0842 8.75 26.25C8.75 26.4158 8.81585 26.5747 8.93306 26.6919C9.05027 26.8092 9.20924 26.875 9.375 26.875C9.54076 26.875 9.69973 26.8092 9.81694 26.6919C9.93415 26.5747 10 26.4158 10 26.25C10 26.0842 9.93415 25.9253 9.81694 25.8081C9.69973 25.6908 9.54076 25.625 9.375 25.625ZM36.875 25.625C36.7092 25.625 36.5503 25.6908 36.4331 25.8081C36.3158 25.9253 36.25 26.0842 36.25 26.25C36.25 26.4158 36.3158 26.5747 36.4331 26.6919C36.5503 26.8092 36.7092 26.875 36.875 26.875C37.0408 26.875 37.1997 26.8092 37.3169 26.6919C37.4342 26.5747 37.5 26.4158 37.5 26.25C37.5 26.0842 37.4342 25.9253 37.3169 25.8081C37.1997 25.6908 37.0408 25.625 36.875 25.625ZM9.375 28.125C9.20924 28.125 9.05027 28.1908 8.93306 28.3081C8.81585 28.4253 8.75 28.5842 8.75 28.75C8.75 28.9158 8.81585 29.0747 8.93306 29.1919C9.05027 29.3092 9.20924 29.375 9.375 29.375C9.54076 29.375 9.69973 29.3092 9.81694 29.1919C9.93415 29.0747 10 28.9158 10 28.75C10 28.5842 9.93415 28.4253 9.81694 28.3081C9.69973 28.1908 9.54076 28.125 9.375 28.125ZM36.875 28.125C36.7092 28.125 36.5503 28.1908 36.4331 28.3081C36.3158 28.4253 36.25 28.5842 36.25 28.75C36.25 28.9158 36.3158 29.0747 36.4331 29.1919C36.5503 29.3092 36.7092 29.375 36.875 29.375C37.0408 29.375 37.1997 29.3092 37.3169 29.1919C37.4342 29.0747 37.5 28.9158 37.5 28.75C37.5 28.5842 37.4342 28.4253 37.3169 28.3081C37.1997 28.1908 37.0408 28.125 36.875 28.125ZM9.375 30.625C9.20924 30.625 9.05027 30.6908 8.93306 30.8081C8.81585 30.9253 8.75 31.0842 8.75 31.25C8.75 31.4158 8.81585 31.5747 8.93306 31.6919C9.05027 31.8092 9.20924 31.875 9.375 31.875C9.54076 31.875 9.69973 31.8092 9.81694 31.6919C9.93415 31.5747 10 31.4158 10 31.25C10 31.0842 9.93415 30.9253 9.81694 30.8081C9.69973 30.6908 9.54076 30.625 9.375 30.625ZM36.875 30.625C36.7092 30.625 36.5503 30.6908 36.4331 30.8081C36.3158 30.9253 36.25 31.0842 36.25 31.25C36.25 31.4158 36.3158 31.5747 36.4331 31.6919C36.5503 31.8092 36.7092 31.875 36.875 31.875C37.0408 31.875 37.1997 31.8092 37.3169 31.6919C37.4342 31.5747 37.5 31.4158 37.5 31.25C37.5 31.0842 37.4342 30.9253 37.3169 30.8081C37.1997 30.6908 37.0408 30.625 36.875 30.625ZM9.375 33.125C9.20924 33.125 9.05027 33.1908 8.93306 33.3081C8.81585 33.4253 8.75 33.5842 8.75 33.75C8.75 33.9158 8.81585 34.0747 8.93306 34.1919C9.05027 34.3092 9.20924 34.375 9.375 34.375C9.54076 34.375 9.69973 34.3092 9.81694 34.1919C9.93415 34.0747 10 33.9158 10 33.75C10 33.5842 9.93415 33.4253 9.81694 33.3081C9.69973 33.1908 9.54076 33.125 9.375 33.125ZM11.875 33.125C11.7092 33.125 11.5503 33.1908 11.4331 33.3081C11.3158 33.4253 11.25 33.5842 11.25 33.75C11.25 33.9158 11.3158 34.0747 11.4331 34.1919C11.5503 34.3092 11.7092 34.375 11.875 34.375C12.0408 34.375 12.1997 34.3092 12.3169 34.1919C12.4342 34.0747 12.5 33.9158 12.5 33.75C12.5 33.5842 12.4342 33.4253 12.3169 33.3081C12.1997 33.1908 12.0408 33.125 11.875 33.125ZM21.875 33.125C21.7092 33.125 21.5503 33.1908 21.4331 33.3081C21.3158 33.4253 21.25 33.5842 21.25 33.75C21.25 33.9158 21.3158 34.0747 21.4331 34.1919C21.5503 34.3092 21.7092 34.375 21.875 34.375C22.0408 34.375 22.1997 34.3092 22.3169 34.1919C22.4342 34.0747 22.5 33.9158 22.5 33.75C22.5 33.5842 22.4342 33.4253 22.3169 33.3081C22.1997 33.1908 22.0408 33.125 21.875 33.125ZM24.375 33.125C24.2092 33.125 24.0503 33.1908 23.9331 33.3081C23.8158 33.4253 23.75 33.5842 23.75 33.75C23.75 33.9158 23.8158 34.0747 23.9331 34.1919C24.0503 34.3092 24.2092 34.375 24.375 34.375C24.5408 34.375 24.6997 34.3092 24.8169 34.1919C24.9342 34.0747 25 33.9158 25 33.75C25 33.5842 24.9342 33.4253 24.8169 33.3081C24.6997 33.1908 24.5408 33.125 24.375 33.125ZM26.875 33.125C26.7092 33.125 26.5503 33.1908 26.4331 33.3081C26.3158 33.4253 26.25 33.5842 26.25 33.75C26.25 33.9158 26.3158 34.0747 26.4331 34.1919C26.5503 34.3092 26.7092 34.375 26.875 34.375C27.0408 34.375 27.1997 34.3092 27.3169 34.1919C27.4342 34.0747 27.5 33.9158 27.5 33.75C27.5 33.5842 27.4342 33.4253 27.3169 33.3081C27.1997 33.1908 27.0408 33.125 26.875 33.125ZM29.375 33.125C29.2092 33.125 29.0503 33.1908 28.9331 33.3081C28.8158 33.4253 28.75 33.5842 28.75 33.75C28.75 33.9158 28.8158 34.0747 28.9331 34.1919C29.0503 34.3092 29.2092 34.375 29.375 34.375C29.5408 34.375 29.6997 34.3092 29.8169 34.1919C29.9342 34.0747 30 33.9158 30 33.75C30 33.5842 29.9342 33.4253 29.8169 33.3081C29.6997 33.1908 29.5408 33.125 29.375 33.125ZM31.875 33.125C31.7092 33.125 31.5503 33.1908 31.4331 33.3081C31.3158 33.4253 31.25 33.5842 31.25 33.75C31.25 33.9158 31.3158 34.0747 31.4331 34.1919C31.5503 34.3092 31.7092 34.375 31.875 34.375C32.0408 34.375 32.1997 34.3092 32.3169 34.1919C32.4342 34.0747 32.5 33.9158 32.5 33.75C32.5 33.5842 32.4342 33.4253 32.3169 33.3081C32.1997 33.1908 32.0408 33.125 31.875 33.125ZM34.375 33.125C34.2092 33.125 34.0503 33.1908 33.9331 33.3081C33.8158 33.4253 33.75 33.5842 33.75 33.75C33.75 33.9158 33.8158 34.0747 33.9331 34.1919C34.0503 34.3092 34.2092 34.375 34.375 34.375C34.5408 34.375 34.6997 34.3092 34.8169 34.1919C34.9342 34.0747 35 33.9158 35 33.75C35 33.5842 34.9342 33.4253 34.8169 33.3081C34.6997 33.1908 34.5408 33.125 34.375 33.125ZM36.875 33.125C36.7092 33.125 36.5503 33.1908 36.4331 33.3081C36.3158 33.4253 36.25 33.5842 36.25 33.75C36.25 33.9158 36.3158 34.0747 36.4331 34.1919C36.5503 34.3092 36.7092 34.375 36.875 34.375C37.0408 34.375 37.1997 34.3092 37.3169 34.1919C37.4342 34.0747 37.5 33.9158 37.5 33.75C37.5 33.5842 37.4342 33.4253 37.3169 33.3081C37.1997 33.1908 37.0408 33.125 36.875 33.125Z" fill="#D3D3D3"/>
</svg>
