<svg width="50" height="50" viewBox="0 0 50 50" fill="none" xmlns="http://www.w3.org/2000/svg">
<path d="M25 3.125C23.6255 3.125 22.5 4.25049 22.5 5.625V6.54297C18.1738 7.5293 14.7729 11.0107 13.9453 15.4443C13.0615 15.918 12.3755 16.7334 12.2632 17.7905L10.3394 35.5762C10.1831 37.0312 8.9624 38.125 7.5 38.125H6.875V41.875H20.625C20.625 44.2847 22.5903 46.25 25 46.25C27.4097 46.25 29.375 44.2847 29.375 41.875H43.125V38.125H42.5C41.0376 38.125 39.8169 37.0312 39.6606 35.5762L37.7368 17.7905C37.6245 16.7334 36.9385 15.918 36.0547 15.4443C35.2271 11.0107 31.8262 7.5293 27.5 6.54297V5.625C27.5 4.25049 26.3745 3.125 25 3.125ZM25 4.375C25.6982 4.375 26.25 4.92676 26.25 5.625V6.32812C25.8398 6.28174 25.4224 6.25 25 6.25C24.5776 6.25 24.1602 6.28174 23.75 6.32812V5.625C23.75 4.92676 24.3018 4.375 25 4.375ZM25 7.5C29.9536 7.5 34.0991 11.0986 34.8828 15.8862L34.9438 16.2427L35.2832 16.3696C35.9326 16.6113 36.416 17.1973 36.4941 17.9224L38.418 35.7104C38.4399 35.9106 38.4814 36.1011 38.5327 36.2891C38.2861 36.3818 38.125 36.6138 38.125 36.875C38.125 37.2192 38.4058 37.5 38.75 37.5C38.8501 37.5 38.9502 37.4756 39.0405 37.4292C39.668 38.3936 40.6934 39.0674 41.875 39.2578V40.625H8.125V39.2578C9.30664 39.0674 10.332 38.3936 10.9595 37.4292C11.0498 37.4756 11.1499 37.5 11.25 37.5C11.5942 37.5 11.875 37.2192 11.875 36.875C11.875 36.6138 11.7139 36.3818 11.4673 36.2891C11.5186 36.1011 11.5601 35.9106 11.582 35.7104L13.5059 17.9224C13.584 17.1973 14.0674 16.6113 14.7168 16.3696L15.0562 16.2427L15.1172 15.8862C15.9009 11.0986 20.0464 7.5 25 7.5ZM16.25 15C15.9058 15 15.625 15.2808 15.625 15.625C15.625 15.9692 15.9058 16.25 16.25 16.25C16.5942 16.25 16.875 15.9692 16.875 15.625C16.875 15.2808 16.5942 15 16.25 15ZM18.75 15C18.4058 15 18.125 15.2808 18.125 15.625C18.125 15.9692 18.4058 16.25 18.75 16.25C19.0942 16.25 19.375 15.9692 19.375 15.625C19.375 15.2808 19.0942 15 18.75 15ZM21.25 15C20.9058 15 20.625 15.2808 20.625 15.625C20.625 15.9692 20.9058 16.25 21.25 16.25C21.5942 16.25 21.875 15.9692 21.875 15.625C21.875 15.2808 21.5942 15 21.25 15ZM23.75 15C23.4058 15 23.125 15.2808 23.125 15.625C23.125 15.9692 23.4058 16.25 23.75 16.25C24.0942 16.25 24.375 15.9692 24.375 15.625C24.375 15.2808 24.0942 15 23.75 15ZM26.25 15C25.9058 15 25.625 15.2808 25.625 15.625C25.625 15.9692 25.9058 16.25 26.25 16.25C26.5942 16.25 26.875 15.9692 26.875 15.625C26.875 15.2808 26.5942 15 26.25 15ZM28.75 15C28.4058 15 28.125 15.2808 28.125 15.625C28.125 15.9692 28.4058 16.25 28.75 16.25C29.0942 16.25 29.375 15.9692 29.375 15.625C29.375 15.2808 29.0942 15 28.75 15ZM31.25 15C30.9058 15 30.625 15.2808 30.625 15.625C30.625 15.9692 30.9058 16.25 31.25 16.25C31.5942 16.25 31.875 15.9692 31.875 15.625C31.875 15.2808 31.5942 15 31.25 15ZM33.75 15C33.4058 15 33.125 15.2808 33.125 15.625C33.125 15.9692 33.4058 16.25 33.75 16.25C34.0942 16.25 34.375 15.9692 34.375 15.625C34.375 15.2808 34.0942 15 33.75 15ZM13.75 36.25C13.4058 36.25 13.125 36.5308 13.125 36.875C13.125 37.2192 13.4058 37.5 13.75 37.5C14.0942 37.5 14.375 37.2192 14.375 36.875C14.375 36.5308 14.0942 36.25 13.75 36.25ZM16.25 36.25C15.9058 36.25 15.625 36.5308 15.625 36.875C15.625 37.2192 15.9058 37.5 16.25 37.5C16.5942 37.5 16.875 37.2192 16.875 36.875C16.875 36.5308 16.5942 36.25 16.25 36.25ZM18.75 36.25C18.4058 36.25 18.125 36.5308 18.125 36.875C18.125 37.2192 18.4058 37.5 18.75 37.5C19.0942 37.5 19.375 37.2192 19.375 36.875C19.375 36.5308 19.0942 36.25 18.75 36.25ZM21.25 36.25C20.9058 36.25 20.625 36.5308 20.625 36.875C20.625 37.2192 20.9058 37.5 21.25 37.5C21.5942 37.5 21.875 37.2192 21.875 36.875C21.875 36.5308 21.5942 36.25 21.25 36.25ZM23.75 36.25C23.4058 36.25 23.125 36.5308 23.125 36.875C23.125 37.2192 23.4058 37.5 23.75 37.5C24.0942 37.5 24.375 37.2192 24.375 36.875C24.375 36.5308 24.0942 36.25 23.75 36.25ZM26.25 36.25C25.9058 36.25 25.625 36.5308 25.625 36.875C25.625 37.2192 25.9058 37.5 26.25 37.5C26.5942 37.5 26.875 37.2192 26.875 36.875C26.875 36.5308 26.5942 36.25 26.25 36.25ZM28.75 36.25C28.4058 36.25 28.125 36.5308 28.125 36.875C28.125 37.2192 28.4058 37.5 28.75 37.5C29.0942 37.5 29.375 37.2192 29.375 36.875C29.375 36.5308 29.0942 36.25 28.75 36.25ZM31.25 36.25C30.9058 36.25 30.625 36.5308 30.625 36.875C30.625 37.2192 30.9058 37.5 31.25 37.5C31.5942 37.5 31.875 37.2192 31.875 36.875C31.875 36.5308 31.5942 36.25 31.25 36.25ZM33.75 36.25C33.4058 36.25 33.125 36.5308 33.125 36.875C33.125 37.2192 33.4058 37.5 33.75 37.5C34.0942 37.5 34.375 37.2192 34.375 36.875C34.375 36.5308 34.0942 36.25 33.75 36.25ZM36.25 36.25C35.9058 36.25 35.625 36.5308 35.625 36.875C35.625 37.2192 35.9058 37.5 36.25 37.5C36.5942 37.5 36.875 37.2192 36.875 36.875C36.875 36.5308 36.5942 36.25 36.25 36.25ZM21.875 41.875H28.125C28.125 43.6084 26.7334 45 25 45C23.2666 45 21.875 43.6084 21.875 41.875Z" fill="#D3D3D3"/>
</svg>
