<svg width="50" height="50" viewBox="0 0 50 50" fill="none" xmlns="http://www.w3.org/2000/svg">
<path d="M25 3.125C23.6267 3.125 22.5 4.25167 22.5 5.625V6.54175C18.1741 7.52935 14.7737 11.011 13.9441 15.4443C13.0614 15.918 12.376 16.734 12.262 17.7893L10.3394 35.5762C10.1824 37.0314 8.96353 38.125 7.5 38.125H6.875V41.875H20.625C20.625 44.284 22.591 46.25 25 46.25C27.409 46.25 29.375 44.284 29.375 41.875H43.125V38.125H42.5C41.0365 38.125 39.8176 37.0314 39.6606 35.5762L37.738 17.7893C37.624 16.734 36.9386 15.918 36.0559 15.4443C35.2263 11.011 31.8259 7.52935 27.5 6.54175V5.625C27.5 4.25167 26.3733 3.125 25 3.125ZM25 4.375C25.6979 4.375 26.25 4.92708 26.25 5.625V6.3269C25.8386 6.28111 25.4231 6.25 25 6.25C24.5769 6.25 24.1614 6.28111 23.75 6.3269V5.625C23.75 4.92708 24.3021 4.375 25 4.375ZM25 7.5C29.9544 7.5 34.0979 11.0989 34.884 15.8862L34.9438 16.2439L35.2832 16.3696C35.9319 16.6112 36.4167 17.196 36.4954 17.9236L38.418 35.7104C38.4395 35.9103 38.4821 36.1019 38.5315 36.2903C38.4123 36.3348 38.3095 36.4146 38.2368 36.5191C38.1642 36.6236 38.1252 36.7477 38.125 36.875C38.125 37.0408 38.1908 37.1997 38.3081 37.3169C38.4253 37.4342 38.5842 37.5 38.75 37.5C38.8508 37.4997 38.9501 37.475 39.0393 37.428C39.6668 38.3928 40.6926 39.0678 41.875 39.2566V40.625H8.125V39.2566C9.30739 39.0678 10.3332 38.3928 10.9607 37.428C11.0499 37.475 11.1492 37.4997 11.25 37.5C11.4158 37.5 11.5747 37.4342 11.6919 37.3169C11.8092 37.1997 11.875 37.0408 11.875 36.875C11.8748 36.7477 11.8358 36.6236 11.7632 36.5191C11.6905 36.4146 11.5877 36.3348 11.4685 36.2903C11.5179 36.1019 11.5605 35.9103 11.582 35.7104L13.5046 17.9236C13.5833 17.196 14.0681 16.6112 14.7168 16.3696L15.0562 16.2439L15.116 15.8862C15.9021 11.0989 20.0456 7.5 25 7.5ZM16.25 15C16.0842 15 15.9253 15.0658 15.8081 15.1831C15.6908 15.3003 15.625 15.4592 15.625 15.625C15.625 15.7908 15.6908 15.9497 15.8081 16.0669C15.9253 16.1842 16.0842 16.25 16.25 16.25C16.4158 16.25 16.5747 16.1842 16.6919 16.0669C16.8092 15.9497 16.875 15.7908 16.875 15.625C16.875 15.4592 16.8092 15.3003 16.6919 15.1831C16.5747 15.0658 16.4158 15 16.25 15ZM18.75 15C18.5842 15 18.4253 15.0658 18.3081 15.1831C18.1908 15.3003 18.125 15.4592 18.125 15.625C18.125 15.7908 18.1908 15.9497 18.3081 16.0669C18.4253 16.1842 18.5842 16.25 18.75 16.25C18.9158 16.25 19.0747 16.1842 19.1919 16.0669C19.3092 15.9497 19.375 15.7908 19.375 15.625C19.375 15.4592 19.3092 15.3003 19.1919 15.1831C19.0747 15.0658 18.9158 15 18.75 15ZM21.25 15C21.0842 15 20.9253 15.0658 20.8081 15.1831C20.6908 15.3003 20.625 15.4592 20.625 15.625C20.625 15.7908 20.6908 15.9497 20.8081 16.0669C20.9253 16.1842 21.0842 16.25 21.25 16.25C21.4158 16.25 21.5747 16.1842 21.6919 16.0669C21.8092 15.9497 21.875 15.7908 21.875 15.625C21.875 15.4592 21.8092 15.3003 21.6919 15.1831C21.5747 15.0658 21.4158 15 21.25 15ZM23.75 15C23.5842 15 23.4253 15.0658 23.3081 15.1831C23.1908 15.3003 23.125 15.4592 23.125 15.625C23.125 15.7908 23.1908 15.9497 23.3081 16.0669C23.4253 16.1842 23.5842 16.25 23.75 16.25C23.9158 16.25 24.0747 16.1842 24.1919 16.0669C24.3092 15.9497 24.375 15.7908 24.375 15.625C24.375 15.4592 24.3092 15.3003 24.1919 15.1831C24.0747 15.0658 23.9158 15 23.75 15ZM26.25 15C26.0842 15 25.9253 15.0658 25.8081 15.1831C25.6908 15.3003 25.625 15.4592 25.625 15.625C25.625 15.7908 25.6908 15.9497 25.8081 16.0669C25.9253 16.1842 26.0842 16.25 26.25 16.25C26.4158 16.25 26.5747 16.1842 26.6919 16.0669C26.8092 15.9497 26.875 15.7908 26.875 15.625C26.875 15.4592 26.8092 15.3003 26.6919 15.1831C26.5747 15.0658 26.4158 15 26.25 15ZM28.75 15C28.5842 15 28.4253 15.0658 28.3081 15.1831C28.1908 15.3003 28.125 15.4592 28.125 15.625C28.125 15.7908 28.1908 15.9497 28.3081 16.0669C28.4253 16.1842 28.5842 16.25 28.75 16.25C28.9158 16.25 29.0747 16.1842 29.1919 16.0669C29.3092 15.9497 29.375 15.7908 29.375 15.625C29.375 15.4592 29.3092 15.3003 29.1919 15.1831C29.0747 15.0658 28.9158 15 28.75 15ZM31.25 15C31.0842 15 30.9253 15.0658 30.8081 15.1831C30.6908 15.3003 30.625 15.4592 30.625 15.625C30.625 15.7908 30.6908 15.9497 30.8081 16.0669C30.9253 16.1842 31.0842 16.25 31.25 16.25C31.4158 16.25 31.5747 16.1842 31.6919 16.0669C31.8092 15.9497 31.875 15.7908 31.875 15.625C31.875 15.4592 31.8092 15.3003 31.6919 15.1831C31.5747 15.0658 31.4158 15 31.25 15ZM33.75 15C33.5842 15 33.4253 15.0658 33.3081 15.1831C33.1908 15.3003 33.125 15.4592 33.125 15.625C33.125 15.7908 33.1908 15.9497 33.3081 16.0669C33.4253 16.1842 33.5842 16.25 33.75 16.25C33.9158 16.25 34.0747 16.1842 34.1919 16.0669C34.3092 15.9497 34.375 15.7908 34.375 15.625C34.375 15.4592 34.3092 15.3003 34.1919 15.1831C34.0747 15.0658 33.9158 15 33.75 15ZM7.79297 17.4634L7.34497 17.7991L7.28394 18.0115L7.27661 18.0725L7.47314 18.5974L8.01025 18.7549L8.45825 18.4192L8.51929 18.208L8.52661 18.1458L8.3313 17.6208L7.79297 17.4634ZM41.8542 17.5012L41.4893 17.926L41.4734 18.1458L41.4807 18.208L41.7834 18.678L42.3425 18.717L42.7075 18.2935L42.7234 18.0725L42.7161 18.0115L42.4133 17.5403L41.8542 17.5012ZM7.51831 20.011L7.07031 20.3467L7.00806 20.5591L7.00195 20.6213L7.19727 21.145L7.73438 21.3025L8.18237 20.9668L8.24463 20.7556L8.25073 20.6934L8.05542 20.1685L7.51831 20.011ZM42.1301 20.0488L41.7639 20.4736L41.7493 20.6934L41.7554 20.7556L42.0593 21.2256L42.6172 21.2646L42.9834 20.8411L42.998 20.6213L42.9919 20.5591L42.688 20.0879L42.1301 20.0488ZM7.24243 22.5586L6.79443 22.8943L6.7334 23.1067L6.72607 23.1689L6.92139 23.6926L7.45972 23.8501L7.90649 23.5144L7.96875 23.3032L7.97607 23.241L7.77954 22.7161L7.24243 22.5586ZM42.4048 22.5964L42.0398 23.0212L42.0239 23.241L42.0312 23.3032L42.334 23.7732L42.8931 23.8123L43.2581 23.3887L43.2739 23.1689L43.2666 23.1067L42.9639 22.6355L42.4048 22.5964ZM6.96655 25.1062L6.51978 25.4431L6.45752 25.6543L6.45019 25.7166L6.64673 26.2402L7.18384 26.3977L7.63184 26.062L7.69287 25.8508L7.70019 25.7886L7.50488 25.2637L6.96655 25.1062ZM42.6807 25.144L42.3157 25.5688L42.2998 25.7886L42.3071 25.8508L42.6099 26.3208L43.1689 26.3599L43.5339 25.9363L43.5498 25.7166L43.5425 25.6543L43.2397 25.1831L42.6807 25.144ZM6.69189 27.6538L6.2439 27.9907L6.18164 28.2019L6.17554 28.2642L6.37085 28.7891L6.90796 28.9453L7.35596 28.6096L7.41821 28.3984L7.42432 28.3362L7.229 27.8113L6.69189 27.6538ZM42.9565 27.6917L42.5903 28.1165L42.5757 28.3362L42.5818 28.3984L42.8857 28.8684L43.4436 28.9075L43.8098 28.4839L43.8245 28.2642L43.8184 28.2019L43.5144 27.7307L42.9565 27.6917ZM6.41602 30.2014L5.96802 30.5383L5.90698 30.7495L5.89966 30.8118L6.09497 31.3367L6.6333 31.4929L7.0813 31.1572L7.14233 30.946L7.14966 30.8838L6.95312 30.3589L6.41602 30.2014ZM43.2312 30.2393L42.8662 30.6641L42.8503 30.8838L42.8577 30.946L43.1604 31.416L43.7195 31.4551L44.0845 31.0315L44.1003 30.8118L44.093 30.7495L43.7903 30.2783L43.2312 30.2393ZM6.14136 32.749L5.69336 33.0859L5.6311 33.2971L5.625 33.3594L5.82031 33.8843L6.35742 34.0417L6.80542 33.7048L6.86768 33.4937L6.87378 33.4314L6.67847 32.9065L6.14136 32.749ZM43.5071 32.7869L43.1409 33.2117L43.1262 33.4314L43.1323 33.4937L43.4363 33.9636L43.9941 34.0027L44.3604 33.5791L44.375 33.3594L44.3689 33.2971L44.0662 32.8259L43.5071 32.7869ZM13.75 36.25C13.5842 36.25 13.4253 36.3158 13.3081 36.4331C13.1908 36.5503 13.125 36.7092 13.125 36.875C13.125 37.0408 13.1908 37.1997 13.3081 37.3169C13.4253 37.4342 13.5842 37.5 13.75 37.5C13.9158 37.5 14.0747 37.4342 14.1919 37.3169C14.3092 37.1997 14.375 37.0408 14.375 36.875C14.375 36.7092 14.3092 36.5503 14.1919 36.4331C14.0747 36.3158 13.9158 36.25 13.75 36.25ZM16.25 36.25C16.0842 36.25 15.9253 36.3158 15.8081 36.4331C15.6908 36.5503 15.625 36.7092 15.625 36.875C15.625 37.0408 15.6908 37.1997 15.8081 37.3169C15.9253 37.4342 16.0842 37.5 16.25 37.5C16.4158 37.5 16.5747 37.4342 16.6919 37.3169C16.8092 37.1997 16.875 37.0408 16.875 36.875C16.875 36.7092 16.8092 36.5503 16.6919 36.4331C16.5747 36.3158 16.4158 36.25 16.25 36.25ZM18.75 36.25C18.5842 36.25 18.4253 36.3158 18.3081 36.4331C18.1908 36.5503 18.125 36.7092 18.125 36.875C18.125 37.0408 18.1908 37.1997 18.3081 37.3169C18.4253 37.4342 18.5842 37.5 18.75 37.5C18.9158 37.5 19.0747 37.4342 19.1919 37.3169C19.3092 37.1997 19.375 37.0408 19.375 36.875C19.375 36.7092 19.3092 36.5503 19.1919 36.4331C19.0747 36.3158 18.9158 36.25 18.75 36.25ZM21.25 36.25C21.0842 36.25 20.9253 36.3158 20.8081 36.4331C20.6908 36.5503 20.625 36.7092 20.625 36.875C20.625 37.0408 20.6908 37.1997 20.8081 37.3169C20.9253 37.4342 21.0842 37.5 21.25 37.5C21.4158 37.5 21.5747 37.4342 21.6919 37.3169C21.8092 37.1997 21.875 37.0408 21.875 36.875C21.875 36.7092 21.8092 36.5503 21.6919 36.4331C21.5747 36.3158 21.4158 36.25 21.25 36.25ZM23.75 36.25C23.5842 36.25 23.4253 36.3158 23.3081 36.4331C23.1908 36.5503 23.125 36.7092 23.125 36.875C23.125 37.0408 23.1908 37.1997 23.3081 37.3169C23.4253 37.4342 23.5842 37.5 23.75 37.5C23.9158 37.5 24.0747 37.4342 24.1919 37.3169C24.3092 37.1997 24.375 37.0408 24.375 36.875C24.375 36.7092 24.3092 36.5503 24.1919 36.4331C24.0747 36.3158 23.9158 36.25 23.75 36.25ZM26.25 36.25C26.0842 36.25 25.9253 36.3158 25.8081 36.4331C25.6908 36.5503 25.625 36.7092 25.625 36.875C25.625 37.0408 25.6908 37.1997 25.8081 37.3169C25.9253 37.4342 26.0842 37.5 26.25 37.5C26.4158 37.5 26.5747 37.4342 26.6919 37.3169C26.8092 37.1997 26.875 37.0408 26.875 36.875C26.875 36.7092 26.8092 36.5503 26.6919 36.4331C26.5747 36.3158 26.4158 36.25 26.25 36.25ZM28.75 36.25C28.5842 36.25 28.4253 36.3158 28.3081 36.4331C28.1908 36.5503 28.125 36.7092 28.125 36.875C28.125 37.0408 28.1908 37.1997 28.3081 37.3169C28.4253 37.4342 28.5842 37.5 28.75 37.5C28.9158 37.5 29.0747 37.4342 29.1919 37.3169C29.3092 37.1997 29.375 37.0408 29.375 36.875C29.375 36.7092 29.3092 36.5503 29.1919 36.4331C29.0747 36.3158 28.9158 36.25 28.75 36.25ZM31.25 36.25C31.0842 36.25 30.9253 36.3158 30.8081 36.4331C30.6908 36.5503 30.625 36.7092 30.625 36.875C30.625 37.0408 30.6908 37.1997 30.8081 37.3169C30.9253 37.4342 31.0842 37.5 31.25 37.5C31.4158 37.5 31.5747 37.4342 31.6919 37.3169C31.8092 37.1997 31.875 37.0408 31.875 36.875C31.875 36.7092 31.8092 36.5503 31.6919 36.4331C31.5747 36.3158 31.4158 36.25 31.25 36.25ZM33.75 36.25C33.5842 36.25 33.4253 36.3158 33.3081 36.4331C33.1908 36.5503 33.125 36.7092 33.125 36.875C33.125 37.0408 33.1908 37.1997 33.3081 37.3169C33.4253 37.4342 33.5842 37.5 33.75 37.5C33.9158 37.5 34.0747 37.4342 34.1919 37.3169C34.3092 37.1997 34.375 37.0408 34.375 36.875C34.375 36.7092 34.3092 36.5503 34.1919 36.4331C34.0747 36.3158 33.9158 36.25 33.75 36.25ZM36.25 36.25C36.0842 36.25 35.9253 36.3158 35.8081 36.4331C35.6908 36.5503 35.625 36.7092 35.625 36.875C35.625 37.0408 35.6908 37.1997 35.8081 37.3169C35.9253 37.4342 36.0842 37.5 36.25 37.5C36.4158 37.5 36.5747 37.4342 36.6919 37.3169C36.8092 37.1997 36.875 37.0408 36.875 36.875C36.875 36.7092 36.8092 36.5503 36.6919 36.4331C36.5747 36.3158 36.4158 36.25 36.25 36.25ZM21.875 41.875H28.125C28.125 43.6085 26.7335 45 25 45C23.2665 45 21.875 43.6085 21.875 41.875Z" fill="#D3D3D3"/>
<circle cx="25" cy="26" r="5.5" fill="#E79696"/>
</svg>
