<svg width="50" height="50" viewBox="0 0 50 50" fill="none" xmlns="http://www.w3.org/2000/svg">
<path d="M24.3617 3.75C22.4414 3.75 20.8729 5.31848 20.8729 7.23881V7.78145C20.2659 7.26854 19.5076 6.92164 18.6528 6.92164C16.7325 6.92164 15.164 8.49012 15.164 10.4104V30.3744L12.2822 27.4184C10.352 25.4386 7.15062 25.4336 5.21295 27.406L4.01367 28.6251L9.10317 34.1011C9.15272 34.2151 9.99023 36.1404 11.4769 38.4869C12.9934 40.878 15.107 43.6037 17.7038 44.969C18.7618 45.7668 20.08 46.25 21.5073 46.25H31.0222C35.2197 46.25 38.6341 42.8355 38.6341 38.6381V15.1679C38.6341 13.4235 37.2069 11.9963 35.4625 11.9963C34.7365 11.9963 34.0947 12.2862 33.5595 12.7V9.77612C33.5595 7.85579 31.991 6.28731 30.0707 6.28731C29.2084 6.28731 28.4452 6.63669 27.8332 7.15951C27.7886 5.27883 26.2523 3.75 24.3617 3.75ZM24.3617 5.01866C25.5957 5.01866 26.5819 6.00484 26.5819 7.23881V9.77612H27.8505C27.8505 8.54215 28.8367 7.55597 30.0707 7.55597C31.3047 7.55597 32.2908 8.54215 32.2908 9.77612V15.1679H33.5595C33.5595 14.1099 34.4044 13.2649 35.4625 13.2649C36.5205 13.2649 37.3655 14.1099 37.3655 15.1679V38.6381C37.3655 42.1492 34.5333 44.9813 31.0222 44.9813H21.5073C20.3551 44.9813 19.2995 44.5948 18.4446 43.9456L18.4025 43.9109L18.353 43.8861C16.113 42.7339 14.0242 40.1297 12.5474 37.8055C11.0731 35.4813 10.1984 33.4668 10.1984 33.4668L10.1538 33.3677L5.76799 28.6474L6.11736 28.2931C7.56938 26.8187 9.92829 26.8237 11.3753 28.3054L16.4326 33.4941V10.4104C16.4326 9.17648 17.4188 8.1903 18.6528 8.1903C19.8867 8.1903 20.8729 9.17648 20.8729 10.4104H22.1416V7.23881C22.1416 6.00484 23.1278 5.01866 24.3617 5.01866ZM21.5073 11.3619C21.1579 11.3619 20.8729 11.6469 20.8729 11.9963C20.8729 12.3456 21.1579 12.6306 21.5073 12.6306C21.8566 12.6306 22.1416 12.3456 22.1416 11.9963C22.1416 11.6469 21.8566 11.3619 21.5073 11.3619ZM27.2162 11.3619C26.8668 11.3619 26.5819 11.6469 26.5819 11.9963C26.5819 12.3456 26.8668 12.6306 27.2162 12.6306C27.5656 12.6306 27.8505 12.3456 27.8505 11.9963C27.8505 11.6469 27.5656 11.3619 27.2162 11.3619ZM21.5073 13.8993C21.1579 13.8993 20.8729 14.1842 20.8729 14.5336C20.8729 14.883 21.1579 15.1679 21.5073 15.1679C21.8566 15.1679 22.1416 14.883 22.1416 14.5336C22.1416 14.1842 21.8566 13.8993 21.5073 13.8993ZM27.2162 13.8993C26.8668 13.8993 26.5819 14.1842 26.5819 14.5336C26.5819 14.883 26.8668 15.1679 27.2162 15.1679C27.5656 15.1679 27.8505 14.883 27.8505 14.5336C27.8505 14.1842 27.5656 13.8993 27.2162 13.8993ZM21.5073 16.4366C21.1579 16.4366 20.8729 16.7215 20.8729 17.0709C20.8729 17.4203 21.1579 17.7052 21.5073 17.7052C21.8566 17.7052 22.1416 17.4203 22.1416 17.0709C22.1416 16.7215 21.8566 16.4366 21.5073 16.4366ZM27.2162 16.4366C26.8668 16.4366 26.5819 16.7215 26.5819 17.0709C26.5819 17.4203 26.8668 17.7052 27.2162 17.7052C27.5656 17.7052 27.8505 17.4203 27.8505 17.0709C27.8505 16.7215 27.5656 16.4366 27.2162 16.4366ZM32.9252 16.4366C32.5758 16.4366 32.2908 16.7215 32.2908 17.0709C32.2908 17.4203 32.5758 17.7052 32.9252 17.7052C33.2745 17.7052 33.5595 17.4203 33.5595 17.0709C33.5595 16.7215 33.2745 16.4366 32.9252 16.4366ZM21.5073 18.9739C21.1579 18.9739 20.8729 19.2588 20.8729 19.6082C20.8729 19.9576 21.1579 20.2425 21.5073 20.2425C21.8566 20.2425 22.1416 19.9576 22.1416 19.6082C22.1416 19.2588 21.8566 18.9739 21.5073 18.9739ZM27.2162 18.9739C26.8668 18.9739 26.5819 19.2588 26.5819 19.6082C26.5819 19.9576 26.8668 20.2425 27.2162 20.2425C27.5656 20.2425 27.8505 19.9576 27.8505 19.6082C27.8505 19.2588 27.5656 18.9739 27.2162 18.9739ZM32.9252 18.9739C32.5758 18.9739 32.2908 19.2588 32.2908 19.6082C32.2908 19.9576 32.5758 20.2425 32.9252 20.2425C33.2745 20.2425 33.5595 19.9576 33.5595 19.6082C33.5595 19.2588 33.2745 18.9739 32.9252 18.9739ZM21.5073 21.5112C21.1579 21.5112 20.8729 21.7961 20.8729 22.1455C20.8729 22.4949 21.1579 22.7799 21.5073 22.7799C21.8566 22.7799 22.1416 22.4949 22.1416 22.1455C22.1416 21.7961 21.8566 21.5112 21.5073 21.5112ZM27.2162 21.5112C26.8668 21.5112 26.5819 21.7961 26.5819 22.1455C26.5819 22.4949 26.8668 22.7799 27.2162 22.7799C27.5656 22.7799 27.8505 22.4949 27.8505 22.1455C27.8505 21.7961 27.5656 21.5112 27.2162 21.5112ZM32.9252 21.5112C32.5758 21.5112 32.2908 21.7961 32.2908 22.1455C32.2908 22.4949 32.5758 22.7799 32.9252 22.7799C33.2745 22.7799 33.5595 22.4949 33.5595 22.1455C33.5595 21.7961 33.2745 21.5112 32.9252 21.5112ZM21.5073 24.0485C21.1579 24.0485 20.8729 24.3335 20.8729 24.6828C20.8729 25.0322 21.1579 25.3172 21.5073 25.3172C21.8566 25.3172 22.1416 25.0322 22.1416 24.6828C22.1416 24.3335 21.8566 24.0485 21.5073 24.0485ZM27.2162 24.0485C26.8668 24.0485 26.5819 24.3335 26.5819 24.6828C26.5819 25.0322 26.8668 25.3172 27.2162 25.3172C27.5656 25.3172 27.8505 25.0322 27.8505 24.6828C27.8505 24.3335 27.5656 24.0485 27.2162 24.0485ZM32.9252 24.0485C32.5758 24.0485 32.2908 24.3335 32.2908 24.6828C32.2908 25.0322 32.5758 25.3172 32.9252 25.3172C33.2745 25.3172 33.5595 25.0322 33.5595 24.6828C33.5595 24.3335 33.2745 24.0485 32.9252 24.0485Z" fill="#D3D3D3"/>
</svg>
