<svg width="50" height="50" viewBox="0 0 50 50" fill="none" xmlns="http://www.w3.org/2000/svg">
<path d="M48 0H2C0.89543 0 0 0.89543 0 2V48C0 49.1046 0.89543 50 2 50H48C49.1046 50 50 49.1046 50 48V2C50 0.89543 49.1046 0 48 0Z" fill="#C4C4C4"/>
<path d="M27.0381 3.75C25.1177 3.75 23.5493 5.31848 23.5493 7.23881V7.78145C22.9422 7.26854 22.184 6.92164 21.3291 6.92164C19.4088 6.92164 17.8403 8.49012 17.8403 10.4104V30.3744L14.9586 27.4184C13.0283 25.4386 9.82695 25.4336 7.88928 27.406L6.69 28.6251L11.7795 34.1011C11.8291 34.2151 12.6666 36.1404 14.1533 38.4869C15.6697 40.878 17.7833 43.6037 20.3801 44.969C21.4381 45.7668 22.7564 46.25 24.1836 46.25H33.6985C37.896 46.25 41.3105 42.8355 41.3105 38.6381V15.1679C41.3105 13.4235 39.8832 11.9963 38.1388 11.9963C37.4128 11.9963 36.771 12.2862 36.2358 12.7V9.77612C36.2358 7.85579 34.6674 6.28731 32.747 6.28731C31.8847 6.28731 31.1216 6.63669 30.5095 7.15951C30.4649 5.27883 28.9287 3.75 27.0381 3.75ZM27.0381 5.01866C28.272 5.01866 29.2582 6.00484 29.2582 7.23881V9.77612H30.5269C30.5269 8.54215 31.5131 7.55597 32.747 7.55597C33.981 7.55597 34.9672 8.54215 34.9672 9.77612V15.1679H36.2358C36.2358 14.1099 37.0808 13.2649 38.1388 13.2649C39.1969 13.2649 40.0418 14.1099 40.0418 15.1679V38.6381C40.0418 42.1492 37.2096 44.9813 33.6985 44.9813H24.1836C23.0314 44.9813 21.9758 44.5948 21.121 43.9456L21.0788 43.9109L21.0293 43.8861C18.7893 42.7339 16.7005 40.1297 15.2237 37.8055C13.7494 35.4813 12.8747 33.4668 12.8747 33.4668L12.8301 33.3677L8.44432 28.6474L8.79369 28.2931C10.2457 26.8187 12.6046 26.8237 14.0517 28.3054L19.109 33.4941V10.4104C19.109 9.17648 20.0951 8.1903 21.3291 8.1903C22.5631 8.1903 23.5493 9.17648 23.5493 10.4104H24.8179V7.23881C24.8179 6.00484 25.8041 5.01866 27.0381 5.01866ZM24.1836 11.3619C23.8342 11.3619 23.5493 11.6469 23.5493 11.9963C23.5493 12.3456 23.8342 12.6306 24.1836 12.6306C24.533 12.6306 24.8179 12.3456 24.8179 11.9963C24.8179 11.6469 24.533 11.3619 24.1836 11.3619ZM29.8925 11.3619C29.5432 11.3619 29.2582 11.6469 29.2582 11.9963C29.2582 12.3456 29.5432 12.6306 29.8925 12.6306C30.2419 12.6306 30.5269 12.3456 30.5269 11.9963C30.5269 11.6469 30.2419 11.3619 29.8925 11.3619ZM24.1836 13.8993C23.8342 13.8993 23.5493 14.1842 23.5493 14.5336C23.5493 14.883 23.8342 15.1679 24.1836 15.1679C24.533 15.1679 24.8179 14.883 24.8179 14.5336C24.8179 14.1842 24.533 13.8993 24.1836 13.8993ZM29.8925 13.8993C29.5432 13.8993 29.2582 14.1842 29.2582 14.5336C29.2582 14.883 29.5432 15.1679 29.8925 15.1679C30.2419 15.1679 30.5269 14.883 30.5269 14.5336C30.5269 14.1842 30.2419 13.8993 29.8925 13.8993ZM24.1836 16.4366C23.8342 16.4366 23.5493 16.7215 23.5493 17.0709C23.5493 17.4203 23.8342 17.7052 24.1836 17.7052C24.533 17.7052 24.8179 17.4203 24.8179 17.0709C24.8179 16.7215 24.533 16.4366 24.1836 16.4366ZM29.8925 16.4366C29.5432 16.4366 29.2582 16.7215 29.2582 17.0709C29.2582 17.4203 29.5432 17.7052 29.8925 17.7052C30.2419 17.7052 30.5269 17.4203 30.5269 17.0709C30.5269 16.7215 30.2419 16.4366 29.8925 16.4366ZM35.6015 16.4366C35.2521 16.4366 34.9672 16.7215 34.9672 17.0709C34.9672 17.4203 35.2521 17.7052 35.6015 17.7052C35.9509 17.7052 36.2358 17.4203 36.2358 17.0709C36.2358 16.7215 35.9509 16.4366 35.6015 16.4366ZM24.1836 18.9739C23.8342 18.9739 23.5493 19.2588 23.5493 19.6082C23.5493 19.9576 23.8342 20.2425 24.1836 20.2425C24.533 20.2425 24.8179 19.9576 24.8179 19.6082C24.8179 19.2588 24.533 18.9739 24.1836 18.9739ZM29.8925 18.9739C29.5432 18.9739 29.2582 19.2588 29.2582 19.6082C29.2582 19.9576 29.5432 20.2425 29.8925 20.2425C30.2419 20.2425 30.5269 19.9576 30.5269 19.6082C30.5269 19.2588 30.2419 18.9739 29.8925 18.9739ZM35.6015 18.9739C35.2521 18.9739 34.9672 19.2588 34.9672 19.6082C34.9672 19.9576 35.2521 20.2425 35.6015 20.2425C35.9509 20.2425 36.2358 19.9576 36.2358 19.6082C36.2358 19.2588 35.9509 18.9739 35.6015 18.9739ZM24.1836 21.5112C23.8342 21.5112 23.5493 21.7961 23.5493 22.1455C23.5493 22.4949 23.8342 22.7799 24.1836 22.7799C24.533 22.7799 24.8179 22.4949 24.8179 22.1455C24.8179 21.7961 24.533 21.5112 24.1836 21.5112ZM29.8925 21.5112C29.5432 21.5112 29.2582 21.7961 29.2582 22.1455C29.2582 22.4949 29.5432 22.7799 29.8925 22.7799C30.2419 22.7799 30.5269 22.4949 30.5269 22.1455C30.5269 21.7961 30.2419 21.5112 29.8925 21.5112ZM35.6015 21.5112C35.2521 21.5112 34.9672 21.7961 34.9672 22.1455C34.9672 22.4949 35.2521 22.7799 35.6015 22.7799C35.9509 22.7799 36.2358 22.4949 36.2358 22.1455C36.2358 21.7961 35.9509 21.5112 35.6015 21.5112ZM24.1836 24.0485C23.8342 24.0485 23.5493 24.3335 23.5493 24.6828C23.5493 25.0322 23.8342 25.3172 24.1836 25.3172C24.533 25.3172 24.8179 25.0322 24.8179 24.6828C24.8179 24.3335 24.533 24.0485 24.1836 24.0485ZM29.8925 24.0485C29.5432 24.0485 29.2582 24.3335 29.2582 24.6828C29.2582 25.0322 29.5432 25.3172 29.8925 25.3172C30.2419 25.3172 30.5269 25.0322 30.5269 24.6828C30.5269 24.3335 30.2419 24.0485 29.8925 24.0485ZM35.6015 24.0485C35.2521 24.0485 34.9672 24.3335 34.9672 24.6828C34.9672 25.0322 35.2521 25.3172 35.6015 25.3172C35.9509 25.3172 36.2358 25.0322 36.2358 24.6828C36.2358 24.3335 35.9509 24.0485 35.6015 24.0485Z" fill="#444444"/>
</svg>
