<svg width="50" height="50" viewBox="0 0 50 50" fill="none" xmlns="http://www.w3.org/2000/svg">
<rect width="50" height="50" rx="2" fill="#C4C4C4"/>
<path d="M5.625 4.875C4.59717 4.875 3.75 5.9037 3.75 7.15179V39.0268C3.75 40.2749 4.59717 41.3036 5.625 41.3036H18.125V42.8214H14.375V47.375H35.625V42.8214H31.875V41.3036H44.375C45.4028 41.3036 46.25 40.2749 46.25 39.0268V7.15179C46.25 5.9037 45.4028 4.875 44.375 4.875H5.625ZM5.625 6.39286H44.375C44.729 6.39286 45 6.72192 45 7.15179V39.0268C45 39.4566 44.729 39.7857 44.375 39.7857H5.625C5.271 39.7857 5 39.4566 5 39.0268V7.15179C5 6.72192 5.271 6.39286 5.625 6.39286ZM7.5 8.66964C7.15576 8.66964 6.875 9.01057 6.875 9.42857C6.875 9.84658 7.15576 10.1875 7.5 10.1875C7.84424 10.1875 8.125 9.84658 8.125 9.42857C8.125 9.01057 7.84424 8.66964 7.5 8.66964ZM10 8.66964C9.65576 8.66964 9.375 9.01057 9.375 9.42857C9.375 9.84658 9.65576 10.1875 10 10.1875C10.3442 10.1875 10.625 9.84658 10.625 9.42857C10.625 9.01057 10.3442 8.66964 10 8.66964ZM12.5 8.66964C12.1558 8.66964 11.875 9.01057 11.875 9.42857C11.875 9.84658 12.1558 10.1875 12.5 10.1875C12.8442 10.1875 13.125 9.84658 13.125 9.42857C13.125 9.01057 12.8442 8.66964 12.5 8.66964ZM15 8.66964C14.6558 8.66964 14.375 9.01057 14.375 9.42857C14.375 9.84658 14.6558 10.1875 15 10.1875C15.3442 10.1875 15.625 9.84658 15.625 9.42857C15.625 9.01057 15.3442 8.66964 15 8.66964ZM17.5 8.66964C17.1558 8.66964 16.875 9.01057 16.875 9.42857C16.875 9.84658 17.1558 10.1875 17.5 10.1875C17.8442 10.1875 18.125 9.84658 18.125 9.42857C18.125 9.01057 17.8442 8.66964 17.5 8.66964ZM20 8.66964C19.6558 8.66964 19.375 9.01057 19.375 9.42857C19.375 9.84658 19.6558 10.1875 20 10.1875C20.3442 10.1875 20.625 9.84658 20.625 9.42857C20.625 9.01057 20.3442 8.66964 20 8.66964ZM22.5 8.66964C22.1558 8.66964 21.875 9.01057 21.875 9.42857C21.875 9.84658 22.1558 10.1875 22.5 10.1875C22.8442 10.1875 23.125 9.84658 23.125 9.42857C23.125 9.01057 22.8442 8.66964 22.5 8.66964ZM25 8.66964C24.6558 8.66964 24.375 9.01057 24.375 9.42857C24.375 9.84658 24.6558 10.1875 25 10.1875C25.3442 10.1875 25.625 9.84658 25.625 9.42857C25.625 9.01057 25.3442 8.66964 25 8.66964ZM27.5 8.66964C27.1558 8.66964 26.875 9.01057 26.875 9.42857C26.875 9.84658 27.1558 10.1875 27.5 10.1875C27.8442 10.1875 28.125 9.84658 28.125 9.42857C28.125 9.01057 27.8442 8.66964 27.5 8.66964ZM30 8.66964C29.6558 8.66964 29.375 9.01057 29.375 9.42857C29.375 9.84658 29.6558 10.1875 30 10.1875C30.3442 10.1875 30.625 9.84658 30.625 9.42857C30.625 9.01057 30.3442 8.66964 30 8.66964ZM32.5 8.66964C32.1558 8.66964 31.875 9.01057 31.875 9.42857C31.875 9.84658 32.1558 10.1875 32.5 10.1875C32.8442 10.1875 33.125 9.84658 33.125 9.42857C33.125 9.01057 32.8442 8.66964 32.5 8.66964ZM35 8.66964C34.6558 8.66964 34.375 9.01057 34.375 9.42857C34.375 9.84658 34.6558 10.1875 35 10.1875C35.3442 10.1875 35.625 9.84658 35.625 9.42857C35.625 9.01057 35.3442 8.66964 35 8.66964ZM37.5 8.66964C37.1558 8.66964 36.875 9.01057 36.875 9.42857C36.875 9.84658 37.1558 10.1875 37.5 10.1875C37.8442 10.1875 38.125 9.84658 38.125 9.42857C38.125 9.01057 37.8442 8.66964 37.5 8.66964ZM40 8.66964C39.6558 8.66964 39.375 9.01057 39.375 9.42857C39.375 9.84658 39.6558 10.1875 40 10.1875C40.3442 10.1875 40.625 9.84658 40.625 9.42857C40.625 9.01057 40.3442 8.66964 40 8.66964ZM42.5 8.66964C42.1558 8.66964 41.875 9.01057 41.875 9.42857C41.875 9.84658 42.1558 10.1875 42.5 10.1875C42.8442 10.1875 43.125 9.84658 43.125 9.42857C43.125 9.01057 42.8442 8.66964 42.5 8.66964ZM7.5 11.7054C7.15576 11.7054 6.875 12.0463 6.875 12.4643C6.875 12.8823 7.15576 13.2232 7.5 13.2232C7.84424 13.2232 8.125 12.8823 8.125 12.4643C8.125 12.0463 7.84424 11.7054 7.5 11.7054ZM42.5 11.7054C42.1558 11.7054 41.875 12.0463 41.875 12.4643C41.875 12.8823 42.1558 13.2232 42.5 13.2232C42.8442 13.2232 43.125 12.8823 43.125 12.4643C43.125 12.0463 42.8442 11.7054 42.5 11.7054ZM7.5 14.7411C7.15576 14.7411 6.875 15.082 6.875 15.5C6.875 15.918 7.15576 16.2589 7.5 16.2589C7.84424 16.2589 8.125 15.918 8.125 15.5C8.125 15.082 7.84424 14.7411 7.5 14.7411ZM42.5 14.7411C42.1558 14.7411 41.875 15.082 41.875 15.5C41.875 15.918 42.1558 16.2589 42.5 16.2589C42.8442 16.2589 43.125 15.918 43.125 15.5C43.125 15.082 42.8442 14.7411 42.5 14.7411ZM7.5 17.7768C7.15576 17.7768 6.875 18.1177 6.875 18.5357C6.875 18.9537 7.15576 19.2946 7.5 19.2946C7.84424 19.2946 8.125 18.9537 8.125 18.5357C8.125 18.1177 7.84424 17.7768 7.5 17.7768ZM42.5 17.7768C42.1558 17.7768 41.875 18.1177 41.875 18.5357C41.875 18.9537 42.1558 19.2946 42.5 19.2946C42.8442 19.2946 43.125 18.9537 43.125 18.5357C43.125 18.1177 42.8442 17.7768 42.5 17.7768ZM7.5 20.8125C7.15576 20.8125 6.875 21.1534 6.875 21.5714C6.875 21.9894 7.15576 22.3304 7.5 22.3304C7.84424 22.3304 8.125 21.9894 8.125 21.5714C8.125 21.1534 7.84424 20.8125 7.5 20.8125ZM42.5 20.8125C42.1558 20.8125 41.875 21.1534 41.875 21.5714C41.875 21.9894 42.1558 22.3304 42.5 22.3304C42.8442 22.3304 43.125 21.9894 43.125 21.5714C43.125 21.1534 42.8442 20.8125 42.5 20.8125ZM7.5 23.8482C7.15576 23.8482 6.875 24.1891 6.875 24.6071C6.875 25.0251 7.15576 25.3661 7.5 25.3661C7.84424 25.3661 8.125 25.0251 8.125 24.6071C8.125 24.1891 7.84424 23.8482 7.5 23.8482ZM42.5 23.8482C42.1558 23.8482 41.875 24.1891 41.875 24.6071C41.875 25.0251 42.1558 25.3661 42.5 25.3661C42.8442 25.3661 43.125 25.0251 43.125 24.6071C43.125 24.1891 42.8442 23.8482 42.5 23.8482ZM7.5 26.8839C7.15576 26.8839 6.875 27.2249 6.875 27.6429C6.875 28.0609 7.15576 28.4018 7.5 28.4018C7.84424 28.4018 8.125 28.0609 8.125 27.6429C8.125 27.2249 7.84424 26.8839 7.5 26.8839ZM42.5 26.8839C42.1558 26.8839 41.875 27.2249 41.875 27.6429C41.875 28.0609 42.1558 28.4018 42.5 28.4018C42.8442 28.4018 43.125 28.0609 43.125 27.6429C43.125 27.2249 42.8442 26.8839 42.5 26.8839ZM7.5 29.9196C7.15576 29.9196 6.875 30.2606 6.875 30.6786C6.875 31.0966 7.15576 31.4375 7.5 31.4375C7.84424 31.4375 8.125 31.0966 8.125 30.6786C8.125 30.2606 7.84424 29.9196 7.5 29.9196ZM42.5 29.9196C42.1558 29.9196 41.875 30.2606 41.875 30.6786C41.875 31.0966 42.1558 31.4375 42.5 31.4375C42.8442 31.4375 43.125 31.0966 43.125 30.6786C43.125 30.2606 42.8442 29.9196 42.5 29.9196ZM7.5 32.9554C7.15576 32.9554 6.875 33.2963 6.875 33.7143C6.875 34.1323 7.15576 34.4732 7.5 34.4732C7.84424 34.4732 8.125 34.1323 8.125 33.7143C8.125 33.2963 7.84424 32.9554 7.5 32.9554ZM42.5 32.9554C42.1558 32.9554 41.875 33.2963 41.875 33.7143C41.875 34.1323 42.1558 34.4732 42.5 34.4732C42.8442 34.4732 43.125 34.1323 43.125 33.7143C43.125 33.2963 42.8442 32.9554 42.5 32.9554ZM7.5 35.9911C7.15576 35.9911 6.875 36.332 6.875 36.75C6.875 37.168 7.15576 37.5089 7.5 37.5089C7.84424 37.5089 8.125 37.168 8.125 36.75C8.125 36.332 7.84424 35.9911 7.5 35.9911ZM10 35.9911C9.65576 35.9911 9.375 36.332 9.375 36.75C9.375 37.168 9.65576 37.5089 10 37.5089C10.3442 37.5089 10.625 37.168 10.625 36.75C10.625 36.332 10.3442 35.9911 10 35.9911ZM12.5 35.9911C12.1558 35.9911 11.875 36.332 11.875 36.75C11.875 37.168 12.1558 37.5089 12.5 37.5089C12.8442 37.5089 13.125 37.168 13.125 36.75C13.125 36.332 12.8442 35.9911 12.5 35.9911ZM15 35.9911C14.6558 35.9911 14.375 36.332 14.375 36.75C14.375 37.168 14.6558 37.5089 15 37.5089C15.3442 37.5089 15.625 37.168 15.625 36.75C15.625 36.332 15.3442 35.9911 15 35.9911ZM17.5 35.9911C17.1558 35.9911 16.875 36.332 16.875 36.75C16.875 37.168 17.1558 37.5089 17.5 37.5089C17.8442 37.5089 18.125 37.168 18.125 36.75C18.125 36.332 17.8442 35.9911 17.5 35.9911ZM20 35.9911C19.6558 35.9911 19.375 36.332 19.375 36.75C19.375 37.168 19.6558 37.5089 20 37.5089C20.3442 37.5089 20.625 37.168 20.625 36.75C20.625 36.332 20.3442 35.9911 20 35.9911ZM22.5 35.9911C22.1558 35.9911 21.875 36.332 21.875 36.75C21.875 37.168 22.1558 37.5089 22.5 37.5089C22.8442 37.5089 23.125 37.168 23.125 36.75C23.125 36.332 22.8442 35.9911 22.5 35.9911ZM25 35.9911C24.6558 35.9911 24.375 36.332 24.375 36.75C24.375 37.168 24.6558 37.5089 25 37.5089C25.3442 37.5089 25.625 37.168 25.625 36.75C25.625 36.332 25.3442 35.9911 25 35.9911ZM27.5 35.9911C27.1558 35.9911 26.875 36.332 26.875 36.75C26.875 37.168 27.1558 37.5089 27.5 37.5089C27.8442 37.5089 28.125 37.168 28.125 36.75C28.125 36.332 27.8442 35.9911 27.5 35.9911ZM30 35.9911C29.6558 35.9911 29.375 36.332 29.375 36.75C29.375 37.168 29.6558 37.5089 30 37.5089C30.3442 37.5089 30.625 37.168 30.625 36.75C30.625 36.332 30.3442 35.9911 30 35.9911ZM32.5 35.9911C32.1558 35.9911 31.875 36.332 31.875 36.75C31.875 37.168 32.1558 37.5089 32.5 37.5089C32.8442 37.5089 33.125 37.168 33.125 36.75C33.125 36.332 32.8442 35.9911 32.5 35.9911ZM35 35.9911C34.6558 35.9911 34.375 36.332 34.375 36.75C34.375 37.168 34.6558 37.5089 35 37.5089C35.3442 37.5089 35.625 37.168 35.625 36.75C35.625 36.332 35.3442 35.9911 35 35.9911ZM37.5 35.9911C37.1558 35.9911 36.875 36.332 36.875 36.75C36.875 37.168 37.1558 37.5089 37.5 37.5089C37.8442 37.5089 38.125 37.168 38.125 36.75C38.125 36.332 37.8442 35.9911 37.5 35.9911ZM40 35.9911C39.6558 35.9911 39.375 36.332 39.375 36.75C39.375 37.168 39.6558 37.5089 40 37.5089C40.3442 37.5089 40.625 37.168 40.625 36.75C40.625 36.332 40.3442 35.9911 40 35.9911ZM42.5 35.9911C42.1558 35.9911 41.875 36.332 41.875 36.75C41.875 37.168 42.1558 37.5089 42.5 37.5089C42.8442 37.5089 43.125 37.168 43.125 36.75C43.125 36.332 42.8442 35.9911 42.5 35.9911ZM19.375 41.3036H30.625V42.8214H19.375V41.3036ZM15.625 44.3393H34.375V45.8571H15.625V44.3393Z" fill="#444444"/>
<path d="M31.325 13.925C29.8093 13.925 28.575 15.1593 28.575 16.675C28.575 16.7545 28.5804 16.8329 28.5879 16.9113L20.4496 20.9031C19.9705 20.4971 19.3517 20.25 18.675 20.25C17.1593 20.25 15.925 21.4843 15.925 23C15.925 24.5157 17.1593 25.75 18.675 25.75C19.3517 25.75 19.9705 25.5029 20.4496 25.0969L28.5879 29.0887C28.5804 29.1671 28.575 29.2455 28.575 29.325C28.575 30.8407 29.8093 32.075 31.325 32.075C32.8407 32.075 34.075 30.8407 34.075 29.325C34.075 27.8093 32.8407 26.575 31.325 26.575C30.6912 26.575 30.1079 26.7931 29.6417 27.1551L21.4185 23.1203C21.4207 23.0806 21.425 23.0408 21.425 23C21.425 22.9592 21.4207 22.9194 21.4185 22.8797L29.6417 18.8449C30.1079 19.2069 30.6912 19.425 31.325 19.425C32.8407 19.425 34.075 18.1907 34.075 16.675C34.075 15.1593 32.8407 13.925 31.325 13.925ZM31.325 14.475C32.5432 14.475 33.525 15.4568 33.525 16.675C33.525 17.8932 32.5432 18.875 31.325 18.875C30.1068 18.875 29.125 17.8932 29.125 16.675C29.125 15.4568 30.1068 14.475 31.325 14.475ZM31.325 15.025C31.1735 15.025 31.05 15.1485 31.05 15.3C31.05 15.4515 31.1735 15.575 31.325 15.575C31.4765 15.575 31.6 15.4515 31.6 15.3C31.6 15.1485 31.4765 15.025 31.325 15.025ZM30.3571 15.4278C30.2819 15.4267 30.21 15.4557 30.1573 15.5084C30.051 15.6158 30.051 15.7898 30.1573 15.8973C30.2647 16.0047 30.4398 16.0047 30.5473 15.8973C30.6536 15.7898 30.6536 15.6158 30.5473 15.5084C30.4957 15.4579 30.428 15.4289 30.3571 15.4278ZM32.3015 15.4278C32.2273 15.4267 32.1554 15.4557 32.1027 15.5084C31.9953 15.6158 31.9953 15.7898 32.1027 15.8973C32.2101 16.0047 32.3842 16.0047 32.4916 15.8973C32.599 15.7898 32.599 15.6158 32.4916 15.5084C32.4411 15.4579 32.3734 15.4289 32.3015 15.4278ZM29.95 16.4C29.7985 16.4 29.675 16.5235 29.675 16.675C29.675 16.8265 29.7985 16.95 29.95 16.95C30.1015 16.95 30.225 16.8265 30.225 16.675C30.225 16.5235 30.1015 16.4 29.95 16.4ZM32.7 16.4C32.5485 16.4 32.425 16.5235 32.425 16.675C32.425 16.8265 32.5485 16.95 32.7 16.95C32.8515 16.95 32.975 16.8265 32.975 16.675C32.975 16.5235 32.8515 16.4 32.7 16.4ZM30.3571 17.3722C30.2819 17.3711 30.211 17.4001 30.1584 17.4527C30.051 17.5601 30.051 17.7342 30.1584 17.8416C30.2658 17.949 30.4398 17.949 30.5473 17.8416C30.6547 17.7342 30.6547 17.5601 30.5473 17.4527C30.4968 17.4022 30.428 17.3732 30.3571 17.3722ZM32.3015 17.3722C32.2273 17.3711 32.1554 17.4001 32.1027 17.4527C31.9953 17.5601 31.9953 17.7342 32.1027 17.8416C32.2101 17.949 32.3842 17.949 32.4916 17.8416C32.599 17.7342 32.599 17.5601 32.4916 17.4527C32.4411 17.4022 32.3734 17.3732 32.3015 17.3722ZM28.6942 17.471C28.8027 17.8308 28.9832 18.1585 29.2195 18.4399L21.3337 22.3082C21.2381 21.944 21.0716 21.6099 20.8481 21.321L28.6942 17.471ZM31.325 17.775C31.1735 17.775 31.05 17.8985 31.05 18.05C31.05 18.2015 31.1735 18.325 31.325 18.325C31.4765 18.325 31.6 18.2015 31.6 18.05C31.6 17.8985 31.4765 17.775 31.325 17.775ZM18.675 20.8C19.8932 20.8 20.875 21.7818 20.875 23C20.875 24.2182 19.8932 25.2 18.675 25.2C17.4568 25.2 16.475 24.2182 16.475 23C16.475 21.7818 17.4568 20.8 18.675 20.8ZM18.675 21.35C18.5235 21.35 18.4 21.4735 18.4 21.625C18.4 21.7765 18.5235 21.9 18.675 21.9C18.8265 21.9 18.95 21.7765 18.95 21.625C18.95 21.4735 18.8265 21.35 18.675 21.35ZM19.6504 21.7528C19.5763 21.7517 19.5054 21.7808 19.4527 21.8323C19.3453 21.9397 19.3453 22.1148 19.4527 22.2223C19.5601 22.3286 19.7342 22.3286 19.8416 22.2223C19.949 22.1148 19.949 21.9397 19.8416 21.8323C19.7911 21.7818 19.7224 21.7528 19.6504 21.7528ZM17.7071 21.7528C17.6319 21.7517 17.5599 21.7808 17.5073 21.8334C17.401 21.9408 17.401 22.1148 17.5073 22.2223C17.6147 22.3297 17.7898 22.3297 17.8973 22.2223C18.0036 22.1148 18.0036 21.9408 17.8973 21.8334C17.8457 21.7829 17.778 21.7539 17.7071 21.7528ZM17.3 22.725C17.1485 22.725 17.025 22.8485 17.025 23C17.025 23.1515 17.1485 23.275 17.3 23.275C17.4515 23.275 17.575 23.1515 17.575 23C17.575 22.8485 17.4515 22.725 17.3 22.725ZM20.05 22.725C19.8985 22.725 19.775 22.8485 19.775 23C19.775 23.1515 19.8985 23.275 20.05 23.275C20.2015 23.275 20.325 23.1515 20.325 23C20.325 22.8485 20.2015 22.725 20.05 22.725ZM21.3337 23.6918L29.2195 27.56C28.9832 27.8415 28.8027 28.1691 28.6942 28.529L20.8481 24.679C21.0716 24.39 21.2381 24.0559 21.3337 23.6918ZM17.7071 23.6972C17.6319 23.6961 17.561 23.7251 17.5084 23.7777C17.401 23.8851 17.401 24.0592 17.5084 24.1666C17.6158 24.274 17.7898 24.274 17.8973 24.1666C18.0047 24.0592 18.0047 23.8851 17.8973 23.7777C17.8468 23.7272 17.778 23.6982 17.7071 23.6972ZM19.6515 23.6972C19.5773 23.6961 19.5054 23.7251 19.4527 23.7777C19.3453 23.8851 19.3453 24.0592 19.4527 24.1666C19.5601 24.274 19.7342 24.274 19.8416 24.1666C19.949 24.0592 19.949 23.8851 19.8416 23.7777C19.7911 23.7272 19.7234 23.6982 19.6515 23.6972ZM18.675 24.1C18.5235 24.1 18.4 24.2235 18.4 24.375C18.4 24.5265 18.5235 24.65 18.675 24.65C18.8265 24.65 18.95 24.5265 18.95 24.375C18.95 24.2235 18.8265 24.1 18.675 24.1ZM31.325 27.125C32.5432 27.125 33.525 28.1068 33.525 29.325C33.525 30.5432 32.5432 31.525 31.325 31.525C30.1068 31.525 29.125 30.5432 29.125 29.325C29.125 28.1068 30.1068 27.125 31.325 27.125ZM31.325 27.675C31.1735 27.675 31.05 27.7985 31.05 27.95C31.05 28.1015 31.1735 28.225 31.325 28.225C31.4765 28.225 31.6 28.1015 31.6 27.95C31.6 27.7985 31.4765 27.675 31.325 27.675ZM30.3571 28.0778C30.2819 28.0767 30.21 28.1058 30.1573 28.1584C30.051 28.2658 30.051 28.4398 30.1573 28.5473C30.2647 28.6547 30.4398 28.6547 30.5473 28.5473C30.6536 28.4398 30.6536 28.2658 30.5473 28.1584C30.4957 28.1079 30.428 28.0789 30.3571 28.0778ZM32.3004 28.0778C32.2263 28.0767 32.1554 28.1058 32.1027 28.1573C32.0512 28.21 32.0222 28.2798 32.0222 28.3528C32.0222 28.4259 32.0512 28.4957 32.1027 28.5473C32.2101 28.6547 32.3842 28.6547 32.4916 28.5473C32.5432 28.4957 32.5722 28.4259 32.5722 28.3528C32.5722 28.2798 32.5432 28.21 32.4916 28.1573C32.4411 28.1079 32.3724 28.0789 32.3004 28.0778ZM29.95 29.05C29.7985 29.05 29.675 29.1735 29.675 29.325C29.675 29.4765 29.7985 29.6 29.95 29.6C30.1015 29.6 30.225 29.4765 30.225 29.325C30.225 29.1735 30.1015 29.05 29.95 29.05ZM32.7 29.05C32.5485 29.05 32.425 29.1735 32.425 29.325C32.425 29.4765 32.5485 29.6 32.7 29.6C32.8515 29.6 32.975 29.4765 32.975 29.325C32.975 29.1735 32.8515 29.05 32.7 29.05ZM32.3004 30.0222C32.2263 30.0211 32.1554 30.0501 32.1027 30.1027C31.9953 30.2101 31.9953 30.3842 32.1027 30.4916C32.2101 30.599 32.3842 30.599 32.4916 30.4916C32.599 30.3842 32.599 30.2101 32.4916 30.1027C32.4411 30.0522 32.3724 30.0232 32.3004 30.0222ZM30.3571 30.0222C30.2819 30.0211 30.21 30.0501 30.1573 30.1027C30.051 30.2101 30.051 30.3852 30.1573 30.4927C30.2647 30.599 30.4398 30.599 30.5473 30.4927C30.6536 30.3852 30.6536 30.2101 30.5473 30.1027C30.4957 30.0522 30.428 30.0243 30.3571 30.0222ZM31.325 30.425C31.1735 30.425 31.05 30.5485 31.05 30.7C31.05 30.8515 31.1735 30.975 31.325 30.975C31.4765 30.975 31.6 30.8515 31.6 30.7C31.6 30.5485 31.4765 30.425 31.325 30.425Z" fill="#444444"/>
</svg>
