<svg width="50" height="50" viewBox="0 0 50 50" fill="none" xmlns="http://www.w3.org/2000/svg">
<g clip-path="url(#clip0_129:600)">
<rect y="4" width="50" height="50" rx="2" fill="#C4C4C4"/>
<path d="M5.625 6.875C4.59717 6.875 3.75 7.9037 3.75 9.15179V41.0268C3.75 42.2749 4.59717 43.3036 5.625 43.3036H18.125V44.8214H14.375V49.375H35.625V44.8214H31.875V43.3036H44.375C45.4028 43.3036 46.25 42.2749 46.25 41.0268V9.15179C46.25 7.9037 45.4028 6.875 44.375 6.875H5.625ZM5.625 8.39286H44.375C44.729 8.39286 45 8.72192 45 9.15179V41.0268C45 41.4566 44.729 41.7857 44.375 41.7857H5.625C5.271 41.7857 5 41.4566 5 41.0268V9.15179C5 8.72192 5.271 8.39286 5.625 8.39286ZM7.5 10.6696C7.15576 10.6696 6.875 11.0106 6.875 11.4286C6.875 11.8466 7.15576 12.1875 7.5 12.1875C7.84424 12.1875 8.125 11.8466 8.125 11.4286C8.125 11.0106 7.84424 10.6696 7.5 10.6696ZM10 10.6696C9.65576 10.6696 9.375 11.0106 9.375 11.4286C9.375 11.8466 9.65576 12.1875 10 12.1875C10.3442 12.1875 10.625 11.8466 10.625 11.4286C10.625 11.0106 10.3442 10.6696 10 10.6696ZM12.5 10.6696C12.1558 10.6696 11.875 11.0106 11.875 11.4286C11.875 11.8466 12.1558 12.1875 12.5 12.1875C12.8442 12.1875 13.125 11.8466 13.125 11.4286C13.125 11.0106 12.8442 10.6696 12.5 10.6696ZM15 10.6696C14.6558 10.6696 14.375 11.0106 14.375 11.4286C14.375 11.8466 14.6558 12.1875 15 12.1875C15.3442 12.1875 15.625 11.8466 15.625 11.4286C15.625 11.0106 15.3442 10.6696 15 10.6696ZM17.5 10.6696C17.1558 10.6696 16.875 11.0106 16.875 11.4286C16.875 11.8466 17.1558 12.1875 17.5 12.1875C17.8442 12.1875 18.125 11.8466 18.125 11.4286C18.125 11.0106 17.8442 10.6696 17.5 10.6696ZM20 10.6696C19.6558 10.6696 19.375 11.0106 19.375 11.4286C19.375 11.8466 19.6558 12.1875 20 12.1875C20.3442 12.1875 20.625 11.8466 20.625 11.4286C20.625 11.0106 20.3442 10.6696 20 10.6696ZM22.5 10.6696C22.1558 10.6696 21.875 11.0106 21.875 11.4286C21.875 11.8466 22.1558 12.1875 22.5 12.1875C22.8442 12.1875 23.125 11.8466 23.125 11.4286C23.125 11.0106 22.8442 10.6696 22.5 10.6696ZM25 10.6696C24.6558 10.6696 24.375 11.0106 24.375 11.4286C24.375 11.8466 24.6558 12.1875 25 12.1875C25.3442 12.1875 25.625 11.8466 25.625 11.4286C25.625 11.0106 25.3442 10.6696 25 10.6696ZM27.5 10.6696C27.1558 10.6696 26.875 11.0106 26.875 11.4286C26.875 11.8466 27.1558 12.1875 27.5 12.1875C27.8442 12.1875 28.125 11.8466 28.125 11.4286C28.125 11.0106 27.8442 10.6696 27.5 10.6696ZM30 10.6696C29.6558 10.6696 29.375 11.0106 29.375 11.4286C29.375 11.8466 29.6558 12.1875 30 12.1875C30.3442 12.1875 30.625 11.8466 30.625 11.4286C30.625 11.0106 30.3442 10.6696 30 10.6696ZM32.5 10.6696C32.1558 10.6696 31.875 11.0106 31.875 11.4286C31.875 11.8466 32.1558 12.1875 32.5 12.1875C32.8442 12.1875 33.125 11.8466 33.125 11.4286C33.125 11.0106 32.8442 10.6696 32.5 10.6696ZM35 10.6696C34.6558 10.6696 34.375 11.0106 34.375 11.4286C34.375 11.8466 34.6558 12.1875 35 12.1875C35.3442 12.1875 35.625 11.8466 35.625 11.4286C35.625 11.0106 35.3442 10.6696 35 10.6696ZM37.5 10.6696C37.1558 10.6696 36.875 11.0106 36.875 11.4286C36.875 11.8466 37.1558 12.1875 37.5 12.1875C37.8442 12.1875 38.125 11.8466 38.125 11.4286C38.125 11.0106 37.8442 10.6696 37.5 10.6696ZM40 10.6696C39.6558 10.6696 39.375 11.0106 39.375 11.4286C39.375 11.8466 39.6558 12.1875 40 12.1875C40.3442 12.1875 40.625 11.8466 40.625 11.4286C40.625 11.0106 40.3442 10.6696 40 10.6696ZM42.5 10.6696C42.1558 10.6696 41.875 11.0106 41.875 11.4286C41.875 11.8466 42.1558 12.1875 42.5 12.1875C42.8442 12.1875 43.125 11.8466 43.125 11.4286C43.125 11.0106 42.8442 10.6696 42.5 10.6696ZM7.5 13.7054C7.15576 13.7054 6.875 14.0463 6.875 14.4643C6.875 14.8823 7.15576 15.2232 7.5 15.2232C7.84424 15.2232 8.125 14.8823 8.125 14.4643C8.125 14.0463 7.84424 13.7054 7.5 13.7054ZM42.5 13.7054C42.1558 13.7054 41.875 14.0463 41.875 14.4643C41.875 14.8823 42.1558 15.2232 42.5 15.2232C42.8442 15.2232 43.125 14.8823 43.125 14.4643C43.125 14.0463 42.8442 13.7054 42.5 13.7054ZM7.5 16.7411C7.15576 16.7411 6.875 17.082 6.875 17.5C6.875 17.918 7.15576 18.2589 7.5 18.2589C7.84424 18.2589 8.125 17.918 8.125 17.5C8.125 17.082 7.84424 16.7411 7.5 16.7411ZM42.5 16.7411C42.1558 16.7411 41.875 17.082 41.875 17.5C41.875 17.918 42.1558 18.2589 42.5 18.2589C42.8442 18.2589 43.125 17.918 43.125 17.5C43.125 17.082 42.8442 16.7411 42.5 16.7411ZM7.5 19.7768C7.15576 19.7768 6.875 20.1177 6.875 20.5357C6.875 20.9537 7.15576 21.2946 7.5 21.2946C7.84424 21.2946 8.125 20.9537 8.125 20.5357C8.125 20.1177 7.84424 19.7768 7.5 19.7768ZM42.5 19.7768C42.1558 19.7768 41.875 20.1177 41.875 20.5357C41.875 20.9537 42.1558 21.2946 42.5 21.2946C42.8442 21.2946 43.125 20.9537 43.125 20.5357C43.125 20.1177 42.8442 19.7768 42.5 19.7768ZM7.5 22.8125C7.15576 22.8125 6.875 23.1534 6.875 23.5714C6.875 23.9894 7.15576 24.3304 7.5 24.3304C7.84424 24.3304 8.125 23.9894 8.125 23.5714C8.125 23.1534 7.84424 22.8125 7.5 22.8125ZM42.5 22.8125C42.1558 22.8125 41.875 23.1534 41.875 23.5714C41.875 23.9894 42.1558 24.3304 42.5 24.3304C42.8442 24.3304 43.125 23.9894 43.125 23.5714C43.125 23.1534 42.8442 22.8125 42.5 22.8125ZM7.5 25.8482C7.15576 25.8482 6.875 26.1891 6.875 26.6071C6.875 27.0251 7.15576 27.3661 7.5 27.3661C7.84424 27.3661 8.125 27.0251 8.125 26.6071C8.125 26.1891 7.84424 25.8482 7.5 25.8482ZM42.5 25.8482C42.1558 25.8482 41.875 26.1891 41.875 26.6071C41.875 27.0251 42.1558 27.3661 42.5 27.3661C42.8442 27.3661 43.125 27.0251 43.125 26.6071C43.125 26.1891 42.8442 25.8482 42.5 25.8482ZM7.5 28.8839C7.15576 28.8839 6.875 29.2249 6.875 29.6429C6.875 30.0609 7.15576 30.4018 7.5 30.4018C7.84424 30.4018 8.125 30.0609 8.125 29.6429C8.125 29.2249 7.84424 28.8839 7.5 28.8839ZM42.5 28.8839C42.1558 28.8839 41.875 29.2249 41.875 29.6429C41.875 30.0609 42.1558 30.4018 42.5 30.4018C42.8442 30.4018 43.125 30.0609 43.125 29.6429C43.125 29.2249 42.8442 28.8839 42.5 28.8839ZM7.5 31.9196C7.15576 31.9196 6.875 32.2606 6.875 32.6786C6.875 33.0966 7.15576 33.4375 7.5 33.4375C7.84424 33.4375 8.125 33.0966 8.125 32.6786C8.125 32.2606 7.84424 31.9196 7.5 31.9196ZM42.5 31.9196C42.1558 31.9196 41.875 32.2606 41.875 32.6786C41.875 33.0966 42.1558 33.4375 42.5 33.4375C42.8442 33.4375 43.125 33.0966 43.125 32.6786C43.125 32.2606 42.8442 31.9196 42.5 31.9196ZM7.5 34.9554C7.15576 34.9554 6.875 35.2963 6.875 35.7143C6.875 36.1323 7.15576 36.4732 7.5 36.4732C7.84424 36.4732 8.125 36.1323 8.125 35.7143C8.125 35.2963 7.84424 34.9554 7.5 34.9554ZM42.5 34.9554C42.1558 34.9554 41.875 35.2963 41.875 35.7143C41.875 36.1323 42.1558 36.4732 42.5 36.4732C42.8442 36.4732 43.125 36.1323 43.125 35.7143C43.125 35.2963 42.8442 34.9554 42.5 34.9554ZM7.5 37.9911C7.15576 37.9911 6.875 38.332 6.875 38.75C6.875 39.168 7.15576 39.5089 7.5 39.5089C7.84424 39.5089 8.125 39.168 8.125 38.75C8.125 38.332 7.84424 37.9911 7.5 37.9911ZM10 37.9911C9.65576 37.9911 9.375 38.332 9.375 38.75C9.375 39.168 9.65576 39.5089 10 39.5089C10.3442 39.5089 10.625 39.168 10.625 38.75C10.625 38.332 10.3442 37.9911 10 37.9911ZM12.5 37.9911C12.1558 37.9911 11.875 38.332 11.875 38.75C11.875 39.168 12.1558 39.5089 12.5 39.5089C12.8442 39.5089 13.125 39.168 13.125 38.75C13.125 38.332 12.8442 37.9911 12.5 37.9911ZM15 37.9911C14.6558 37.9911 14.375 38.332 14.375 38.75C14.375 39.168 14.6558 39.5089 15 39.5089C15.3442 39.5089 15.625 39.168 15.625 38.75C15.625 38.332 15.3442 37.9911 15 37.9911ZM17.5 37.9911C17.1558 37.9911 16.875 38.332 16.875 38.75C16.875 39.168 17.1558 39.5089 17.5 39.5089C17.8442 39.5089 18.125 39.168 18.125 38.75C18.125 38.332 17.8442 37.9911 17.5 37.9911ZM20 37.9911C19.6558 37.9911 19.375 38.332 19.375 38.75C19.375 39.168 19.6558 39.5089 20 39.5089C20.3442 39.5089 20.625 39.168 20.625 38.75C20.625 38.332 20.3442 37.9911 20 37.9911ZM22.5 37.9911C22.1558 37.9911 21.875 38.332 21.875 38.75C21.875 39.168 22.1558 39.5089 22.5 39.5089C22.8442 39.5089 23.125 39.168 23.125 38.75C23.125 38.332 22.8442 37.9911 22.5 37.9911ZM25 37.9911C24.6558 37.9911 24.375 38.332 24.375 38.75C24.375 39.168 24.6558 39.5089 25 39.5089C25.3442 39.5089 25.625 39.168 25.625 38.75C25.625 38.332 25.3442 37.9911 25 37.9911ZM27.5 37.9911C27.1558 37.9911 26.875 38.332 26.875 38.75C26.875 39.168 27.1558 39.5089 27.5 39.5089C27.8442 39.5089 28.125 39.168 28.125 38.75C28.125 38.332 27.8442 37.9911 27.5 37.9911ZM30 37.9911C29.6558 37.9911 29.375 38.332 29.375 38.75C29.375 39.168 29.6558 39.5089 30 39.5089C30.3442 39.5089 30.625 39.168 30.625 38.75C30.625 38.332 30.3442 37.9911 30 37.9911ZM32.5 37.9911C32.1558 37.9911 31.875 38.332 31.875 38.75C31.875 39.168 32.1558 39.5089 32.5 39.5089C32.8442 39.5089 33.125 39.168 33.125 38.75C33.125 38.332 32.8442 37.9911 32.5 37.9911ZM35 37.9911C34.6558 37.9911 34.375 38.332 34.375 38.75C34.375 39.168 34.6558 39.5089 35 39.5089C35.3442 39.5089 35.625 39.168 35.625 38.75C35.625 38.332 35.3442 37.9911 35 37.9911ZM37.5 37.9911C37.1558 37.9911 36.875 38.332 36.875 38.75C36.875 39.168 37.1558 39.5089 37.5 39.5089C37.8442 39.5089 38.125 39.168 38.125 38.75C38.125 38.332 37.8442 37.9911 37.5 37.9911ZM40 37.9911C39.6558 37.9911 39.375 38.332 39.375 38.75C39.375 39.168 39.6558 39.5089 40 39.5089C40.3442 39.5089 40.625 39.168 40.625 38.75C40.625 38.332 40.3442 37.9911 40 37.9911ZM42.5 37.9911C42.1558 37.9911 41.875 38.332 41.875 38.75C41.875 39.168 42.1558 39.5089 42.5 39.5089C42.8442 39.5089 43.125 39.168 43.125 38.75C43.125 38.332 42.8442 37.9911 42.5 37.9911ZM19.375 43.3036H30.625V44.8214H19.375V43.3036ZM15.625 46.3393H34.375V47.8571H15.625V46.3393Z" fill="#444444"/>
<path d="M31.325 15.925C29.8093 15.925 28.575 17.1593 28.575 18.675C28.575 18.7545 28.5804 18.8329 28.5879 18.9113L20.4496 22.9031C19.9705 22.4971 19.3518 22.25 18.675 22.25C17.1593 22.25 15.925 23.4843 15.925 25C15.925 26.5157 17.1593 27.75 18.675 27.75C19.3518 27.75 19.9705 27.5029 20.4496 27.0969L28.5879 31.0887C28.5804 31.1671 28.575 31.2455 28.575 31.325C28.575 32.8407 29.8093 34.075 31.325 34.075C32.8407 34.075 34.075 32.8407 34.075 31.325C34.075 29.8093 32.8407 28.575 31.325 28.575C30.6912 28.575 30.1079 28.7931 29.6417 29.1551L21.4186 25.1203C21.4207 25.0806 21.425 25.0408 21.425 25C21.425 24.9592 21.4207 24.9194 21.4186 24.8797L29.6417 20.8449C30.1079 21.2069 30.6912 21.425 31.325 21.425C32.8407 21.425 34.075 20.1907 34.075 18.675C34.075 17.1593 32.8407 15.925 31.325 15.925ZM31.325 16.475C32.5432 16.475 33.525 17.4568 33.525 18.675C33.525 19.8932 32.5432 20.875 31.325 20.875C30.1068 20.875 29.125 19.8932 29.125 18.675C29.125 17.4568 30.1068 16.475 31.325 16.475ZM31.325 17.025C31.1735 17.025 31.05 17.1485 31.05 17.3C31.05 17.4515 31.1735 17.575 31.325 17.575C31.4765 17.575 31.6 17.4515 31.6 17.3C31.6 17.1485 31.4765 17.025 31.325 17.025ZM30.3571 17.4278C30.2819 17.4267 30.21 17.4557 30.1573 17.5084C30.051 17.6158 30.051 17.7898 30.1573 17.8973C30.2648 18.0047 30.4398 18.0047 30.5473 17.8973C30.6536 17.7898 30.6536 17.6158 30.5473 17.5084C30.4957 17.4579 30.428 17.4289 30.3571 17.4278ZM32.3015 17.4278C32.2273 17.4267 32.1554 17.4557 32.1027 17.5084C31.9953 17.6158 31.9953 17.7898 32.1027 17.8973C32.2102 18.0047 32.3842 18.0047 32.4916 17.8973C32.599 17.7898 32.599 17.6158 32.4916 17.5084C32.4411 17.4579 32.3734 17.4289 32.3015 17.4278ZM29.95 18.4C29.7985 18.4 29.675 18.5235 29.675 18.675C29.675 18.8265 29.7985 18.95 29.95 18.95C30.1015 18.95 30.225 18.8265 30.225 18.675C30.225 18.5235 30.1015 18.4 29.95 18.4ZM32.7 18.4C32.5485 18.4 32.425 18.5235 32.425 18.675C32.425 18.8265 32.5485 18.95 32.7 18.95C32.8515 18.95 32.975 18.8265 32.975 18.675C32.975 18.5235 32.8515 18.4 32.7 18.4ZM30.3571 19.3722C30.2819 19.3711 30.211 19.4001 30.1584 19.4527C30.051 19.5601 30.051 19.7342 30.1584 19.8416C30.2658 19.949 30.4398 19.949 30.5473 19.8416C30.6547 19.7342 30.6547 19.5601 30.5473 19.4527C30.4968 19.4022 30.428 19.3732 30.3571 19.3722ZM32.3015 19.3722C32.2273 19.3711 32.1554 19.4001 32.1027 19.4527C31.9953 19.5601 31.9953 19.7342 32.1027 19.8416C32.2102 19.949 32.3842 19.949 32.4916 19.8416C32.599 19.7342 32.599 19.5601 32.4916 19.4527C32.4411 19.4022 32.3734 19.3732 32.3015 19.3722ZM28.6942 19.471C28.8027 19.8308 28.9832 20.1585 29.2195 20.4399L21.3337 24.3082C21.2381 23.944 21.0716 23.6099 20.8481 23.321L28.6942 19.471ZM31.325 19.775C31.1735 19.775 31.05 19.8985 31.05 20.05C31.05 20.2015 31.1735 20.325 31.325 20.325C31.4765 20.325 31.6 20.2015 31.6 20.05C31.6 19.8985 31.4765 19.775 31.325 19.775ZM18.675 22.8C19.8932 22.8 20.875 23.7818 20.875 25C20.875 26.2182 19.8932 27.2 18.675 27.2C17.4568 27.2 16.475 26.2182 16.475 25C16.475 23.7818 17.4568 22.8 18.675 22.8ZM18.675 23.35C18.5235 23.35 18.4 23.4735 18.4 23.625C18.4 23.7765 18.5235 23.9 18.675 23.9C18.8265 23.9 18.95 23.7765 18.95 23.625C18.95 23.4735 18.8265 23.35 18.675 23.35ZM19.6504 23.7528C19.5763 23.7517 19.5054 23.7808 19.4527 23.8323C19.3453 23.9397 19.3453 24.1148 19.4527 24.2223C19.5602 24.3286 19.7342 24.3286 19.8416 24.2223C19.949 24.1148 19.949 23.9397 19.8416 23.8323C19.7911 23.7818 19.7224 23.7528 19.6504 23.7528ZM17.7071 23.7528C17.6319 23.7517 17.56 23.7808 17.5073 23.8334C17.401 23.9408 17.401 24.1148 17.5073 24.2223C17.6147 24.3297 17.7898 24.3297 17.8973 24.2223C18.0036 24.1148 18.0036 23.9408 17.8973 23.8334C17.8457 23.7829 17.778 23.7539 17.7071 23.7528ZM17.3 24.725C17.1485 24.725 17.025 24.8485 17.025 25C17.025 25.1515 17.1485 25.275 17.3 25.275C17.4515 25.275 17.575 25.1515 17.575 25C17.575 24.8485 17.4515 24.725 17.3 24.725ZM20.05 24.725C19.8985 24.725 19.775 24.8485 19.775 25C19.775 25.1515 19.8985 25.275 20.05 25.275C20.2015 25.275 20.325 25.1515 20.325 25C20.325 24.8485 20.2015 24.725 20.05 24.725ZM21.3337 25.6918L29.2195 29.56C28.9832 29.8415 28.8027 30.1691 28.6942 30.529L20.8481 26.679C21.0716 26.39 21.2381 26.0559 21.3337 25.6918ZM17.7071 25.6972C17.6319 25.6961 17.561 25.7251 17.5084 25.7777C17.401 25.8851 17.401 26.0592 17.5084 26.1666C17.6158 26.274 17.7898 26.274 17.8973 26.1666C18.0047 26.0592 18.0047 25.8851 17.8973 25.7777C17.8468 25.7272 17.778 25.6982 17.7071 25.6972ZM19.6515 25.6972C19.5773 25.6961 19.5054 25.7251 19.4527 25.7777C19.3453 25.8851 19.3453 26.0592 19.4527 26.1666C19.5602 26.274 19.7342 26.274 19.8416 26.1666C19.949 26.0592 19.949 25.8851 19.8416 25.7777C19.7911 25.7272 19.7234 25.6982 19.6515 25.6972ZM18.675 26.1C18.5235 26.1 18.4 26.2235 18.4 26.375C18.4 26.5265 18.5235 26.65 18.675 26.65C18.8265 26.65 18.95 26.5265 18.95 26.375C18.95 26.2235 18.8265 26.1 18.675 26.1ZM31.325 29.125C32.5432 29.125 33.525 30.1068 33.525 31.325C33.525 32.5432 32.5432 33.525 31.325 33.525C30.1068 33.525 29.125 32.5432 29.125 31.325C29.125 30.1068 30.1068 29.125 31.325 29.125ZM31.325 29.675C31.1735 29.675 31.05 29.7985 31.05 29.95C31.05 30.1015 31.1735 30.225 31.325 30.225C31.4765 30.225 31.6 30.1015 31.6 29.95C31.6 29.7985 31.4765 29.675 31.325 29.675ZM30.3571 30.0778C30.2819 30.0767 30.21 30.1058 30.1573 30.1584C30.051 30.2658 30.051 30.4398 30.1573 30.5473C30.2648 30.6547 30.4398 30.6547 30.5473 30.5473C30.6536 30.4398 30.6536 30.2658 30.5473 30.1584C30.4957 30.1079 30.428 30.0789 30.3571 30.0778ZM32.3004 30.0778C32.2263 30.0767 32.1554 30.1058 32.1027 30.1573C32.0512 30.21 32.0222 30.2798 32.0222 30.3528C32.0222 30.4259 32.0512 30.4957 32.1027 30.5473C32.2102 30.6547 32.3842 30.6547 32.4916 30.5473C32.5432 30.4957 32.5722 30.4259 32.5722 30.3528C32.5722 30.2798 32.5432 30.21 32.4916 30.1573C32.4411 30.1079 32.3724 30.0789 32.3004 30.0778ZM29.95 31.05C29.7985 31.05 29.675 31.1735 29.675 31.325C29.675 31.4765 29.7985 31.6 29.95 31.6C30.1015 31.6 30.225 31.4765 30.225 31.325C30.225 31.1735 30.1015 31.05 29.95 31.05ZM32.7 31.05C32.5485 31.05 32.425 31.1735 32.425 31.325C32.425 31.4765 32.5485 31.6 32.7 31.6C32.8515 31.6 32.975 31.4765 32.975 31.325C32.975 31.1735 32.8515 31.05 32.7 31.05ZM32.3004 32.0222C32.2263 32.0211 32.1554 32.0501 32.1027 32.1027C31.9953 32.2101 31.9953 32.3842 32.1027 32.4916C32.2102 32.599 32.3842 32.599 32.4916 32.4916C32.599 32.3842 32.599 32.2101 32.4916 32.1027C32.4411 32.0522 32.3724 32.0232 32.3004 32.0222ZM30.3571 32.0222C30.2819 32.0211 30.21 32.0501 30.1573 32.1027C30.051 32.2101 30.051 32.3852 30.1573 32.4927C30.2648 32.599 30.4398 32.599 30.5473 32.4927C30.6536 32.3852 30.6536 32.2101 30.5473 32.1027C30.4957 32.0522 30.428 32.0243 30.3571 32.0222ZM31.325 32.425C31.1735 32.425 31.05 32.5485 31.05 32.7C31.05 32.8515 31.1735 32.975 31.325 32.975C31.4765 32.975 31.6 32.8515 31.6 32.7C31.6 32.5485 31.4765 32.425 31.325 32.425Z" fill="#444444"/>
</g>
<defs>
<clipPath id="clip0_129:600">
<rect width="50" height="50" fill="white"/>
</clipPath>
</defs>
</svg>
