<svg width="40" height="40" viewBox="0 0 40 40" fill="none" xmlns="http://www.w3.org/2000/svg">
<path d="M6 4.19141V15.3496L2.89844 20L6 24.6504V35.8086L37.6172 20L36.7246 19.5527L6 4.19141ZM7 5.80859L35.3828 20L7 34.1914V24.9141L30.0938 20.4922V19.5078L7 15.0859V5.80859ZM6.73242 16.0547L27.3418 20L6.73242 23.9453L4.10156 20L6.73242 16.0547ZM6 19.5C5.72461 19.5 5.5 19.7246 5.5 20C5.5 20.2754 5.72461 20.5 6 20.5C6.27539 20.5 6.5 20.2754 6.5 20C6.5 19.7246 6.27539 19.5 6 19.5ZM8 19.5C7.72461 19.5 7.5 19.7246 7.5 20C7.5 20.2754 7.72461 20.5 8 20.5C8.27539 20.5 8.5 20.2754 8.5 20C8.5 19.7246 8.27539 19.5 8 19.5ZM10 19.5C9.72461 19.5 9.5 19.7246 9.5 20C9.5 20.2754 9.72461 20.5 10 20.5C10.2754 20.5 10.5 20.2754 10.5 20C10.5 19.7246 10.2754 19.5 10 19.5ZM12 19.5C11.7246 19.5 11.5 19.7246 11.5 20C11.5 20.2754 11.7246 20.5 12 20.5C12.2754 20.5 12.5 20.2754 12.5 20C12.5 19.7246 12.2754 19.5 12 19.5ZM14 19.5C13.7246 19.5 13.5 19.7246 13.5 20C13.5 20.2754 13.7246 20.5 14 20.5C14.2754 20.5 14.5 20.2754 14.5 20C14.5 19.7246 14.2754 19.5 14 19.5ZM16 19.5C15.7246 19.5 15.5 19.7246 15.5 20C15.5 20.2754 15.7246 20.5 16 20.5C16.2754 20.5 16.5 20.2754 16.5 20C16.5 19.7246 16.2754 19.5 16 19.5ZM18 19.5C17.7246 19.5 17.5 19.7246 17.5 20C17.5 20.2754 17.7246 20.5 18 20.5C18.2754 20.5 18.5 20.2754 18.5 20C18.5 19.7246 18.2754 19.5 18 19.5ZM20 19.5C19.7246 19.5 19.5 19.7246 19.5 20C19.5 20.2754 19.7246 20.5 20 20.5C20.2754 20.5 20.5 20.2754 20.5 20C20.5 19.7246 20.2754 19.5 20 19.5ZM22 19.5C21.7246 19.5 21.5 19.7246 21.5 20C21.5 20.2754 21.7246 20.5 22 20.5C22.2754 20.5 22.5 20.2754 22.5 20C22.5 19.7246 22.2754 19.5 22 19.5ZM24 19.5C23.7246 19.5 23.5 19.7246 23.5 20C23.5 20.2754 23.7246 20.5 24 20.5C24.2754 20.5 24.5 20.2754 24.5 20C24.5 19.7246 24.2754 19.5 24 19.5Z" fill="black"/>
</svg>
