<svg width="50" height="50" viewBox="0 0 50 50" fill="none" xmlns="http://www.w3.org/2000/svg">
<path d="M22.7026 3.75L21.2817 7.29736C19.043 7.76611 16.9604 8.64258 15.1074 9.85352L11.5991 8.34961L8.34961 11.5991L9.85352 15.1074C8.64014 16.9604 7.76611 19.043 7.29736 21.2817L3.75 22.7026V27.2974L7.29736 28.7183C7.76611 30.957 8.64258 33.0396 9.85352 34.8926L8.34961 38.4009L11.5991 41.6504L15.1074 40.1465C16.9604 41.3599 19.043 42.2339 21.2817 42.7026L22.7026 46.25H27.2974L28.7183 42.7026C30.957 42.2339 33.0396 41.3574 34.8926 40.1465L38.4009 41.6504L41.6504 38.4009L40.1465 34.8926C41.3599 33.0396 42.2339 30.957 42.7026 28.7183L46.25 27.2974V22.7026L42.7026 21.2817C42.2339 19.043 41.3574 16.9604 40.1465 15.1074L41.6504 11.5991L38.4009 8.34961L34.8926 9.85352C33.0396 8.64014 30.957 7.76611 28.7183 7.29736L27.2974 3.75H22.7026ZM23.5474 5H26.4526L27.793 8.35693L28.1323 8.41797C30.4614 8.85742 32.6245 9.77051 34.5117 11.062L34.7949 11.2524L38.1152 9.83154L40.1685 11.8848L38.7451 15.2051L38.938 15.4883C40.2295 17.3755 41.1426 19.5361 41.5796 21.8677L41.6431 22.207L45 23.5474V26.4526L41.6431 27.793L41.582 28.1323C41.1426 30.4614 40.2295 32.6245 38.938 34.5117L38.7476 34.7949L40.1685 38.1152L38.1152 40.1685L34.7949 38.7451L34.5117 38.938C32.6245 40.2295 30.4639 41.1426 28.1323 41.5796L27.793 41.6431L26.4526 45H23.5474L22.207 41.6431L21.8677 41.582C19.5386 41.1426 17.3755 40.2295 15.4883 38.938L15.2051 38.7476L11.8848 40.1685L9.83154 38.1152L11.2549 34.7949L11.062 34.5117C9.77051 32.6245 8.85742 30.4639 8.42041 28.1323L8.35693 27.793L5 26.4526V23.5474L8.35693 22.207L8.41797 21.8677C8.85742 19.5386 9.77051 17.3755 11.062 15.4883L11.2524 15.2051L9.83154 11.8848L11.8848 9.83154L15.2051 11.2549L15.4883 11.062C17.3755 9.77051 19.5361 8.85742 21.8677 8.42041L22.207 8.35693L23.5474 5ZM25 13.125C24.6558 13.125 24.375 13.4058 24.375 13.75C24.375 14.0942 24.6558 14.375 25 14.375C25.3442 14.375 25.625 14.0942 25.625 13.75C25.625 13.4058 25.3442 13.125 25 13.125ZM22.0923 13.5083C22.0776 13.5083 22.063 13.5083 22.0508 13.5083C22.0068 13.5132 21.9678 13.5181 21.9263 13.5303C21.5918 13.6206 21.394 13.9624 21.4844 14.2969C21.5747 14.6289 21.9165 14.8267 22.2485 14.7363C22.583 14.6484 22.7808 14.3066 22.6929 13.9722C22.6196 13.7012 22.3755 13.5107 22.0923 13.5083ZM27.9077 13.5083C27.627 13.5107 27.3804 13.7012 27.3071 13.9722C27.2192 14.3066 27.417 14.6484 27.7515 14.7363C28.0835 14.8267 28.4253 14.6289 28.5156 14.2969C28.606 13.9624 28.4082 13.6206 28.0737 13.5303C28.02 13.5156 27.9639 13.5083 27.9077 13.5083ZM19.3604 14.6313C19.2554 14.6338 19.1528 14.6631 19.0625 14.7168C18.9185 14.7974 18.8135 14.9341 18.7695 15.0952C18.728 15.2563 18.75 15.4272 18.833 15.5688C18.916 15.7129 19.0527 15.8179 19.2139 15.8618C19.3726 15.9033 19.5435 15.8813 19.6875 15.7983C19.9854 15.625 20.0879 15.2441 19.9146 14.9438C19.8022 14.7461 19.5898 14.6265 19.3604 14.6313ZM30.5957 14.6338C30.3833 14.6436 30.1904 14.7607 30.083 14.9438C30 15.0879 29.978 15.2588 30.0195 15.4199C30.0635 15.5811 30.1685 15.7178 30.3125 15.8008C30.6104 15.9717 30.9937 15.8691 31.1646 15.5688C31.3379 15.271 31.2354 14.8901 30.9375 14.7168C30.8325 14.6558 30.7153 14.6289 30.5957 14.6338ZM17.0532 16.4185C16.8848 16.4185 16.7212 16.4844 16.6016 16.6016C16.3599 16.8457 16.3599 17.2437 16.6016 17.4878C16.8457 17.7295 17.2437 17.7295 17.4878 17.4878C17.7295 17.2437 17.7295 16.8457 17.4878 16.6016C17.3706 16.4868 17.2168 16.4209 17.0532 16.4185ZM32.9639 16.4185C32.7954 16.416 32.6318 16.4819 32.5122 16.6016C32.2681 16.8457 32.2681 17.2437 32.5122 17.4878C32.7563 17.7295 33.1519 17.7295 33.396 17.4878C33.6401 17.2437 33.6401 16.8457 33.396 16.6016C33.2812 16.4868 33.1274 16.4233 32.9639 16.4185ZM34.7266 18.75C34.6216 18.7524 34.519 18.7817 34.4287 18.833C34.2847 18.916 34.1797 19.0527 34.1382 19.2139C34.0942 19.3726 34.1162 19.5435 34.1992 19.6875C34.3726 19.9854 34.7559 20.0879 35.0537 19.9146C35.3516 19.7437 35.4565 19.3604 35.2832 19.0625C35.1685 18.8647 34.9561 18.7451 34.7266 18.75ZM15.2271 18.75C15.0146 18.7622 14.8218 18.8794 14.7168 19.0625C14.6313 19.2065 14.6094 19.3774 14.6533 19.5361C14.6973 19.6973 14.8022 19.834 14.9438 19.917C15.2441 20.0903 15.625 19.9854 15.7983 19.6875C15.9717 19.3896 15.8691 19.0063 15.5688 18.8354C15.4663 18.7744 15.3467 18.7451 15.2271 18.75ZM25 20C22.2461 20 20 22.2461 20 25C20 27.7539 22.2461 30 25 30C27.7539 30 30 27.7539 30 25C30 22.2461 27.7539 20 25 20ZM25 21.25C27.0776 21.25 28.75 22.9224 28.75 25C28.75 27.0776 27.0776 28.75 25 28.75C22.9224 28.75 21.25 27.0776 21.25 25C21.25 22.9224 22.9224 21.25 25 21.25ZM14.1284 21.4648C13.8452 21.4673 13.6011 21.6553 13.5278 21.9263C13.4399 22.2607 13.6377 22.6025 13.9722 22.6929C14.3042 22.7832 14.646 22.5854 14.7363 22.251C14.8267 21.9165 14.6289 21.5747 14.2944 21.4844C14.2407 21.4697 14.1846 21.4624 14.1284 21.4648ZM35.8716 21.4648C35.8569 21.4624 35.8423 21.4648 35.8276 21.4648C35.7861 21.4673 35.7446 21.4746 35.7031 21.4844C35.3711 21.5747 35.1733 21.9165 35.2637 22.251C35.3516 22.5854 35.6934 22.7832 36.0278 22.6929C36.3623 22.6025 36.5601 22.2607 36.4697 21.9263C36.3965 21.6553 36.1523 21.4673 35.8716 21.4648ZM13.75 24.375C13.4058 24.375 13.125 24.6558 13.125 25C13.125 25.3442 13.4058 25.625 13.75 25.625C14.0942 25.625 14.375 25.3442 14.375 25C14.375 24.6558 14.0942 24.375 13.75 24.375ZM36.25 24.375C35.9058 24.375 35.625 24.6558 35.625 25C35.625 25.3442 35.9058 25.625 36.25 25.625C36.5942 25.625 36.875 25.3442 36.875 25C36.875 24.6558 36.5942 24.375 36.25 24.375ZM14.1577 27.2876C14.0942 27.2852 14.0308 27.2925 13.9722 27.3071C13.6377 27.3975 13.4399 27.7393 13.5278 28.0737C13.6182 28.4082 13.96 28.606 14.2944 28.5156C14.6289 28.4253 14.8267 28.0835 14.7363 27.7515C14.6655 27.4854 14.4312 27.2974 14.1577 27.2876ZM35.8594 27.2876C35.5786 27.29 35.3345 27.4805 35.2637 27.7515C35.2197 27.9126 35.2417 28.0835 35.3247 28.2251C35.4077 28.3691 35.5444 28.4741 35.7056 28.5156C36.04 28.606 36.3818 28.4082 36.4722 28.0762C36.5601 27.7417 36.3623 27.3999 36.0278 27.3096C35.9741 27.2949 35.918 27.2876 35.8594 27.2876ZM15.2441 30C15.1392 30.0024 15.0366 30.0293 14.9438 30.083C14.646 30.2563 14.5435 30.6372 14.7168 30.9375C14.7974 31.0791 14.9341 31.1841 15.0952 31.228C15.2563 31.272 15.4272 31.25 15.5688 31.1646C15.7129 31.084 15.8179 30.9473 15.8618 30.7861C15.9033 30.625 15.8813 30.4541 15.7983 30.3125C15.6836 30.1123 15.4712 29.9927 15.2441 30ZM34.7144 30.0024C34.4995 30.0122 34.3066 30.1294 34.1992 30.3125C34.1162 30.4565 34.0942 30.6274 34.1382 30.7886C34.1821 30.9497 34.2871 31.0864 34.4312 31.1694C34.729 31.3403 35.1099 31.2378 35.2832 30.9375C35.4565 30.6396 35.354 30.2588 35.0562 30.0854C34.9512 30.0244 34.8315 29.9976 34.7144 30.0024ZM17.0532 32.3315C16.8848 32.3291 16.7212 32.395 16.6016 32.5122C16.3599 32.7563 16.3599 33.1543 16.6016 33.3984C16.8457 33.6401 17.2437 33.6401 17.4878 33.3984C17.7295 33.1543 17.7295 32.7563 17.4878 32.5122C17.3706 32.3975 17.2168 32.3315 17.0532 32.3315ZM32.9639 32.3315C32.7954 32.3267 32.6318 32.3926 32.5122 32.5122C32.2681 32.7563 32.2681 33.1543 32.5122 33.3984C32.7563 33.6401 33.1519 33.6401 33.396 33.3984C33.6401 33.1543 33.6401 32.7563 33.396 32.5122C33.2812 32.3975 33.1274 32.334 32.9639 32.3315ZM30.6079 34.1187C30.5054 34.1187 30.4028 34.1479 30.3125 34.1992C30.0122 34.3726 29.9097 34.7559 30.083 35.0537C30.2563 35.3516 30.6372 35.4565 30.9375 35.2832C31.0791 35.2002 31.1841 35.0635 31.228 34.9023C31.272 34.7437 31.25 34.5728 31.1646 34.4287C31.0522 34.231 30.8374 34.1113 30.6079 34.1187ZM19.3457 34.1187C19.1309 34.1284 18.938 34.2456 18.833 34.4312C18.6597 34.729 18.7622 35.1123 19.0625 35.2832C19.2041 35.3687 19.375 35.3906 19.5361 35.3467C19.6973 35.3052 19.834 35.2002 19.9146 35.0562C20 34.9121 20.022 34.7412 19.978 34.5825C19.9341 34.4214 19.8291 34.2847 19.6875 34.2017C19.5825 34.1406 19.4629 34.1138 19.3457 34.1187ZM22.0825 35.2441C21.8018 35.2466 21.5576 35.4346 21.4844 35.7056C21.394 36.04 21.5918 36.3818 21.9263 36.4722C22.2607 36.5625 22.6025 36.3647 22.6929 36.0303C22.7344 35.8691 22.7124 35.6982 22.6294 35.5542C22.5464 35.4126 22.4097 35.3076 22.2485 35.2637C22.1948 35.249 22.1387 35.2417 22.0825 35.2441ZM27.937 35.2441C27.8735 35.2417 27.8101 35.2466 27.7515 35.2637C27.417 35.354 27.2192 35.6958 27.3071 36.0278C27.3975 36.3623 27.7393 36.5601 28.0737 36.4722C28.4082 36.3818 28.606 36.04 28.5156 35.7056C28.4448 35.4419 28.2104 35.2539 27.937 35.2441ZM25 35.625C24.6558 35.625 24.375 35.9058 24.375 36.25C24.375 36.5942 24.6558 36.875 25 36.875C25.3442 36.875 25.625 36.5942 25.625 36.25C25.625 35.9058 25.3442 35.625 25 35.625Z" fill="#D3D3D3"/>
</svg>
