<svg width="50" height="50" viewBox="0 0 50 50" fill="none" xmlns="http://www.w3.org/2000/svg">
<path d="M5.625 6.25V45H44.375V6.25H5.625ZM6.875 7.5H43.125V43.75H6.875V7.5ZM18.75 8.75C18.4058 8.75 18.125 9.03076 18.125 9.375C18.125 9.71924 18.4058 10 18.75 10C19.0942 10 19.375 9.71924 19.375 9.375C19.375 9.03076 19.0942 8.75 18.75 8.75ZM31.25 8.75C30.9058 8.75 30.625 9.03076 30.625 9.375C30.625 9.71924 30.9058 10 31.25 10C31.5942 10 31.875 9.71924 31.875 9.375C31.875 9.03076 31.5942 8.75 31.25 8.75ZM25 9.375C24.6558 9.375 24.375 9.65576 24.375 10C24.375 10.3442 24.6558 10.625 25 10.625C25.3442 10.625 25.625 10.3442 25.625 10C25.625 9.65576 25.3442 9.375 25 9.375ZM40.3125 9.375C39.7949 9.375 39.375 9.79492 39.375 10.3125C39.375 10.8301 39.7949 11.25 40.3125 11.25C40.8301 11.25 41.25 10.8301 41.25 10.3125C41.25 9.79492 40.8301 9.375 40.3125 9.375ZM22.8003 10.2905C22.6294 10.2881 22.4658 10.354 22.3462 10.4736C22.1045 10.7178 22.1045 11.1133 22.3462 11.3574C22.5903 11.6016 22.9883 11.6016 23.2324 11.3574C23.4741 11.1133 23.4741 10.7178 23.2324 10.4736C23.1152 10.3589 22.9614 10.293 22.8003 10.2905ZM27.2192 10.2905C27.0508 10.2881 26.8872 10.354 26.7676 10.4736C26.5234 10.7178 26.5234 11.1133 26.7676 11.3574C27.0117 11.6016 27.4072 11.6016 27.6514 11.3574C27.8955 11.1133 27.8955 10.7178 27.6514 10.4736C27.5366 10.3589 27.3828 10.293 27.2192 10.2905ZM15.3125 10.625C14.7949 10.625 14.375 11.0449 14.375 11.5625C14.375 12.0801 14.7949 12.5 15.3125 12.5C15.8301 12.5 16.25 12.0801 16.25 11.5625C16.25 11.0449 15.8301 10.625 15.3125 10.625ZM18.75 11.25C18.4058 11.25 18.125 11.5308 18.125 11.875C18.125 12.2192 18.4058 12.5 18.75 12.5C19.0942 12.5 19.375 12.2192 19.375 11.875C19.375 11.5308 19.0942 11.25 18.75 11.25ZM25 11.25C23.9722 11.25 23.125 12.0972 23.125 13.125C23.125 14.1528 23.9722 15 25 15C26.0278 15 26.875 14.1528 26.875 13.125C26.875 12.0972 26.0278 11.25 25 11.25ZM31.25 11.25C30.9058 11.25 30.625 11.5308 30.625 11.875C30.625 12.2192 30.9058 12.5 31.25 12.5C31.5942 12.5 31.875 12.2192 31.875 11.875C31.875 11.5308 31.5942 11.25 31.25 11.25ZM36.5625 11.25C35.3613 11.25 34.375 12.2363 34.375 13.4375C34.375 13.5254 34.4019 13.5889 34.4116 13.6694C34.0356 14.0112 33.75 14.4531 33.75 15C33.75 16.0278 34.5972 16.875 35.625 16.875H39.375C40.4028 16.875 41.25 16.0278 41.25 15C41.25 14.1431 40.6079 13.5303 39.8145 13.3105C39.5947 12.5171 38.9819 11.875 38.125 11.875C38.0859 11.875 38.0566 11.8848 38.0176 11.8872C37.627 11.521 37.1387 11.25 36.5625 11.25ZM21.875 12.5C21.5308 12.5 21.25 12.7808 21.25 13.125C21.25 13.4692 21.5308 13.75 21.875 13.75C22.2192 13.75 22.5 13.4692 22.5 13.125C22.5 12.7808 22.2192 12.5 21.875 12.5ZM25 12.5C25.3516 12.5 25.625 12.7734 25.625 13.125C25.625 13.4766 25.3516 13.75 25 13.75C24.6484 13.75 24.375 13.4766 24.375 13.125C24.375 12.7734 24.6484 12.5 25 12.5ZM28.125 12.5C27.7808 12.5 27.5 12.7808 27.5 13.125C27.5 13.4692 27.7808 13.75 28.125 13.75C28.4692 13.75 28.75 13.4692 28.75 13.125C28.75 12.7808 28.4692 12.5 28.125 12.5ZM36.5625 12.5C36.8823 12.5 37.1558 12.6562 37.3242 12.8979L37.5684 13.2422L37.9785 13.1445C38.042 13.1299 38.0884 13.125 38.125 13.125C38.479 13.125 38.75 13.396 38.75 13.75V14.375H39.375C39.729 14.375 40 14.646 40 15C40 15.354 39.729 15.625 39.375 15.625H35.625C35.271 15.625 35 15.354 35 15C35 14.751 35.1416 14.5459 35.3516 14.4434L35.8228 14.209L35.6714 13.7036C35.6396 13.6011 35.625 13.5132 35.625 13.4375C35.625 12.9126 36.0376 12.5 36.5625 12.5ZM10.8984 13.5254L8.55713 15.0537L9.24316 16.1011L10.8105 15.0732L12.6245 16.5698L14.1113 15.4248L15.7031 16.7334L16.4966 15.7666L14.1333 13.8281L12.6489 14.9707L10.8984 13.5254ZM18.75 13.75C18.4058 13.75 18.125 14.0308 18.125 14.375C18.125 14.7192 18.4058 15 18.75 15C19.0942 15 19.375 14.7192 19.375 14.375C19.375 14.0308 19.0942 13.75 18.75 13.75ZM31.25 13.75C30.9058 13.75 30.625 14.0308 30.625 14.375C30.625 14.7192 30.9058 15 31.25 15C31.5942 15 31.875 14.7192 31.875 14.375C31.875 14.0308 31.5942 13.75 31.25 13.75ZM22.8003 14.7095C22.6294 14.707 22.4683 14.7729 22.3486 14.8926C22.1045 15.1367 22.1045 15.5322 22.3486 15.7764C22.5928 16.0205 22.9883 16.0205 23.2324 15.7764C23.4766 15.5322 23.4766 15.1367 23.2324 14.8926C23.1177 14.7778 22.9614 14.7119 22.8003 14.7095ZM27.2192 14.7095C27.0508 14.707 26.8872 14.7729 26.7676 14.8926C26.5234 15.1367 26.5234 15.5322 26.7676 15.7764C27.0117 16.0205 27.4072 16.0205 27.6514 15.7764C27.8955 15.5322 27.8955 15.1367 27.6514 14.8926C27.5366 14.7778 27.3828 14.7119 27.2192 14.7095ZM25 15.625C24.6558 15.625 24.375 15.9058 24.375 16.25C24.375 16.5942 24.6558 16.875 25 16.875C25.3442 16.875 25.625 16.5942 25.625 16.25C25.625 15.9058 25.3442 15.625 25 15.625ZM18.75 16.25C18.4058 16.25 18.125 16.5308 18.125 16.875C18.125 17.2192 18.4058 17.5 18.75 17.5C19.0942 17.5 19.375 17.2192 19.375 16.875C19.375 16.5308 19.0942 16.25 18.75 16.25ZM31.25 16.25C30.9058 16.25 30.625 16.5308 30.625 16.875C30.625 17.2192 30.9058 17.5 31.25 17.5C31.5942 17.5 31.875 17.2192 31.875 16.875C31.875 16.5308 31.5942 16.25 31.25 16.25ZM8.75 18.75C8.40576 18.75 8.125 19.0308 8.125 19.375C8.125 19.7192 8.40576 20 8.75 20C9.09424 20 9.375 19.7192 9.375 19.375C9.375 19.0308 9.09424 18.75 8.75 18.75ZM11.25 18.75C10.9058 18.75 10.625 19.0308 10.625 19.375C10.625 19.7192 10.9058 20 11.25 20C11.5942 20 11.875 19.7192 11.875 19.375C11.875 19.0308 11.5942 18.75 11.25 18.75ZM13.75 18.75C13.4058 18.75 13.125 19.0308 13.125 19.375C13.125 19.7192 13.4058 20 13.75 20C14.0942 20 14.375 19.7192 14.375 19.375C14.375 19.0308 14.0942 18.75 13.75 18.75ZM16.25 18.75C15.9058 18.75 15.625 19.0308 15.625 19.375C15.625 19.7192 15.9058 20 16.25 20C16.5942 20 16.875 19.7192 16.875 19.375C16.875 19.0308 16.5942 18.75 16.25 18.75ZM18.75 18.75C18.4058 18.75 18.125 19.0308 18.125 19.375C18.125 19.7192 18.4058 20 18.75 20C19.0942 20 19.375 19.7192 19.375 19.375C19.375 19.0308 19.0942 18.75 18.75 18.75ZM21.25 18.75C20.9058 18.75 20.625 19.0308 20.625 19.375C20.625 19.7192 20.9058 20 21.25 20C21.5942 20 21.875 19.7192 21.875 19.375C21.875 19.0308 21.5942 18.75 21.25 18.75ZM23.75 18.75C23.4058 18.75 23.125 19.0308 23.125 19.375C23.125 19.7192 23.4058 20 23.75 20C24.0942 20 24.375 19.7192 24.375 19.375C24.375 19.0308 24.0942 18.75 23.75 18.75ZM26.25 18.75C25.9058 18.75 25.625 19.0308 25.625 19.375C25.625 19.7192 25.9058 20 26.25 20C26.5942 20 26.875 19.7192 26.875 19.375C26.875 19.0308 26.5942 18.75 26.25 18.75ZM28.75 18.75C28.4058 18.75 28.125 19.0308 28.125 19.375C28.125 19.7192 28.4058 20 28.75 20C29.0942 20 29.375 19.7192 29.375 19.375C29.375 19.0308 29.0942 18.75 28.75 18.75ZM31.25 18.75C30.9058 18.75 30.625 19.0308 30.625 19.375C30.625 19.7192 30.9058 20 31.25 20C31.5942 20 31.875 19.7192 31.875 19.375C31.875 19.0308 31.5942 18.75 31.25 18.75ZM33.75 18.75C33.4058 18.75 33.125 19.0308 33.125 19.375C33.125 19.7192 33.4058 20 33.75 20C34.0942 20 34.375 19.7192 34.375 19.375C34.375 19.0308 34.0942 18.75 33.75 18.75ZM36.25 18.75C35.9058 18.75 35.625 19.0308 35.625 19.375C35.625 19.7192 35.9058 20 36.25 20C36.5942 20 36.875 19.7192 36.875 19.375C36.875 19.0308 36.5942 18.75 36.25 18.75ZM38.75 18.75C38.4058 18.75 38.125 19.0308 38.125 19.375C38.125 19.7192 38.4058 20 38.75 20C39.0942 20 39.375 19.7192 39.375 19.375C39.375 19.0308 39.0942 18.75 38.75 18.75ZM41.25 18.75C40.9058 18.75 40.625 19.0308 40.625 19.375C40.625 19.7192 40.9058 20 41.25 20C41.5942 20 41.875 19.7192 41.875 19.375C41.875 19.0308 41.5942 18.75 41.25 18.75ZM18.75 21.25C18.4058 21.25 18.125 21.5308 18.125 21.875C18.125 22.2192 18.4058 22.5 18.75 22.5C19.0942 22.5 19.375 22.2192 19.375 21.875C19.375 21.5308 19.0942 21.25 18.75 21.25ZM31.25 21.25C30.9058 21.25 30.625 21.5308 30.625 21.875C30.625 22.2192 30.9058 22.5 31.25 22.5C31.5942 22.5 31.875 22.2192 31.875 21.875C31.875 21.5308 31.5942 21.25 31.25 21.25ZM37.5 21.875C37.1558 21.875 36.875 22.1558 36.875 22.5C36.875 22.8442 37.1558 23.125 37.5 23.125C37.8442 23.125 38.125 22.8442 38.125 22.5C38.125 22.1558 37.8442 21.875 37.5 21.875ZM12.5 22.5C11.8091 22.5 11.25 23.0591 11.25 23.75C11.25 23.8086 11.2695 23.8794 11.2866 23.9478C11.2231 23.9087 11.1621 23.877 11.1035 23.8574C10.4443 23.645 9.74121 24.0039 9.52881 24.6582C9.31396 25.3174 9.67285 26.0205 10.3296 26.2329C10.3857 26.2524 10.4517 26.2622 10.5225 26.2671C10.4687 26.3135 10.4199 26.3599 10.3857 26.4062C9.98047 26.9653 10.105 27.749 10.6641 28.1543C11.2207 28.5596 12.002 28.4351 12.4097 27.8784C12.4438 27.8296 12.4707 27.7686 12.5 27.7051C12.5269 27.7686 12.5562 27.8296 12.5903 27.8784C12.9956 28.4351 13.7769 28.5596 14.3359 28.1543C14.895 27.749 15.0195 26.9653 14.6118 26.4062C14.5776 26.3599 14.5313 26.3135 14.4751 26.2671C14.5459 26.2622 14.6143 26.2524 14.668 26.2329C15.3271 26.0205 15.686 25.3149 15.4712 24.6582C15.2588 24.0039 14.5532 23.645 13.8965 23.8574C13.8379 23.877 13.7769 23.9087 13.7134 23.9478C13.7305 23.8794 13.75 23.8086 13.75 23.75C13.75 23.0591 13.1909 22.5 12.5 22.5ZM27.8125 22.5C27.2949 22.5 26.875 22.9199 26.875 23.4375C26.875 23.9551 27.2949 24.375 27.8125 24.375C28.3301 24.375 28.75 23.9551 28.75 23.4375C28.75 22.9199 28.3301 22.5 27.8125 22.5ZM39.7168 22.7905C39.5483 22.7881 39.3872 22.854 39.2676 22.9712C39.0234 23.2153 39.0234 23.6133 39.2676 23.8574C39.5117 24.0991 39.9072 24.0991 40.1514 23.8574C40.3955 23.6133 40.3955 23.2153 40.1514 22.9712C40.0366 22.8564 39.8804 22.7905 39.7168 22.7905ZM35.3003 22.7905C35.1294 22.7881 34.9658 22.854 34.8462 22.9736C34.6045 23.2178 34.6045 23.6133 34.8462 23.8574C35.0903 24.1016 35.4883 24.1016 35.7324 23.8574C35.9741 23.6133 35.9741 23.2178 35.7324 22.9736C35.6152 22.8589 35.4614 22.793 35.3003 22.7905ZM18.75 23.75C18.4058 23.75 18.125 24.0308 18.125 24.375C18.125 24.7192 18.4058 25 18.75 25C19.0942 25 19.375 24.7192 19.375 24.375C19.375 24.0308 19.0942 23.75 18.75 23.75ZM31.25 23.75C30.9058 23.75 30.625 24.0308 30.625 24.375C30.625 24.7192 30.9058 25 31.25 25C31.5942 25 31.875 24.7192 31.875 24.375C31.875 24.0308 31.5942 23.75 31.25 23.75ZM37.5 23.75C36.4722 23.75 35.625 24.5972 35.625 25.625C35.625 26.6528 36.4722 27.5 37.5 27.5C38.5278 27.5 39.375 26.6528 39.375 25.625C39.375 24.5972 38.5278 23.75 37.5 23.75ZM12.5 24.375C13.1909 24.375 13.75 24.9341 13.75 25.625C13.75 26.3159 13.1909 26.875 12.5 26.875C11.8091 26.875 11.25 26.3159 11.25 25.625C11.25 24.9341 11.8091 24.375 12.5 24.375ZM34.375 25C34.0308 25 33.75 25.2808 33.75 25.625C33.75 25.9692 34.0308 26.25 34.375 26.25C34.7192 26.25 35 25.9692 35 25.625C35 25.2808 34.7192 25 34.375 25ZM37.5 25C37.8516 25 38.125 25.2734 38.125 25.625C38.125 25.9766 37.8516 26.25 37.5 26.25C37.1484 26.25 36.875 25.9766 36.875 25.625C36.875 25.2734 37.1484 25 37.5 25ZM40.625 25C40.2808 25 40 25.2808 40 25.625C40 25.9692 40.2808 26.25 40.625 26.25C40.9692 26.25 41.25 25.9692 41.25 25.625C41.25 25.2808 40.9692 25 40.625 25ZM23.3984 25.4004L21.0571 26.9287L21.7432 27.9761L23.3105 26.9482L25.1245 28.4448L26.6113 27.2998L28.2031 28.6084L28.9966 27.6416L26.6333 25.7031L25.1489 26.8457L23.3984 25.4004ZM18.75 26.25C18.4058 26.25 18.125 26.5308 18.125 26.875C18.125 27.2192 18.4058 27.5 18.75 27.5C19.0942 27.5 19.375 27.2192 19.375 26.875C19.375 26.5308 19.0942 26.25 18.75 26.25ZM31.25 26.25C30.9058 26.25 30.625 26.5308 30.625 26.875C30.625 27.2192 30.9058 27.5 31.25 27.5C31.5942 27.5 31.875 27.2192 31.875 26.875C31.875 26.5308 31.5942 26.25 31.25 26.25ZM35.3003 27.2095C35.1294 27.207 34.9683 27.2729 34.8486 27.3926C34.6045 27.6367 34.6045 28.0322 34.8486 28.2764C35.0928 28.5205 35.4883 28.5205 35.7324 28.2764C35.9766 28.0322 35.9766 27.6367 35.7324 27.3926C35.6177 27.2778 35.4614 27.2119 35.3003 27.2095ZM39.7168 27.2095C39.5483 27.207 39.3872 27.2729 39.2676 27.3926C39.0234 27.6367 39.0234 28.0322 39.2676 28.2764C39.5117 28.5205 39.9072 28.5205 40.1514 28.2764C40.3955 28.0322 40.3955 27.6367 40.1514 27.3926C40.0366 27.2778 39.8804 27.2119 39.7168 27.2095ZM37.5 28.125C37.1558 28.125 36.875 28.4058 36.875 28.75C36.875 29.0942 37.1558 29.375 37.5 29.375C37.8442 29.375 38.125 29.0942 38.125 28.75C38.125 28.4058 37.8442 28.125 37.5 28.125ZM18.75 28.75C18.4058 28.75 18.125 29.0308 18.125 29.375C18.125 29.7192 18.4058 30 18.75 30C19.0942 30 19.375 29.7192 19.375 29.375C19.375 29.0308 19.0942 28.75 18.75 28.75ZM31.25 28.75C30.9058 28.75 30.625 29.0308 30.625 29.375C30.625 29.7192 30.9058 30 31.25 30C31.5942 30 31.875 29.7192 31.875 29.375C31.875 29.0308 31.5942 28.75 31.25 28.75ZM8.75 31.25C8.40576 31.25 8.125 31.5308 8.125 31.875C8.125 32.2192 8.40576 32.5 8.75 32.5C9.09424 32.5 9.375 32.2192 9.375 31.875C9.375 31.5308 9.09424 31.25 8.75 31.25ZM11.25 31.25C10.9058 31.25 10.625 31.5308 10.625 31.875C10.625 32.2192 10.9058 32.5 11.25 32.5C11.5942 32.5 11.875 32.2192 11.875 31.875C11.875 31.5308 11.5942 31.25 11.25 31.25ZM13.75 31.25C13.4058 31.25 13.125 31.5308 13.125 31.875C13.125 32.2192 13.4058 32.5 13.75 32.5C14.0942 32.5 14.375 32.2192 14.375 31.875C14.375 31.5308 14.0942 31.25 13.75 31.25ZM16.25 31.25C15.9058 31.25 15.625 31.5308 15.625 31.875C15.625 32.2192 15.9058 32.5 16.25 32.5C16.5942 32.5 16.875 32.2192 16.875 31.875C16.875 31.5308 16.5942 31.25 16.25 31.25ZM18.75 31.25C18.4058 31.25 18.125 31.5308 18.125 31.875C18.125 32.2192 18.4058 32.5 18.75 32.5C19.0942 32.5 19.375 32.2192 19.375 31.875C19.375 31.5308 19.0942 31.25 18.75 31.25ZM21.25 31.25C20.9058 31.25 20.625 31.5308 20.625 31.875C20.625 32.2192 20.9058 32.5 21.25 32.5C21.5942 32.5 21.875 32.2192 21.875 31.875C21.875 31.5308 21.5942 31.25 21.25 31.25ZM23.75 31.25C23.4058 31.25 23.125 31.5308 23.125 31.875C23.125 32.2192 23.4058 32.5 23.75 32.5C24.0942 32.5 24.375 32.2192 24.375 31.875C24.375 31.5308 24.0942 31.25 23.75 31.25ZM26.25 31.25C25.9058 31.25 25.625 31.5308 25.625 31.875C25.625 32.2192 25.9058 32.5 26.25 32.5C26.5942 32.5 26.875 32.2192 26.875 31.875C26.875 31.5308 26.5942 31.25 26.25 31.25ZM28.75 31.25C28.4058 31.25 28.125 31.5308 28.125 31.875C28.125 32.2192 28.4058 32.5 28.75 32.5C29.0942 32.5 29.375 32.2192 29.375 31.875C29.375 31.5308 29.0942 31.25 28.75 31.25ZM31.25 31.25C30.9058 31.25 30.625 31.5308 30.625 31.875C30.625 32.2192 30.9058 32.5 31.25 32.5C31.5942 32.5 31.875 32.2192 31.875 31.875C31.875 31.5308 31.5942 31.25 31.25 31.25ZM33.75 31.25C33.4058 31.25 33.125 31.5308 33.125 31.875C33.125 32.2192 33.4058 32.5 33.75 32.5C34.0942 32.5 34.375 32.2192 34.375 31.875C34.375 31.5308 34.0942 31.25 33.75 31.25ZM36.25 31.25C35.9058 31.25 35.625 31.5308 35.625 31.875C35.625 32.2192 35.9058 32.5 36.25 32.5C36.5942 32.5 36.875 32.2192 36.875 31.875C36.875 31.5308 36.5942 31.25 36.25 31.25ZM38.75 31.25C38.4058 31.25 38.125 31.5308 38.125 31.875C38.125 32.2192 38.4058 32.5 38.75 32.5C39.0942 32.5 39.375 32.2192 39.375 31.875C39.375 31.5308 39.0942 31.25 38.75 31.25ZM41.25 31.25C40.9058 31.25 40.625 31.5308 40.625 31.875C40.625 32.2192 40.9058 32.5 41.25 32.5C41.5942 32.5 41.875 32.2192 41.875 31.875C41.875 31.5308 41.5942 31.25 41.25 31.25ZM18.75 33.75C18.4058 33.75 18.125 34.0308 18.125 34.375C18.125 34.7192 18.4058 35 18.75 35C19.0942 35 19.375 34.7192 19.375 34.375C19.375 34.0308 19.0942 33.75 18.75 33.75ZM31.25 33.75C30.9058 33.75 30.625 34.0308 30.625 34.375C30.625 34.7192 30.9058 35 31.25 35C31.5942 35 31.875 34.7192 31.875 34.375C31.875 34.0308 31.5942 33.75 31.25 33.75ZM13.125 34.375C12.7808 34.375 12.5 34.6558 12.5 35C12.5 35.3442 12.7808 35.625 13.125 35.625C13.4692 35.625 13.75 35.3442 13.75 35C13.75 34.6558 13.4692 34.375 13.125 34.375ZM27.8125 34.375C27.2949 34.375 26.875 34.7949 26.875 35.3125C26.875 35.8301 27.2949 36.25 27.8125 36.25C28.3301 36.25 28.75 35.8301 28.75 35.3125C28.75 34.7949 28.3301 34.375 27.8125 34.375ZM37.5 35C36.8091 35 36.25 35.5591 36.25 36.25C36.25 36.3086 36.2695 36.3794 36.2866 36.4478C36.2231 36.4087 36.1621 36.377 36.1035 36.3574C35.4443 36.145 34.7412 36.5039 34.5288 37.1582C34.314 37.8174 34.6729 38.5205 35.3296 38.7329C35.3857 38.7524 35.4517 38.7622 35.5225 38.7671C35.4687 38.8135 35.4199 38.8599 35.3857 38.9062C34.9805 39.4653 35.105 40.249 35.6641 40.6543C36.2207 41.0596 37.002 40.9351 37.4097 40.3784C37.4438 40.3296 37.4707 40.2686 37.5 40.2051C37.5269 40.2686 37.5562 40.3296 37.5903 40.3784C37.9956 40.9351 38.7769 41.0596 39.3359 40.6543C39.895 40.249 40.0195 39.4653 39.6118 38.9062C39.5776 38.8599 39.5313 38.8135 39.4751 38.7671C39.5459 38.7622 39.6143 38.7524 39.668 38.7329C40.3271 38.5205 40.686 37.8149 40.4712 37.1582C40.2588 36.5039 39.5532 36.145 38.8965 36.3574C38.8379 36.377 38.7769 36.4087 38.7134 36.4478C38.7305 36.3794 38.75 36.3086 38.75 36.25C38.75 35.5591 38.1909 35 37.5 35ZM15.3418 35.2905C15.1733 35.2881 15.0122 35.354 14.8926 35.4712C14.6484 35.7153 14.6484 36.1133 14.8926 36.3574C15.1367 36.5991 15.5322 36.5991 15.7764 36.3574C16.0205 36.1133 16.0205 35.7153 15.7764 35.4712C15.6616 35.3564 15.5054 35.2905 15.3418 35.2905ZM10.9253 35.2905C10.7544 35.2881 10.5908 35.354 10.4712 35.4736C10.2295 35.7178 10.2295 36.1133 10.4712 36.3574C10.7153 36.6016 11.1133 36.6016 11.3574 36.3574C11.5991 36.1133 11.5991 35.7178 11.3574 35.4736C11.2402 35.3589 11.0864 35.293 10.9253 35.2905ZM13.125 36.25C12.0972 36.25 11.25 37.0972 11.25 38.125C11.25 39.1528 12.0972 40 13.125 40C14.1528 40 15 39.1528 15 38.125C15 37.0972 14.1528 36.25 13.125 36.25ZM18.75 36.25C18.4058 36.25 18.125 36.5308 18.125 36.875C18.125 37.2192 18.4058 37.5 18.75 37.5C19.0942 37.5 19.375 37.2192 19.375 36.875C19.375 36.5308 19.0942 36.25 18.75 36.25ZM24.0625 36.25C22.8613 36.25 21.875 37.2363 21.875 38.4375C21.875 38.5254 21.9019 38.5889 21.9116 38.6694C21.5356 39.0112 21.25 39.4531 21.25 40C21.25 41.0278 22.0972 41.875 23.125 41.875H26.875C27.9028 41.875 28.75 41.0278 28.75 40C28.75 39.1431 28.1079 38.5303 27.3145 38.3105C27.0947 37.5171 26.4819 36.875 25.625 36.875C25.5859 36.875 25.5566 36.8848 25.5176 36.8872C25.127 36.521 24.6387 36.25 24.0625 36.25ZM31.25 36.25C30.9058 36.25 30.625 36.5308 30.625 36.875C30.625 37.2192 30.9058 37.5 31.25 37.5C31.5942 37.5 31.875 37.2192 31.875 36.875C31.875 36.5308 31.5942 36.25 31.25 36.25ZM37.5 36.875C38.1909 36.875 38.75 37.4341 38.75 38.125C38.75 38.8159 38.1909 39.375 37.5 39.375C36.8091 39.375 36.25 38.8159 36.25 38.125C36.25 37.4341 36.8091 36.875 37.5 36.875ZM10 37.5C9.65576 37.5 9.375 37.7808 9.375 38.125C9.375 38.4692 9.65576 38.75 10 38.75C10.3442 38.75 10.625 38.4692 10.625 38.125C10.625 37.7808 10.3442 37.5 10 37.5ZM13.125 37.5C13.4766 37.5 13.75 37.7734 13.75 38.125C13.75 38.4766 13.4766 38.75 13.125 38.75C12.7734 38.75 12.5 38.4766 12.5 38.125C12.5 37.7734 12.7734 37.5 13.125 37.5ZM16.25 37.5C15.9058 37.5 15.625 37.7808 15.625 38.125C15.625 38.4692 15.9058 38.75 16.25 38.75C16.5942 38.75 16.875 38.4692 16.875 38.125C16.875 37.7808 16.5942 37.5 16.25 37.5ZM24.0625 37.5C24.3823 37.5 24.6558 37.6562 24.8242 37.8979L25.0684 38.2422L25.4785 38.1445C25.542 38.1299 25.5884 38.125 25.625 38.125C25.979 38.125 26.25 38.396 26.25 38.75V39.375H26.875C27.229 39.375 27.5 39.646 27.5 40C27.5 40.354 27.229 40.625 26.875 40.625H23.125C22.771 40.625 22.5 40.354 22.5 40C22.5 39.751 22.6416 39.5459 22.8516 39.4434L23.3228 39.209L23.1714 38.7036C23.1396 38.6011 23.125 38.5132 23.125 38.4375C23.125 37.9126 23.5376 37.5 24.0625 37.5ZM18.75 38.75C18.4058 38.75 18.125 39.0308 18.125 39.375C18.125 39.7192 18.4058 40 18.75 40C19.0942 40 19.375 39.7192 19.375 39.375C19.375 39.0308 19.0942 38.75 18.75 38.75ZM31.25 38.75C30.9058 38.75 30.625 39.0308 30.625 39.375C30.625 39.7192 30.9058 40 31.25 40C31.5942 40 31.875 39.7192 31.875 39.375C31.875 39.0308 31.5942 38.75 31.25 38.75ZM10.9253 39.7095C10.7544 39.707 10.5933 39.7729 10.4736 39.8926C10.2295 40.1367 10.2295 40.5322 10.4736 40.7764C10.7178 41.0205 11.1133 41.0205 11.3574 40.7764C11.6016 40.5322 11.6016 40.1367 11.3574 39.8926C11.2427 39.7778 11.0864 39.7119 10.9253 39.7095ZM15.3442 39.7095C15.1758 39.707 15.0122 39.7729 14.8926 39.8926C14.6484 40.1367 14.6484 40.5322 14.8926 40.7764C15.1367 41.0205 15.5322 41.0205 15.7764 40.7764C16.0205 40.5322 16.0205 40.1367 15.7764 39.8926C15.6616 39.7778 15.5078 39.7119 15.3442 39.7095ZM13.125 40.625C12.7808 40.625 12.5 40.9058 12.5 41.25C12.5 41.5942 12.7808 41.875 13.125 41.875C13.4692 41.875 13.75 41.5942 13.75 41.25C13.75 40.9058 13.4692 40.625 13.125 40.625ZM18.75 41.25C18.4058 41.25 18.125 41.5308 18.125 41.875C18.125 42.2192 18.4058 42.5 18.75 42.5C19.0942 42.5 19.375 42.2192 19.375 41.875C19.375 41.5308 19.0942 41.25 18.75 41.25ZM31.25 41.25C30.9058 41.25 30.625 41.5308 30.625 41.875C30.625 42.2192 30.9058 42.5 31.25 42.5C31.5942 42.5 31.875 42.2192 31.875 41.875C31.875 41.5308 31.5942 41.25 31.25 41.25Z" fill="#D3D3D3"/>
</svg>
